sip.ufo
<glyph name="u20000" format="2">
  <advance width="1000"/>
  <unicode hex="20000"/>
  <outline>
    <contour>
      <point x="46" y="691" type="line"/>
      <point x="89" y="680"/>
      <point x="160" y="680" type="line"/>
      <point x="812" y="680" type="line"/>
      <point x="863" y="739" type="line"/>
      <point x="902" y="710"/>
      <point x="936" y="681" type="line"/>
      <point x="945" y="676"/>
      <point x="945" y="669" type="line"/>
      <point x="945" y="652"/>
      <point x="929" y="652" type="line"/>
      <point x="593" y="652" type="line"/>
      <point x="593" y="426" type="line"/>
      <point x="593" y="403"/>
      <point x="595" y="396" type="line"/>
      <point x="597" y="380"/>
      <point x="597" y="368" type="line"/>
      <point x="597" y="337"/>
      <point x="566" y="337" type="line"/>
      <point x="542" y="337"/>
      <point x="542" y="352" type="line"/>
      <point x="234" y="352" type="line"/>
      <point x="234" y="20" type="line"/>
      <point x="234" y="-21"/>
      <point x="241" y="-31" type="line"/>
      <point x="248" y="-43"/>
      <point x="272" y="-48" type="line"/>
      <point x="312" y="-57"/>
      <point x="374" y="-61" type="line"/>
      <point x="454" y="-66"/>
      <point x="543" y="-66" type="line"/>
      <point x="603" y="-66"/>
      <point x="683" y="-62" type="line"/>
      <point x="729" y="-59"/>
      <point x="758" y="-51" type="line"/>
      <point x="777" y="-46"/>
      <point x="785" y="-46" type="line"/>
      <point x="803" y="-46"/>
      <point x="814" y="-55" type="line"/>
      <point x="828" y="-63"/>
      <point x="828" y="-77" type="line"/>
      <point x="828" y="-85"/>
      <point x="823" y="-88" type="line"/>
      <point x="817" y="-93"/>
      <point x="794" y="-97" type="line"/>
      <point x="759" y="-102"/>
      <point x="686" y="-104" type="line"/>
      <point x="602" y="-109"/>
      <point x="553" y="-109" type="line"/>
      <point x="456" y="-109"/>
      <point x="358" y="-101" type="line"/>
      <point x="267" y="-96"/>
      <point x="238" y="-85" type="line"/>
      <point x="218" y="-79"/>
      <point x="207" y="-67" type="line"/>
      <point x="195" y="-57"/>
      <point x="189" y="-38" type="line"/>
      <point x="187" y="-21"/>
      <point x="187" y="23" type="line"/>
      <point x="187" y="398" type="line"/>
      <point x="187" y="412"/>
      <point x="183" y="430" type="line"/>
      <point x="250" y="380" type="line"/>
      <point x="543" y="380" type="line"/>
      <point x="543" y="393"/>
      <point x="544" y="406" type="line"/>
      <point x="546" y="439"/>
      <point x="546" y="466" type="line"/>
      <point x="546" y="652" type="line"/>
      <point x="160" y="652" type="line"/>
      <point x="91" y="651"/>
      <point x="66" y="648" type="line"/>
    </contour>
  </outline>
</glyph>
<glyph name="u20001" format="2">
  <advance width="1000"/>
  <unicode hex="20001"/>
  <outline>
    <contour>
      <point x="46" y="551" type="line"/>
      <point x="89" y="540"/>
      <point x="160" y="540" type="line"/>
      <point x="308" y="540" type="line"/>
      <point x="334" y="662"/>
      <point x="343" y="751" type="line"/>
      <point x="385" y="747"/>
      <point x="419" y="731" type="line"/>
      <point x="425" y="729"/>
      <point x="425" y="723" type="line"/>
      <point x="425" y="716"/>
      <point x="410" y="711" type="line"/>
      <point x="395" y="706"/>
      <point x="382" y="704" type="line"/>
      <point x="372" y="619"/>
      <point x="352" y="540" type="line"/>
      <point x="804" y="540" type="line"/>
      <point x="855" y="598" type="line"/>
      <point x="894" y="568"/>
      <point x="928" y="541" type="line"/>
      <point x="937" y="535"/>
      <point x="937" y="527" type="line"/>
      <point x="937" y="512"/>
      <point x="921" y="512" type="line"/>
      <point x="345" y="512" type="line"/>
      <point x="344" y="505"/>
      <point x="342" y="499" type="line"/>
      <point x="324" y="402"/>
      <point x="288" y="290" type="line"/>
      <point x="792" y="290" type="line"/>
      <point x="828" y="320" type="line"/>
      <point x="860" y="302"/>
      <point x="878" y="286" type="line"/>
      <point x="886" y="277"/>
      <point x="886" y="273" type="line"/>
      <point x="886" y="262"/>
      <point x="847" y="247" type="line"/>
      <point x="839" y="136"/>
      <point x="823" y="59" type="line"/>
      <point x="805" y="-21"/>
      <point x="788" y="-59" type="line"/>
      <point x="770" y="-92"/>
      <point x="750" y="-107" type="line"/>
      <point x="727" y="-126"/>
      <point x="701" y="-139" type="line"/>
      <point x="678" y="-148"/>
      <point x="664" y="-148" type="line"/>
      <point x="664" y="-132"/>
      <point x="654" y="-124" type="line"/>
      <point x="642" y="-113"/>
      <point x="527" y="-85" type="line"/>
      <point x="531" y="-66" type="line"/>
      <point x="637" y="-85"/>
      <point x="671" y="-85" type="line"/>
      <point x="690" y="-85"/>
      <point x="706" y="-79" type="line"/>
      <point x="717" y="-77"/>
      <point x="728" y="-63" type="line"/>
      <point x="741" y="-50"/>
      <point x="756" y="-15" type="line"/>
      <point x="771" y="21"/>
      <point x="781" y="89" type="line"/>
      <point x="794" y="153"/>
      <point x="800" y="262" type="line"/>
      <point x="279" y="262" type="line"/>
      <point x="273" y="251"/>
      <point x="253" y="251" type="line"/>
      <point x="234" y="251"/>
      <point x="234" y="262" type="line"/>
      <point x="239" y="289" type="line"/>
      <point x="251" y="312"/>
      <point x="264" y="357" type="line"/>
      <point x="286" y="439"/>
      <point x="302" y="512" type="line"/>
      <point x="160" y="512" type="line"/>
      <point x="91" y="511"/>
      <point x="66" y="509" type="line"/>
    </contour>
  </outline>
</glyph>
<glyph name="u20002" format="2">
  <advance width="1000"/>
  <unicode hex="20002"/>
  <outline>
    <contour>
      <point x="46" y="680" type="line"/>
      <point x="89" y="669"/>
      <point x="160" y="669" type="line"/>
      <point x="832" y="669" type="line"/>
      <point x="878" y="723" type="line"/>
      <point x="917" y="695"/>
      <point x="952" y="669" type="line"/>
      <point x="960" y="664"/>
      <point x="960" y="657" type="line"/>
      <point x="960" y="641"/>
      <point x="945" y="641" type="line"/>
      <point x="160" y="641" type="line"/>
      <point x="91" y="640"/>
      <point x="66" y="637" type="line"/>
    </contour>
    <contour>
      <point x="109" y="484" type="line"/>
      <point x="147" y="477"/>
      <point x="218" y="477" type="line"/>
      <point x="703" y="477" type="line"/>
      <point x="742" y="512" type="line"/>
      <point x="820" y="460"/>
      <point x="820" y="445" type="line"/>
      <point x="820" y="426"/>
      <point x="742" y="426" type="line"/>
      <point x="697" y="401"/>
      <point x="540" y="282" type="line"/>
      <point x="389" y="167"/>
      <point x="317" y="105" type="line"/>
      <point x="245" y="43"/>
      <point x="215" y="6" type="line"/>
      <point x="199" y="-15"/>
      <point x="199" y="-34" type="line"/>
      <point x="199" y="-43"/>
      <point x="201" y="-49" type="line"/>
      <point x="208" y="-58"/>
      <point x="226" y="-63" type="line"/>
      <point x="250" y="-70"/>
      <point x="313" y="-75" type="line"/>
      <point x="391" y="-81"/>
      <point x="526" y="-81" type="line"/>
      <point x="638" y="-81"/>
      <point x="735" y="-72" type="line"/>
      <point x="806" y="-66"/>
      <point x="820" y="-55" type="line"/>
      <point x="836" y="-42"/>
      <point x="839" y="-25" type="line"/>
      <point x="853" y="10"/>
      <point x="875" y="137" type="line"/>
      <point x="898" y="134" type="line"/>
      <point x="890" y="35"/>
      <point x="890" y="-3" type="line"/>
      <point x="890" y="-26"/>
      <point x="904" y="-36" type="line"/>
      <point x="929" y="-52"/>
      <point x="929" y="-70" type="line"/>
      <point x="929" y="-80"/>
      <point x="913" y="-89" type="line"/>
      <point x="897" y="-102"/>
      <point x="847" y="-108" type="line"/>
      <point x="800" y="-119"/>
      <point x="710" y="-125" type="line"/>
      <point x="627" y="-128"/>
      <point x="526" y="-128" type="line"/>
      <point x="378" y="-128"/>
      <point x="298" y="-120" type="line"/>
      <point x="236" y="-115"/>
      <point x="204" y="-103" type="line"/>
      <point x="174" y="-92"/>
      <point x="160" y="-74" type="line"/>
      <point x="148" y="-59"/>
      <point x="148" y="-34" type="line"/>
      <point x="148" y="-16"/>
      <point x="165" y="6" type="line"/>
      <point x="182" y="34"/>
      <point x="242" y="87" type="line"/>
      <point x="302" y="146"/>
      <point x="695" y="450" type="line"/>
      <point x="218" y="450" type="line"/>
      <point x="141" y="450"/>
      <point x="125" y="445" type="line"/>
    </contour>
  </outline>
</glyph>
<glyph name="u20003" format="2">
  <advance width="1000"/>
  <unicode hex="20003"/>
  <outline>
    <contour>
      <point x="242" y="743" type="line"/>
      <point x="300" y="700" type="line"/>
      <point x="675" y="700" type="line"/>
      <point x="707" y="743" type="line"/>
      <point x="742" y="721"/>
      <point x="758" y="701" type="line"/>
      <point x="765" y="693"/>
      <point x="765" y="688" type="line"/>
      <point x="765" y="679"/>
      <point x="726" y="657" type="line"/>
      <point x="726" y="-85" type="line"/>
      <point x="800" y="-85" type="line"/>
      <point x="847" y="-31" type="line"/>
      <point x="886" y="-59"/>
      <point x="920" y="-85" type="line"/>
      <point x="929" y="-90"/>
      <point x="929" y="-98" type="line"/>
      <point x="929" y="-113"/>
      <point x="914" y="-113" type="line"/>
      <point x="179" y="-113" type="line"/>
      <point x="110" y="-114"/>
      <point x="85" y="-116" type="line"/>
      <point x="66" y="-74" type="line"/>
      <point x="108" y="-85"/>
      <point x="179" y="-85" type="line"/>
      <point x="250" y="-85" type="line"/>
      <point x="250" y="676" type="line"/>
      <point x="250" y="715"/>
    </contour>
    <contour>
      <point x="292" y="-85" type="line"/>
      <point x="683" y="-85" type="line"/>
      <point x="683" y="673" type="line"/>
      <point x="292" y="673" type="line"/>
    </contour>
  </outline>
</glyph>
<glyph name="u20004" format="2">
  <advance width="1000"/>
  <unicode hex="20004"/>
  <outline>
    <contour>
      <point x="89" y="708" type="line"/>
      <point x="127" y="700"/>
      <point x="199" y="700" type="line"/>
      <point x="843" y="700" type="line"/>
      <point x="875" y="734" type="line"/>
      <point x="909" y="709"/>
      <point x="937" y="679" type="line"/>
      <point x="941" y="676"/>
      <point x="941" y="673" type="line"/>
      <point x="941" y="666"/>
      <point x="921" y="663" type="line"/>
      <point x="905" y="660"/>
      <point x="890" y="657" type="line"/>
      <point x="857" y="614"/>
      <point x="810" y="566" type="line"/>
      <point x="764" y="517"/>
      <point x="714" y="477" type="line"/>
      <point x="699" y="489" type="line"/>
      <point x="756" y="539"/>
      <point x="790" y="585" type="line"/>
      <point x="825" y="631"/>
      <point x="843" y="673" type="line"/>
      <point x="503" y="673" type="line"/>
      <point x="503" y="-77" type="line"/>
      <point x="812" y="-77" type="line"/>
      <point x="867" y="-16" type="line"/>
      <point x="907" y="-46"/>
      <point x="943" y="-76" type="line"/>
      <point x="953" y="-82"/>
      <point x="953" y="-89" type="line"/>
      <point x="953" y="-105"/>
      <point x="937" y="-105" type="line"/>
      <point x="160" y="-105" type="line"/>
      <point x="91" y="-106"/>
      <point x="66" y="-109" type="line"/>
      <point x="46" y="-66" type="line"/>
      <point x="89" y="-77"/>
      <point x="160" y="-77" type="line"/>
      <point x="460" y="-77" type="line"/>
      <point x="460" y="673" type="line"/>
      <point x="199" y="673" type="line"/>
      <point x="121" y="673"/>
      <point x="105" y="669" type="line"/>
    </contour>
  </outline>
</glyph>
<glyph name="u20005" format="2">
  <advance width="1000"/>
  <unicode hex="20005"/>
  <outline>
    <contour>
      <point x="50" y="708" type="line"/>
      <point x="93" y="695"/>
      <point x="164" y="695" type="line"/>
      <point x="808" y="695" type="line"/>
      <point x="859" y="755" type="line"/>
      <point x="898" y="725"/>
      <point x="932" y="697" type="line"/>
      <point x="941" y="691"/>
      <point x="941" y="684" type="line"/>
      <point x="941" y="669"/>
      <point x="925" y="669" type="line"/>
      <point x="535" y="669" type="line"/>
      <point x="534" y="479"/>
      <point x="516" y="372" type="line"/>
      <point x="515" y="365"/>
      <point x="514" y="359" type="line"/>
      <point x="820" y="359" type="line"/>
      <point x="855" y="391" type="line"/>
      <point x="888" y="373"/>
      <point x="906" y="355" type="line"/>
      <point x="914" y="348"/>
      <point x="914" y="344" type="line"/>
      <point x="914" y="332"/>
      <point x="875" y="316" type="line"/>
      <point x="864" y="185"/>
      <point x="844" y="94" type="line"/>
      <point x="822" y="-1"/>
      <point x="800" y="-45" type="line"/>
      <point x="778" y="-86"/>
      <point x="752" y="-104" type="line"/>
      <point x="723" y="-126"/>
      <point x="690" y="-141" type="line"/>
      <point x="662" y="-152"/>
      <point x="644" y="-152" type="line"/>
      <point x="644" y="-129"/>
      <point x="632" y="-117" type="line"/>
      <point x="618" y="-102"/>
      <point x="476" y="-63" type="line"/>
      <point x="480" y="-42" type="line"/>
      <point x="609" y="-89"/>
      <point x="652" y="-89" type="line"/>
      <point x="678" y="-89"/>
      <point x="698" y="-82" type="line"/>
      <point x="715" y="-79"/>
      <point x="729" y="-63" type="line"/>
      <point x="747" y="-46"/>
      <point x="767" y="-3" type="line"/>
      <point x="788" y="40"/>
      <point x="801" y="122" type="line"/>
      <point x="819" y="201"/>
      <point x="828" y="333" type="line"/>
      <point x="508" y="333" type="line"/>
      <point x="488" y="247"/>
      <point x="455" y="184" type="line"/>
      <point x="411" y="99"/>
      <point x="356" y="41" type="line"/>
      <point x="291" y="-24"/>
      <point x="226" y="-70" type="line"/>
      <point x="160" y="-112"/>
      <point x="70" y="-148" type="line"/>
      <point x="58" y="-128" type="line"/>
      <point x="137" y="-90"/>
      <point x="196" y="-52" type="line"/>
      <point x="249" y="-15"/>
      <point x="295" y="31" type="line"/>
      <point x="340" y="81"/>
      <point x="381" y="142" type="line"/>
      <point x="417" y="195"/>
      <point x="440" y="265" type="line"/>
      <point x="449" y="298"/>
      <point x="456" y="333" type="line"/>
      <point x="149" y="333" type="line"/>
      <point x="146" y="329"/>
      <point x="144" y="328" type="line"/>
      <point x="129" y="320"/>
      <point x="121" y="320" type="line"/>
      <point x="101" y="320"/>
      <point x="101" y="329" type="line"/>
      <point x="101" y="335"/>
      <point x="104" y="343" type="line"/>
      <point x="116" y="375"/>
      <point x="139" y="484" type="line"/>
      <point x="180" y="669" type="line"/>
      <point x="164" y="669" type="line"/>
      <point x="95" y="668"/>
      <point x="70" y="665" type="line"/>
    </contour>
    <contour>
      <point x="461" y="359" type="line"/>
      <point x="467" y="392"/>
      <point x="470" y="424" type="line"/>
      <point x="480" y="510"/>
      <point x="480" y="669" type="line"/>
      <point x="231" y="669" type="line"/>
      <point x="160" y="359" type="line"/>
    </contour>
  </outline>
</glyph>
<glyph name="u20006" format="2">
  <advance width="1000"/>
  <unicode hex="20006"/>
  <outline>
    <contour>
      <point x="50" y="239" type="line"/>
      <point x="93" y="227"/>
      <point x="164" y="227" type="line"/>
      <point x="476" y="227" type="line"/>
      <point x="476" y="493" type="line"/>
      <point x="449" y="489"/>
      <point x="423" y="485" type="line"/>
      <point x="276" y="463"/>
      <point x="97" y="454" type="line"/>
      <point x="89" y="473" type="line"/>
      <point x="294" y="492"/>
      <point x="476" y="525" type="line"/>
      <point x="476" y="669" type="line"/>
      <point x="476" y="716"/>
      <point x="472" y="739" type="line"/>
      <point x="524" y="732"/>
      <point x="558" y="720" type="line"/>
      <point x="570" y="716"/>
      <point x="570" y="708" type="line"/>
      <point x="570" y="699"/>
      <point x="558" y="695" type="line"/>
      <point x="541" y="686"/>
      <point x="519" y="684" type="line"/>
      <point x="519" y="534" type="line"/>
      <point x="541" y="538"/>
      <point x="562" y="543" type="line"/>
      <point x="707" y="573"/>
      <point x="777" y="614" type="line"/>
      <point x="826" y="588"/>
      <point x="855" y="566" type="line"/>
      <point x="863" y="562"/>
      <point x="863" y="555" type="line"/>
      <point x="863" y="545"/>
      <point x="851" y="544" type="line"/>
      <point x="846" y="544"/>
      <point x="833" y="548" type="line"/>
      <point x="822" y="551"/>
      <point x="804" y="551" type="line"/>
      <point x="668" y="518"/>
      <point x="519" y="499" type="line"/>
      <point x="519" y="227" type="line"/>
      <point x="804" y="227" type="line"/>
      <point x="859" y="290" type="line"/>
      <point x="899" y="259"/>
      <point x="936" y="229" type="line"/>
      <point x="945" y="223"/>
      <point x="945" y="216" type="line"/>
      <point x="945" y="200"/>
      <point x="929" y="200" type="line"/>
      <point x="519" y="200" type="line"/>
      <point x="519" y="-66" type="line"/>
      <point x="519" y="-87"/>
      <point x="521" y="-94" type="line"/>
      <point x="523" y="-110"/>
      <point x="523" y="-120" type="line"/>
      <point x="523" y="-148"/>
      <point x="496" y="-148" type="line"/>
      <point x="472" y="-148"/>
      <point x="472" y="-132" type="line"/>
      <point x="472" y="-113"/>
      <point x="474" y="-84" type="line"/>
      <point x="476" y="-53"/>
      <point x="476" y="-31" type="line"/>
      <point x="476" y="200" type="line"/>
      <point x="164" y="200" type="line"/>
      <point x="95" y="199"/>
      <point x="70" y="195" type="line"/>
    </contour>
  </outline>
</glyph>
<glyph name="u20007" format="2">
  <advance width="1000"/>
  <unicode hex="20007"/>
  <outline>
    <contour>
      <point x="246" y="739" type="line"/>
      <point x="304" y="695" type="line"/>
      <point x="675" y="695" type="line"/>
      <point x="707" y="739" type="line"/>
      <point x="742" y="718"/>
      <point x="758" y="697" type="line"/>
      <point x="765" y="689"/>
      <point x="765" y="684" type="line"/>
      <point x="765" y="675"/>
      <point x="726" y="652" type="line"/>
      <point x="726" y="-85" type="line"/>
      <point x="816" y="-85" type="line"/>
      <point x="867" y="-27" type="line"/>
      <point x="906" y="-57"/>
      <point x="940" y="-84" type="line"/>
      <point x="949" y="-90"/>
      <point x="949" y="-98" type="line"/>
      <point x="949" y="-113"/>
      <point x="933" y="-113" type="line"/>
      <point x="171" y="-113" type="line"/>
      <point x="103" y="-114"/>
      <point x="78" y="-116" type="line"/>
      <point x="58" y="-74" type="line"/>
      <point x="101" y="-85"/>
      <point x="171" y="-85" type="line"/>
      <point x="253" y="-85" type="line"/>
      <point x="253" y="673" type="line"/>
      <point x="253" y="711"/>
    </contour>
    <contour>
      <point x="296" y="-85" type="line"/>
      <point x="683" y="-85" type="line"/>
      <point x="683" y="305" type="line"/>
      <point x="296" y="305" type="line"/>
    </contour>
    <contour>
      <point x="296" y="333" type="line"/>
      <point x="683" y="333" type="line"/>
      <point x="683" y="669" type="line"/>
      <point x="296" y="669" type="line"/>
    </contour>
  </outline>
</glyph>
<glyph name="u20008" format="2">
  <advance width="1000"/>
  <unicode hex="20008"/>
  <outline>
    <contour>
      <point x="710" y="684" type="line"/>
      <point x="587" y="662"/>
      <point x="445" y="649" type="line"/>
      <point x="349" y="639"/>
      <point x="235" y="635" type="line"/>
      <point x="234" y="630" type="line"/>
      <point x="234" y="454" type="line"/>
      <point x="593" y="454" type="line"/>
      <point x="628" y="484" type="line"/>
      <point x="655" y="462"/>
      <point x="674" y="441" type="line"/>
      <point x="679" y="436"/>
      <point x="679" y="430" type="line"/>
      <point x="679" y="419"/>
      <point x="663" y="412" type="line"/>
      <point x="647" y="406"/>
      <point x="632" y="402" type="line"/>
      <point x="619" y="302"/>
      <point x="601" y="195" type="line"/>
      <point x="765" y="195" type="line"/>
      <point x="792" y="227" type="line"/>
      <point x="843" y="197"/>
      <point x="843" y="184" type="line"/>
      <point x="843" y="174"/>
      <point x="816" y="157" type="line"/>
      <point x="816" y="-93" type="line"/>
      <point x="832" y="-93" type="line"/>
      <point x="878" y="-38" type="line"/>
      <point x="917" y="-66"/>
      <point x="952" y="-93" type="line"/>
      <point x="960" y="-99"/>
      <point x="960" y="-105" type="line"/>
      <point x="960" y="-120"/>
      <point x="945" y="-120" type="line"/>
      <point x="160" y="-120" type="line"/>
      <point x="91" y="-121"/>
      <point x="66" y="-124" type="line"/>
      <point x="46" y="-81" type="line"/>
      <point x="89" y="-93"/>
      <point x="160" y="-93" type="line"/>
      <point x="187" y="-93" type="line"/>
      <point x="187" y="634" type="line"/>
      <point x="187" y="669"/>
      <point x="183" y="684" type="line"/>
      <point x="242" y="657" type="line"/>
      <point x="242" y="656" type="line"/>
      <point x="398" y="671"/>
      <point x="535" y="699" type="line"/>
      <point x="635" y="720"/>
      <point x="683" y="747" type="line"/>
      <point x="732" y="721"/>
      <point x="761" y="699" type="line"/>
      <point x="769" y="694"/>
      <point x="769" y="688" type="line"/>
      <point x="769" y="678"/>
      <point x="757" y="676" type="line"/>
      <point x="752" y="676"/>
      <point x="739" y="680" type="line"/>
      <point x="729" y="684"/>
    </contour>
    <contour>
      <point x="769" y="-93" type="line"/>
      <point x="769" y="169" type="line"/>
      <point x="593" y="169" type="line"/>
      <point x="583" y="161"/>
      <point x="570" y="161" type="line"/>
      <point x="546" y="161"/>
      <point x="546" y="173" type="line"/>
      <point x="546" y="177"/>
      <point x="548" y="185" type="line"/>
      <point x="551" y="194"/>
      <point x="553" y="207" type="line"/>
      <point x="578" y="325"/>
      <point x="593" y="426" type="line"/>
      <point x="234" y="426" type="line"/>
      <point x="234" y="-93" type="line"/>
    </contour>
  </outline>
</glyph>
<glyph name="u20009" format="2">
  <advance width="1000"/>
  <unicode hex="20009"/>
  <outline>
    <contour>
      <point x="765" y="648" type="line"/>
      <point x="634" y="618"/>
      <point x="483" y="602" type="line"/>
      <point x="382" y="586"/>
      <point x="260" y="580" type="line"/>
      <point x="257" y="570" type="line"/>
      <point x="257" y="301" type="line"/>
      <point x="765" y="301" type="line"/>
      <point x="816" y="359" type="line"/>
      <point x="855" y="331"/>
      <point x="889" y="302" type="line"/>
      <point x="898" y="297"/>
      <point x="898" y="290" type="line"/>
      <point x="898" y="273"/>
      <point x="882" y="273" type="line"/>
      <point x="257" y="273" type="line"/>
      <point x="257" y="-77" type="line"/>
      <point x="824" y="-77" type="line"/>
      <point x="875" y="-20" type="line"/>
      <point x="915" y="-48"/>
      <point x="951" y="-76" type="line"/>
      <point x="960" y="-82"/>
      <point x="960" y="-89" type="line"/>
      <point x="960" y="-105"/>
      <point x="945" y="-105" type="line"/>
      <point x="148" y="-105" type="line"/>
      <point x="79" y="-106"/>
      <point x="54" y="-109" type="line"/>
      <point x="35" y="-66" type="line"/>
      <point x="77" y="-77"/>
      <point x="148" y="-77" type="line"/>
      <point x="210" y="-77" type="line"/>
      <point x="210" y="575" type="line"/>
      <point x="210" y="610"/>
      <point x="207" y="626" type="line"/>
      <point x="259" y="601" type="line"/>
      <point x="429" y="620"/>
      <point x="580" y="654" type="line"/>
      <point x="687" y="679"/>
      <point x="738" y="712" type="line"/>
      <point x="787" y="686"/>
      <point x="816" y="664" type="line"/>
      <point x="824" y="659"/>
      <point x="824" y="652" type="line"/>
      <point x="824" y="643"/>
      <point x="812" y="641" type="line"/>
      <point x="807" y="641"/>
      <point x="793" y="645" type="line"/>
      <point x="783" y="648"/>
    </contour>
  </outline>
</glyph>
<glyph name="u2000A" format="2">
  <advance width="1000"/>
  <unicode hex="2000A"/>
  <outline>
    <contour>
      <point x="46" y="579" type="line"/>
      <point x="89" y="566"/>
      <point x="160" y="566" type="line"/>
      <point x="374" y="566" type="line"/>
      <point x="393" y="602"/>
      <point x="407" y="636" type="line"/>
      <point x="432" y="695"/>
      <point x="441" y="747" type="line"/>
      <point x="491" y="739"/>
      <point x="517" y="727" type="line"/>
      <point x="531" y="723"/>
      <point x="531" y="716" type="line"/>
      <point x="531" y="707"/>
      <point x="514" y="701" type="line"/>
      <point x="495" y="694"/>
      <point x="480" y="691" type="line"/>
      <point x="453" y="617"/>
      <point x="427" y="566" type="line"/>
      <point x="816" y="566" type="line"/>
      <point x="867" y="626" type="line"/>
      <point x="906" y="596"/>
      <point x="940" y="567" type="line"/>
      <point x="949" y="563"/>
      <point x="949" y="555" type="line"/>
      <point x="949" y="540"/>
      <point x="933" y="540" type="line"/>
      <point x="412" y="540" type="line"/>
      <point x="372" y="473"/>
      <point x="320" y="415" type="line"/>
      <point x="264" y="353"/>
      <point x="208" y="312" type="line"/>
      <point x="150" y="271"/>
      <point x="62" y="219" type="line"/>
      <point x="46" y="239" type="line"/>
      <point x="123" y="287"/>
      <point x="172" y="326" type="line"/>
      <point x="219" y="361"/>
      <point x="260" y="410" type="line"/>
      <point x="302" y="453"/>
      <point x="342" y="513" type="line"/>
      <point x="351" y="526"/>
      <point x="359" y="540" type="line"/>
      <point x="160" y="540" type="line"/>
      <point x="91" y="539"/>
      <point x="66" y="536" type="line"/>
    </contour>
    <contour>
      <point x="656" y="372" type="line"/>
      <point x="714" y="324"/>
      <point x="773" y="257" type="line"/>
      <point x="814" y="214"/>
      <point x="835" y="176" type="line"/>
      <point x="851" y="148"/>
      <point x="859" y="117" type="line"/>
      <point x="863" y="99"/>
      <point x="863" y="83" type="line"/>
      <point x="863" y="55"/>
      <point x="839" y="55" type="line"/>
      <point x="833" y="55"/>
      <point x="825" y="60" type="line"/>
      <point x="813" y="69"/>
      <point x="803" y="98" type="line"/>
      <point x="780" y="160"/>
      <point x="757" y="201" type="line"/>
      <point x="735" y="245"/>
      <point x="711" y="279" type="line"/>
      <point x="681" y="327"/>
      <point x="644" y="359" type="line"/>
    </contour>
    <contour>
      <point x="457" y="477" type="line"/>
      <point x="510" y="461"/>
      <point x="545" y="442" type="line"/>
      <point x="554" y="438"/>
      <point x="554" y="430" type="line"/>
      <point x="554" y="423"/>
      <point x="541" y="419" type="line"/>
      <point x="525" y="413"/>
      <point x="511" y="407" type="line"/>
      <point x="511" y="-70" type="line"/>
      <point x="511" y="-104"/>
      <point x="498" y="-120" type="line"/>
      <point x="486" y="-136"/>
      <point x="465" y="-146" type="line"/>
      <point x="447" y="-156"/>
      <point x="433" y="-156" type="line"/>
      <point x="431" y="-141" type="line"/>
      <point x="429" y="-129"/>
      <point x="423" y="-123" type="line"/>
      <point x="413" y="-111"/>
      <point x="388" y="-103" type="line"/>
      <point x="359" y="-92"/>
      <point x="324" y="-89" type="line"/>
      <point x="324" y="-66" type="line"/>
      <point x="380" y="-81"/>
      <point x="425" y="-81" type="line"/>
      <point x="449" y="-81"/>
      <point x="456" y="-75" type="line"/>
      <point x="464" y="-69"/>
      <point x="464" y="-46" type="line"/>
      <point x="464" y="372" type="line"/>
      <point x="464" y="425"/>
    </contour>
  </outline>
</glyph>
<glyph name="u2000B" format="2">
  <advance width="1000"/>
  <unicode hex="2000B"/>
  <outline>
    <contour>
      <point x="42" y="544" type="line"/>
      <point x="85" y="532"/>
      <point x="156" y="532" type="line"/>
      <point x="550" y="532" type="line"/>
      <point x="550" y="598" type="line"/>
      <point x="550" y="698"/>
      <point x="542" y="762" type="line"/>
      <point x="590" y="756"/>
      <point x="623" y="745" type="line"/>
      <point x="636" y="742"/>
      <point x="636" y="730" type="line"/>
      <point x="636" y="724"/>
      <point x="623" y="717" type="line"/>
      <point x="610" y="709"/>
      <point x="597" y="704" type="line"/>
      <point x="597" y="532" type="line"/>
      <point x="824" y="532" type="line"/>
      <point x="875" y="591" type="line"/>
      <point x="914" y="561"/>
      <point x="948" y="533" type="line"/>
      <point x="957" y="527"/>
      <point x="957" y="520" type="line"/>
      <point x="957" y="505"/>
      <point x="941" y="505" type="line"/>
      <point x="597" y="505" type="line"/>
      <point x="597" y="430" type="line"/>
      <point x="597" y="303"/>
      <point x="573" y="230" type="line"/>
      <point x="552" y="152"/>
      <point x="509" y="94" type="line"/>
      <point x="499" y="78"/>
      <point x="489" y="64" type="line"/>
      <point x="499" y="57"/>
      <point x="509" y="51" type="line"/>
      <point x="608" y="-8"/>
      <point x="732" y="-42" type="line"/>
      <point x="840" y="-74"/>
      <point x="960" y="-74" type="line"/>
      <point x="960" y="-98" type="line"/>
      <point x="918" y="-102"/>
      <point x="902" y="-141" type="line"/>
      <point x="753" y="-105"/>
      <point x="656" y="-63" type="line"/>
      <point x="557" y="-17"/>
      <point x="470" y="43" type="line"/>
      <point x="443" y="15"/>
      <point x="409" y="-8" type="line"/>
      <point x="328" y="-65"/>
      <point x="251" y="-98" type="line"/>
      <point x="157" y="-133"/>
      <point x="50" y="-152" type="line"/>
      <point x="39" y="-136" type="line"/>
      <point x="198" y="-97"/>
      <point x="278" y="-52" type="line"/>
      <point x="354" y="-13"/>
      <point x="410" y="41" type="line"/>
      <point x="424" y="54"/>
      <point x="436" y="67" type="line"/>
      <point x="364" y="121"/>
      <point x="308" y="184" type="line"/>
      <point x="240" y="251"/>
      <point x="171" y="359" type="line"/>
      <point x="191" y="368" type="line"/>
      <point x="254" y="265"/>
      <point x="335" y="188" type="line"/>
      <point x="387" y="137"/>
      <point x="453" y="89" type="line"/>
      <point x="475" y="118"/>
      <point x="494" y="151" type="line"/>
      <point x="522" y="205"/>
      <point x="536" y="279" type="line"/>
      <point x="550" y="351"/>
      <point x="550" y="430" type="line"/>
      <point x="550" y="505" type="line"/>
      <point x="156" y="505" type="line"/>
      <point x="87" y="504"/>
      <point x="62" y="501" type="line"/>
    </contour>
    <contour>
      <point x="695" y="727" type="line"/>
      <point x="725" y="712"/>
      <point x="749" y="695" type="line"/>
      <point x="772" y="682"/>
      <point x="786" y="671" type="line"/>
      <point x="799" y="661"/>
      <point x="805" y="653" type="line"/>
      <point x="810" y="646"/>
      <point x="813" y="641" type="line"/>
      <point x="816" y="636"/>
      <point x="816" y="630" type="line"/>
      <point x="815" y="598"/>
      <point x="792" y="598" type="line"/>
      <point x="788" y="598"/>
      <point x="784" y="601" type="line"/>
      <point x="779" y="604"/>
      <point x="765" y="628" type="line"/>
      <point x="750" y="650"/>
      <point x="732" y="669" type="line"/>
      <point x="714" y="688"/>
      <point x="683" y="712" type="line"/>
    </contour>
  </outline>
</glyph>
<glyph name="u2000C" format="2">
  <advance width="1000"/>
  <unicode hex="2000C"/>
  <outline>
    <contour>
      <point x="82" y="669" type="line"/>
      <point x="120" y="661"/>
      <point x="191" y="661" type="line"/>
      <point x="343" y="661" type="line"/>
      <point x="371" y="691" type="line"/>
      <point x="421" y="661"/>
      <point x="421" y="648" type="line"/>
      <point x="421" y="639"/>
      <point x="394" y="622" type="line"/>
      <point x="394" y="-77" type="line"/>
      <point x="582" y="-77" type="line"/>
      <point x="582" y="688" type="line"/>
      <point x="640" y="657" type="line"/>
      <point x="804" y="657" type="line"/>
      <point x="847" y="704" type="line"/>
      <point x="882" y="679"/>
      <point x="913" y="656" type="line"/>
      <point x="921" y="650"/>
      <point x="921" y="645" type="line"/>
      <point x="921" y="630"/>
      <point x="910" y="630" type="line"/>
      <point x="628" y="630" type="line"/>
      <point x="628" y="-77" type="line"/>
      <point x="828" y="-77" type="line"/>
      <point x="871" y="-31" type="line"/>
      <point x="906" y="-56"/>
      <point x="937" y="-78" type="line"/>
      <point x="945" y="-83"/>
      <point x="945" y="-89" type="line"/>
      <point x="945" y="-105"/>
      <point x="933" y="-105" type="line"/>
      <point x="160" y="-105" type="line"/>
      <point x="91" y="-106"/>
      <point x="66" y="-109" type="line"/>
      <point x="46" y="-66" type="line"/>
      <point x="89" y="-77"/>
      <point x="160" y="-77" type="line"/>
      <point x="347" y="-77" type="line"/>
      <point x="347" y="634" type="line"/>
      <point x="191" y="634" type="line"/>
      <point x="113" y="634"/>
      <point x="97" y="630" type="line"/>
    </contour>
  </outline>
</glyph>
<glyph name="u2000D" format="2">
  <advance width="1000"/>
  <unicode hex="2000D"/>
  <outline>
    <contour>
      <point x="42" y="355" type="line"/>
      <point x="85" y="344"/>
      <point x="156" y="344" type="line"/>
      <point x="179" y="344" type="line"/>
      <point x="179" y="626" type="line"/>
      <point x="179" y="673"/>
      <point x="175" y="695" type="line"/>
      <point x="221" y="689"/>
      <point x="250" y="677" type="line"/>
      <point x="261" y="673"/>
      <point x="261" y="665" type="line"/>
      <point x="261" y="656"/>
      <point x="252" y="652" type="line"/>
      <point x="239" y="643"/>
      <point x="222" y="641" type="line"/>
      <point x="222" y="344" type="line"/>
      <point x="468" y="344" type="line"/>
      <point x="468" y="684" type="line"/>
      <point x="468" y="726"/>
      <point x="464" y="747" type="line"/>
      <point x="510" y="741"/>
      <point x="540" y="730" type="line"/>
      <point x="550" y="726"/>
      <point x="550" y="719" type="line"/>
      <point x="550" y="711"/>
      <point x="540" y="707" type="line"/>
      <point x="525" y="698"/>
      <point x="507" y="695" type="line"/>
      <point x="507" y="344" type="line"/>
      <point x="742" y="344" type="line"/>
      <point x="742" y="634" type="line"/>
      <point x="742" y="676"/>
      <point x="738" y="695" type="line"/>
      <point x="783" y="690"/>
      <point x="813" y="680" type="line"/>
      <point x="824" y="676"/>
      <point x="824" y="669" type="line"/>
      <point x="824" y="660"/>
      <point x="813" y="656" type="line"/>
      <point x="799" y="646"/>
      <point x="781" y="645" type="line"/>
      <point x="781" y="344" type="line"/>
      <point x="824" y="344" type="line"/>
      <point x="871" y="398" type="line"/>
      <point x="908" y="371"/>
      <point x="940" y="344" type="line"/>
      <point x="949" y="340"/>
      <point x="949" y="333" type="line"/>
      <point x="949" y="316"/>
      <point x="933" y="316" type="line"/>
      <point x="781" y="316" type="line"/>
      <point x="781" y="-81" type="line"/>
      <point x="820" y="-38" type="line"/>
      <point x="853" y="-63"/>
      <point x="882" y="-86" type="line"/>
      <point x="890" y="-91"/>
      <point x="890" y="-98" type="line"/>
      <point x="890" y="-113"/>
      <point x="878" y="-113" type="line"/>
      <point x="222" y="-113" type="line"/>
      <point x="222" y="-116" type="line"/>
      <point x="222" y="-136"/>
      <point x="199" y="-136" type="line"/>
      <point x="179" y="-136"/>
      <point x="179" y="-113" type="line"/>
      <point x="179" y="316" type="line"/>
      <point x="156" y="316" type="line"/>
      <point x="87" y="315"/>
      <point x="62" y="313" type="line"/>
    </contour>
    <contour>
      <point x="742" y="-85" type="line"/>
      <point x="742" y="316" type="line"/>
      <point x="507" y="316" type="line"/>
      <point x="507" y="-85" type="line"/>
    </contour>
    <contour>
      <point x="468" y="-85" type="line"/>
      <point x="468" y="316" type="line"/>
      <point x="222" y="316" type="line"/>
      <point x="222" y="-85" type="line"/>
    </contour>
  </outline>
</glyph>
<glyph name="u2000E" format="2">
  <advance width="1000"/>
  <unicode hex="2000E"/>
  <outline>
    <contour>
      <point x="62" y="-81" type="line"/>
      <point x="104" y="-93"/>
      <point x="175" y="-93" type="line"/>
      <point x="328" y="-93" type="line"/>
      <point x="328" y="212" type="line"/>
      <point x="230" y="212" type="line"/>
      <point x="161" y="211"/>
      <point x="136" y="208" type="line"/>
      <point x="117" y="251" type="line"/>
      <point x="159" y="239"/>
      <point x="230" y="239" type="line"/>
      <point x="328" y="239" type="line"/>
      <point x="328" y="505" type="line"/>
      <point x="203" y="505" type="line"/>
      <point x="134" y="504"/>
      <point x="109" y="501" type="line"/>
      <point x="89" y="544" type="line"/>
      <point x="132" y="532"/>
      <point x="203" y="532" type="line"/>
      <point x="328" y="532" type="line"/>
      <point x="328" y="684" type="line"/>
      <point x="328" y="726"/>
      <point x="324" y="747" type="line"/>
      <point x="369" y="741"/>
      <point x="399" y="730" type="line"/>
      <point x="410" y="726"/>
      <point x="410" y="719" type="line"/>
      <point x="410" y="711"/>
      <point x="399" y="707" type="line"/>
      <point x="385" y="698"/>
      <point x="367" y="695" type="line"/>
      <point x="367" y="532" type="line"/>
      <point x="625" y="532" type="line"/>
      <point x="625" y="684" type="line"/>
      <point x="625" y="726"/>
      <point x="621" y="747" type="line"/>
      <point x="666" y="741"/>
      <point x="696" y="730" type="line"/>
      <point x="707" y="726"/>
      <point x="707" y="719" type="line"/>
      <point x="707" y="711"/>
      <point x="696" y="707" type="line"/>
      <point x="682" y="698"/>
      <point x="664" y="695" type="line"/>
      <point x="664" y="532" type="line"/>
      <point x="781" y="532" type="line"/>
      <point x="832" y="591" type="line"/>
      <point x="871" y="561"/>
      <point x="905" y="533" type="line"/>
      <point x="914" y="527"/>
      <point x="914" y="520" type="line"/>
      <point x="914" y="505"/>
      <point x="898" y="505" type="line"/>
      <point x="664" y="505" type="line"/>
      <point x="664" y="239" type="line"/>
      <point x="761" y="239" type="line"/>
      <point x="812" y="298" type="line"/>
      <point x="851" y="268"/>
      <point x="885" y="240" type="line"/>
      <point x="894" y="234"/>
      <point x="894" y="227" type="line"/>
      <point x="894" y="212"/>
      <point x="878" y="212" type="line"/>
      <point x="664" y="212" type="line"/>
      <point x="664" y="-93" type="line"/>
      <point x="804" y="-93" type="line"/>
      <point x="859" y="-31" type="line"/>
      <point x="899" y="-63"/>
      <point x="936" y="-92" type="line"/>
      <point x="945" y="-98"/>
      <point x="945" y="-105" type="line"/>
      <point x="945" y="-120"/>
      <point x="929" y="-120" type="line"/>
      <point x="175" y="-120" type="line"/>
      <point x="106" y="-121"/>
      <point x="82" y="-124" type="line"/>
    </contour>
    <contour>
      <point x="367" y="505" type="line"/>
      <point x="367" y="239" type="line"/>
      <point x="625" y="239" type="line"/>
      <point x="625" y="505" type="line"/>
    </contour>
    <contour>
      <point x="625" y="212" type="line"/>
      <point x="367" y="212" type="line"/>
      <point x="367" y="-93" type="line"/>
      <point x="625" y="-93" type="line"/>
    </contour>
  </outline>
</glyph>
<glyph name="u2000F" format="2">
  <advance width="1000"/>
  <unicode hex="2000F"/>
  <outline>
    <contour>
      <point x="66" y="-81" type="line"/>
      <point x="108" y="-93"/>
      <point x="179" y="-93" type="line"/>
      <point x="816" y="-93" type="line"/>
      <point x="863" y="-38" type="line"/>
      <point x="900" y="-66"/>
      <point x="933" y="-93" type="line"/>
      <point x="941" y="-99"/>
      <point x="941" y="-105" type="line"/>
      <point x="941" y="-120"/>
      <point x="925" y="-120" type="line"/>
      <point x="179" y="-120" type="line"/>
      <point x="110" y="-121"/>
      <point x="85" y="-124" type="line"/>
    </contour>
    <contour>
      <point x="42" y="614" type="line"/>
      <point x="85" y="602"/>
      <point x="156" y="602" type="line"/>
      <point x="457" y="602" type="line"/>
      <point x="457" y="684" type="line"/>
      <point x="457" y="718"/>
      <point x="453" y="751" type="line"/>
      <point x="505" y="740"/>
      <point x="539" y="723" type="line"/>
      <point x="546" y="719"/>
      <point x="546" y="712" type="line"/>
      <point x="546" y="706"/>
      <point x="536" y="702" type="line"/>
      <point x="522" y="692"/>
      <point x="503" y="688" type="line"/>
      <point x="503" y="602" type="line"/>
      <point x="820" y="602" type="line"/>
      <point x="863" y="648" type="line"/>
      <point x="898" y="625"/>
      <point x="929" y="601" type="line"/>
      <point x="937" y="596"/>
      <point x="937" y="591" type="line"/>
      <point x="937" y="575"/>
      <point x="925" y="575" type="line"/>
      <point x="503" y="575" type="line"/>
      <point x="503" y="273" type="line"/>
      <point x="741" y="273" type="line"/>
      <point x="742" y="290"/>
      <point x="742" y="301" type="line"/>
      <point x="742" y="441" type="line"/>
      <point x="742" y="494"/>
      <point x="738" y="520" type="line"/>
      <point x="785" y="513"/>
      <point x="816" y="499" type="line"/>
      <point x="828" y="494"/>
      <point x="828" y="484" type="line"/>
      <point x="828" y="476"/>
      <point x="818" y="473" type="line"/>
      <point x="805" y="464"/>
      <point x="789" y="462" type="line"/>
      <point x="789" y="230" type="line"/>
      <point x="789" y="212"/>
      <point x="761" y="212" type="line"/>
      <point x="738" y="212"/>
      <point x="738" y="234" type="line"/>
      <point x="738" y="247" type="line"/>
      <point x="503" y="247" type="line"/>
      <point x="503" y="102" type="line"/>
      <point x="503" y="80"/>
      <point x="511" y="73" type="line"/>
      <point x="525" y="60"/>
      <point x="558" y="58" type="line"/>
      <point x="597" y="55"/>
      <point x="661" y="55" type="line"/>
      <point x="746" y="55"/>
      <point x="780" y="59" type="line"/>
      <point x="812" y="62"/>
      <point x="823" y="79" type="line"/>
      <point x="847" y="104"/>
      <point x="867" y="195" type="line"/>
      <point x="882" y="191" type="line"/>
      <point x="882" y="98" type="line"/>
      <point x="882" y="84"/>
      <point x="895" y="72" type="line"/>
      <point x="917" y="57"/>
      <point x="917" y="48" type="line"/>
      <point x="917" y="38"/>
      <point x="898" y="32" type="line"/>
      <point x="880" y="24"/>
      <point x="824" y="20" type="line"/>
      <point x="759" y="12"/>
      <point x="651" y="12" type="line"/>
      <point x="584" y="12"/>
      <point x="532" y="15" type="line"/>
      <point x="490" y="18"/>
      <point x="472" y="33" type="line"/>
      <point x="457" y="46"/>
      <point x="457" y="75" type="line"/>
      <point x="457" y="247" type="line"/>
      <point x="217" y="247" type="line"/>
      <point x="211" y="243"/>
      <point x="199" y="243" type="line"/>
      <point x="175" y="243"/>
      <point x="175" y="266" type="line"/>
      <point x="175" y="278"/>
      <point x="177" y="298" type="line"/>
      <point x="179" y="317"/>
      <point x="179" y="333" type="line"/>
      <point x="179" y="441" type="line"/>
      <point x="179" y="494"/>
      <point x="175" y="520" type="line"/>
      <point x="223" y="513"/>
      <point x="254" y="499" type="line"/>
      <point x="265" y="494"/>
      <point x="265" y="484" type="line"/>
      <point x="265" y="476"/>
      <point x="256" y="473" type="line"/>
      <point x="243" y="464"/>
      <point x="226" y="462" type="line"/>
      <point x="226" y="273" type="line"/>
      <point x="457" y="273" type="line"/>
      <point x="457" y="575" type="line"/>
      <point x="156" y="575" type="line"/>
      <point x="87" y="574"/>
      <point x="62" y="570" type="line"/>
    </contour>
  </outline>
</glyph>
<glyph name="u20010" format="2">
  <advance width="1000"/>
  <unicode hex="20010"/>
  <outline>
    <contour>
      <point x="66" y="-81" type="line"/>
      <point x="108" y="-93"/>
      <point x="179" y="-93" type="line"/>
      <point x="800" y="-93" type="line"/>
      <point x="855" y="-31" type="line"/>
      <point x="895" y="-63"/>
      <point x="932" y="-92" type="line"/>
      <point x="941" y="-98"/>
      <point x="941" y="-105" type="line"/>
      <point x="941" y="-120"/>
      <point x="925" y="-120" type="line"/>
      <point x="179" y="-120" type="line"/>
      <point x="110" y="-121"/>
      <point x="85" y="-124" type="line"/>
    </contour>
    <contour>
      <point x="136" y="609" type="line"/>
      <point x="195" y="566" type="line"/>
      <point x="488" y="566" type="line"/>
      <point x="488" y="669" type="line"/>
      <point x="488" y="721"/>
      <point x="484" y="747" type="line"/>
      <point x="540" y="740"/>
      <point x="576" y="726" type="line"/>
      <point x="589" y="720"/>
      <point x="589" y="712" type="line"/>
      <point x="589" y="703"/>
      <point x="576" y="699" type="line"/>
      <point x="558" y="689"/>
      <point x="535" y="688" type="line"/>
      <point x="535" y="566" type="line"/>
      <point x="800" y="566" type="line"/>
      <point x="835" y="614" type="line"/>
      <point x="875" y="591"/>
      <point x="894" y="569" type="line"/>
      <point x="902" y="562"/>
      <point x="902" y="555" type="line"/>
      <point x="902" y="546"/>
      <point x="859" y="523" type="line"/>
      <point x="859" y="297" type="line"/>
      <point x="867" y="291"/>
      <point x="874" y="284" type="line"/>
      <point x="878" y="282"/>
      <point x="878" y="277" type="line"/>
      <point x="878" y="262"/>
      <point x="871" y="262" type="line"/>
      <point x="535" y="262" type="line"/>
      <point x="535" y="48" type="line"/>
      <point x="535" y="24"/>
      <point x="537" y="18" type="line"/>
      <point x="539" y="1"/>
      <point x="539" y="-11" type="line"/>
      <point x="539" y="-42"/>
      <point x="507" y="-42" type="line"/>
      <point x="484" y="-42"/>
      <point x="484" y="-27" type="line"/>
      <point x="484" y="-6"/>
      <point x="486" y="26" type="line"/>
      <point x="488" y="61"/>
      <point x="488" y="87" type="line"/>
      <point x="488" y="262" type="line"/>
      <point x="187" y="262" type="line"/>
      <point x="187" y="239" type="line"/>
      <point x="187" y="227"/>
      <point x="167" y="227" type="line"/>
      <point x="159" y="227"/>
      <point x="146" y="232" type="line"/>
      <point x="136" y="241"/>
      <point x="136" y="255" type="line"/>
      <point x="136" y="271"/>
      <point x="139" y="300" type="line"/>
      <point x="144" y="322"/>
      <point x="144" y="395" type="line"/>
      <point x="144" y="544" type="line"/>
      <point x="144" y="582"/>
    </contour>
    <contour>
      <point x="187" y="290" type="line"/>
      <point x="488" y="290" type="line"/>
      <point x="488" y="540" type="line"/>
      <point x="187" y="540" type="line"/>
    </contour>
    <contour>
      <point x="535" y="540" type="line"/>
      <point x="535" y="290" type="line"/>
      <point x="812" y="290" type="line"/>
      <point x="812" y="540" type="line"/>
    </contour>
  </outline>
</glyph>
<glyph name="u20011" format="2">
  <advance width="1000"/>
  <unicode hex="20011"/>
  <outline>
    <contour>
      <point x="42" y="700" type="line"/>
      <point x="85" y="688"/>
      <point x="156" y="688" type="line"/>
      <point x="832" y="688" type="line"/>
      <point x="878" y="739" type="line"/>
      <point x="914" y="713"/>
      <point x="944" y="688" type="line"/>
      <point x="953" y="683"/>
      <point x="953" y="676" type="line"/>
      <point x="953" y="661"/>
      <point x="941" y="661" type="line"/>
      <point x="457" y="661" type="line"/>
      <point x="456" y="588"/>
      <point x="450" y="528" type="line"/>
      <point x="448" y="509"/>
      <point x="446" y="493" type="line"/>
      <point x="812" y="493" type="line"/>
      <point x="843" y="536" type="line"/>
      <point x="878" y="514"/>
      <point x="895" y="494" type="line"/>
      <point x="902" y="486"/>
      <point x="902" y="480" type="line"/>
      <point x="902" y="472"/>
      <point x="863" y="450" type="line"/>
      <point x="863" y="-55" type="line"/>
      <point x="863" y="-87"/>
      <point x="847" y="-104" type="line"/>
      <point x="834" y="-120"/>
      <point x="810" y="-130" type="line"/>
      <point x="789" y="-141"/>
      <point x="773" y="-141" type="line"/>
      <point x="773" y="-117"/>
      <point x="761" y="-108" type="line"/>
      <point x="748" y="-96"/>
      <point x="714" y="-86" type="line"/>
      <point x="678" y="-76"/>
      <point x="632" y="-74" type="line"/>
      <point x="632" y="-50" type="line"/>
      <point x="714" y="-66"/>
      <point x="781" y="-66" type="line"/>
      <point x="804" y="-66"/>
      <point x="812" y="-61" type="line"/>
      <point x="820" y="-56"/>
      <point x="820" y="-34" type="line"/>
      <point x="820" y="466" type="line"/>
      <point x="601" y="466" type="line"/>
      <point x="601" y="266" type="line"/>
      <point x="601" y="225"/>
      <point x="603" y="216" type="line"/>
      <point x="605" y="203"/>
      <point x="613" y="198" type="line"/>
      <point x="626" y="189"/>
      <point x="645" y="186" type="line"/>
      <point x="671" y="180"/>
      <point x="700" y="180" type="line"/>
      <point x="715" y="180"/>
      <point x="735" y="185" type="line"/>
      <point x="747" y="188"/>
      <point x="754" y="194" type="line"/>
      <point x="759" y="200"/>
      <point x="761" y="200" type="line"/>
      <point x="780" y="200"/>
      <point x="791" y="191" type="line"/>
      <point x="804" y="183"/>
      <point x="804" y="169" type="line"/>
      <point x="804" y="161"/>
      <point x="802" y="158" type="line"/>
      <point x="800" y="153"/>
      <point x="791" y="149" type="line"/>
      <point x="779" y="145"/>
      <point x="752" y="142" type="line"/>
      <point x="721" y="137"/>
      <point x="703" y="137" type="line"/>
      <point x="663" y="137"/>
      <point x="624" y="146" type="line"/>
      <point x="586" y="150"/>
      <point x="575" y="161" type="line"/>
      <point x="567" y="167"/>
      <point x="562" y="179" type="line"/>
      <point x="558" y="189"/>
      <point x="555" y="208" type="line"/>
      <point x="554" y="225"/>
      <point x="554" y="270" type="line"/>
      <point x="554" y="466" type="line"/>
      <point x="443" y="466" type="line"/>
      <point x="438" y="433"/>
      <point x="432" y="409" type="line"/>
      <point x="420" y="349"/>
      <point x="400" y="303" type="line"/>
      <point x="378" y="253"/>
      <point x="354" y="216" type="line"/>
      <point x="323" y="175"/>
      <point x="283" y="142" type="line"/>
      <point x="247" y="109"/>
      <point x="199" y="87" type="line"/>
      <point x="187" y="105" type="line"/>
      <point x="253" y="146"/>
      <point x="286" y="187" type="line"/>
      <point x="317" y="222"/>
      <point x="341" y="271" type="line"/>
      <point x="366" y="319"/>
      <point x="380" y="378" type="line"/>
      <point x="391" y="416"/>
      <point x="397" y="466" type="line"/>
      <point x="164" y="466" type="line"/>
      <point x="164" y="-136" type="line"/>
      <point x="164" y="-148"/>
      <point x="144" y="-148" type="line"/>
      <point x="136" y="-148"/>
      <point x="123" y="-143" type="line"/>
      <point x="113" y="-134"/>
      <point x="113" y="-120" type="line"/>
      <point x="113" y="-104"/>
      <point x="115" y="-75" type="line"/>
      <point x="121" y="-53"/>
      <point x="121" y="20" type="line"/>
      <point x="121" y="469" type="line"/>
      <point x="121" y="508"/>
      <point x="113" y="536" type="line"/>
      <point x="171" y="493" type="line"/>
      <point x="400" y="493" type="line"/>
      <point x="400" y="498" type="line"/>
      <point x="406" y="557"/>
      <point x="406" y="661" type="line"/>
      <point x="156" y="661" type="line"/>
      <point x="87" y="660"/>
      <point x="62" y="657" type="line"/>
    </contour>
  </outline>
</glyph>
<glyph name="u20012" format="2">
  <advance width="1000"/>
  <unicode hex="20012"/>
  <outline>
    <contour>
      <point x="117" y="695" type="line"/>
      <point x="159" y="684"/>
      <point x="230" y="684" type="line"/>
      <point x="750" y="684" type="line"/>
      <point x="796" y="734" type="line"/>
      <point x="832" y="709"/>
      <point x="862" y="684" type="line"/>
      <point x="871" y="679"/>
      <point x="871" y="673" type="line"/>
      <point x="871" y="657"/>
      <point x="859" y="657" type="line"/>
      <point x="230" y="657" type="line"/>
      <point x="161" y="656"/>
      <point x="136" y="652" type="line"/>
    </contour>
    <contour>
      <point x="50" y="438" type="line"/>
      <point x="93" y="426"/>
      <point x="164" y="426" type="line"/>
      <point x="824" y="426" type="line"/>
      <point x="871" y="480" type="line"/>
      <point x="908" y="453"/>
      <point x="940" y="426" type="line"/>
      <point x="949" y="422"/>
      <point x="949" y="415" type="line"/>
      <point x="949" y="398"/>
      <point x="933" y="398" type="line"/>
      <point x="349" y="398" type="line"/>
      <point x="272" y="230" type="line"/>
      <point x="726" y="230" type="line"/>
      <point x="761" y="262" type="line"/>
      <point x="794" y="244"/>
      <point x="812" y="227" type="line"/>
      <point x="820" y="219"/>
      <point x="820" y="216" type="line"/>
      <point x="820" y="203"/>
      <point x="781" y="188" type="line"/>
      <point x="772" y="96"/>
      <point x="753" y="32" type="line"/>
      <point x="734" y="-34"/>
      <point x="715" y="-65" type="line"/>
      <point x="696" y="-94"/>
      <point x="673" y="-106" type="line"/>
      <point x="647" y="-122"/>
      <point x="619" y="-132" type="line"/>
      <point x="593" y="-141"/>
      <point x="578" y="-141" type="line"/>
      <point x="578" y="-123"/>
      <point x="567" y="-114" type="line"/>
      <point x="554" y="-103"/>
      <point x="429" y="-74" type="line"/>
      <point x="433" y="-55" type="line"/>
      <point x="548" y="-77"/>
      <point x="585" y="-77" type="line"/>
      <point x="607" y="-77"/>
      <point x="625" y="-73" type="line"/>
      <point x="639" y="-71"/>
      <point x="650" y="-61" type="line"/>
      <point x="665" y="-49"/>
      <point x="683" y="-21" type="line"/>
      <point x="700" y="9"/>
      <point x="711" y="63" type="line"/>
      <point x="727" y="116"/>
      <point x="734" y="204" type="line"/>
      <point x="258" y="204" type="line"/>
      <point x="255" y="200"/>
      <point x="252" y="199" type="line"/>
      <point x="236" y="191"/>
      <point x="226" y="191" type="line"/>
      <point x="207" y="191"/>
      <point x="207" y="200" type="line"/>
      <point x="207" y="204"/>
      <point x="210" y="208" type="line"/>
      <point x="224" y="228"/>
      <point x="250" y="292" type="line"/>
      <point x="295" y="398" type="line"/>
      <point x="164" y="398" type="line"/>
      <point x="95" y="397"/>
      <point x="70" y="395" type="line"/>
    </contour>
    <contour>
      <point x="351" y="587" type="line"/>
      <point x="316" y="558"/>
      <point x="279" y="540" type="line"/>
      <point x="243" y="518"/>
      <point x="207" y="503" type="line"/>
      <point x="164" y="483"/>
      <point x="121" y="473" type="line"/>
      <point x="109" y="493" type="line"/>
      <point x="174" y="518"/>
      <point x="216" y="543" type="line"/>
      <point x="262" y="566"/>
      <point x="288" y="588" type="line"/>
      <point x="313" y="610"/>
      <point x="332" y="637" type="line"/>
      <point x="366" y="617"/>
      <point x="391" y="600" type="line"/>
      <point x="394" y="597"/>
      <point x="394" y="591" type="line"/>
      <point x="394" y="583"/>
      <point x="378" y="583" type="line"/>
      <point x="367" y="583"/>
    </contour>
    <contour>
      <point x="582" y="634" type="line"/>
      <point x="641" y="615"/>
      <point x="686" y="596" type="line"/>
      <point x="733" y="575"/>
      <point x="759" y="559" type="line"/>
      <point x="787" y="544"/>
      <point x="797" y="534" type="line"/>
      <point x="809" y="525"/>
      <point x="812" y="518" type="line"/>
      <point x="816" y="510"/>
      <point x="816" y="505" type="line"/>
      <point x="816" y="477"/>
      <point x="796" y="477" type="line"/>
      <point x="789" y="477"/>
      <point x="782" y="480" type="line"/>
      <point x="772" y="483"/>
      <point x="754" y="499" type="line"/>
      <point x="730" y="522"/>
      <point x="701" y="542" type="line"/>
      <point x="673" y="562"/>
      <point x="639" y="582" type="line"/>
      <point x="604" y="600"/>
      <point x="562" y="618" type="line"/>
    </contour>
  </outline>
</glyph>
<glyph name="u20013" format="2">
  <advance width="1000"/>
  <unicode hex="20013"/>
  <outline>
    <contour>
      <point x="54" y="-81" type="line"/>
      <point x="97" y="-93"/>
      <point x="167" y="-93" type="line"/>
      <point x="816" y="-93" type="line"/>
      <point x="863" y="-38" type="line"/>
      <point x="900" y="-66"/>
      <point x="933" y="-93" type="line"/>
      <point x="941" y="-99"/>
      <point x="941" y="-105" type="line"/>
      <point x="941" y="-120"/>
      <point x="925" y="-120" type="line"/>
      <point x="167" y="-120" type="line"/>
      <point x="99" y="-121"/>
      <point x="74" y="-124" type="line"/>
    </contour>
    <contour>
      <point x="58" y="712" type="line"/>
      <point x="96" y="704"/>
      <point x="167" y="704" type="line"/>
      <point x="421" y="704" type="line"/>
      <point x="453" y="747" type="line"/>
      <point x="488" y="725"/>
      <point x="504" y="705" type="line"/>
      <point x="511" y="698"/>
      <point x="511" y="691" type="line"/>
      <point x="511" y="683"/>
      <point x="472" y="661" type="line"/>
      <point x="472" y="528" type="line"/>
      <point x="482" y="521"/>
      <point x="491" y="514" type="line"/>
      <point x="496" y="512"/>
      <point x="496" y="509" type="line"/>
      <point x="496" y="493"/>
      <point x="488" y="493" type="line"/>
      <point x="156" y="493" type="line"/>
      <point x="150" y="429"/>
      <point x="145" y="393" type="line"/>
      <point x="139" y="357"/>
      <point x="130" y="320" type="line"/>
      <point x="433" y="320" type="line"/>
      <point x="468" y="352" type="line"/>
      <point x="501" y="334"/>
      <point x="519" y="316" type="line"/>
      <point x="527" y="309"/>
      <point x="527" y="305" type="line"/>
      <point x="527" y="293"/>
      <point x="488" y="277" type="line"/>
      <point x="482" y="187"/>
      <point x="470" y="124" type="line"/>
      <point x="458" y="58"/>
      <point x="446" y="27" type="line"/>
      <point x="434" y="0.0"/>
      <point x="419" y="-14" type="line"/>
      <point x="403" y="-28"/>
      <point x="385" y="-38" type="line"/>
      <point x="369" y="-46"/>
      <point x="359" y="-46" type="line"/>
      <point x="359" y="-32"/>
      <point x="350" y="-24" type="line"/>
      <point x="339" y="-14"/>
      <point x="234" y="12" type="line"/>
      <point x="238" y="32" type="line"/>
      <point x="335" y="16"/>
      <point x="367" y="16" type="line"/>
      <point x="377" y="16"/>
      <point x="386" y="21" type="line"/>
      <point x="393" y="22"/>
      <point x="399" y="34" type="line"/>
      <point x="406" y="45"/>
      <point x="415" y="73" type="line"/>
      <point x="424" y="101"/>
      <point x="430" y="154" type="line"/>
      <point x="437" y="207"/>
      <point x="441" y="294" type="line"/>
      <point x="125" y="294" type="line"/>
      <point x="121" y="277"/>
      <point x="97" y="277" type="line"/>
      <point x="78" y="277"/>
      <point x="78" y="286" type="line"/>
      <point x="78" y="290"/>
      <point x="80" y="294" type="line"/>
      <point x="81" y="299"/>
      <point x="86" y="318" type="line"/>
      <point x="95" y="354"/>
      <point x="102" y="401" type="line"/>
      <point x="106" y="440"/>
      <point x="112" y="483" type="line"/>
      <point x="116" y="522"/>
      <point x="117" y="551" type="line"/>
      <point x="167" y="520" type="line"/>
      <point x="429" y="520" type="line"/>
      <point x="429" y="676" type="line"/>
      <point x="167" y="676" type="line"/>
      <point x="90" y="676"/>
      <point x="74" y="673" type="line"/>
    </contour>
    <contour>
      <point x="781" y="747" type="line"/>
      <point x="836" y="740"/>
      <point x="873" y="726" type="line"/>
      <point x="886" y="720"/>
      <point x="886" y="712" type="line"/>
      <point x="886" y="703"/>
      <point x="873" y="699" type="line"/>
      <point x="855" y="689"/>
      <point x="832" y="688" type="line"/>
      <point x="832" y="59" type="line"/>
      <point x="832" y="37"/>
      <point x="833" y="29" type="line"/>
      <point x="835" y="12"/>
      <point x="835" y="1" type="line"/>
      <point x="835" y="-31"/>
      <point x="804" y="-31" type="line"/>
      <point x="781" y="-31"/>
      <point x="781" y="-16" type="line"/>
      <point x="781" y="6"/>
      <point x="783" y="38" type="line"/>
      <point x="785" y="72"/>
      <point x="785" y="98" type="line"/>
      <point x="785" y="669" type="line"/>
      <point x="785" y="721"/>
    </contour>
  </outline>
</glyph>
<glyph name="u20014" format="2">
  <advance width="1000"/>
  <unicode hex="20014"/>
  <outline>
    <contour>
      <point x="35" y="695" type="line"/>
      <point x="77" y="684"/>
      <point x="148" y="684" type="line"/>
      <point x="824" y="684" type="line"/>
      <point x="875" y="743" type="line"/>
      <point x="915" y="714"/>
      <point x="951" y="685" type="line"/>
      <point x="960" y="680"/>
      <point x="960" y="673" type="line"/>
      <point x="960" y="657"/>
      <point x="945" y="657" type="line"/>
      <point x="403" y="657" type="line"/>
      <point x="432" y="646"/>
      <point x="457" y="634" type="line"/>
      <point x="464" y="627"/>
      <point x="464" y="622" type="line"/>
      <point x="464" y="612"/>
      <point x="450" y="608" type="line"/>
      <point x="426" y="602"/>
      <point x="406" y="602" type="line"/>
      <point x="386" y="563"/>
      <point x="361" y="526" type="line"/>
      <point x="336" y="489"/>
      <point x="307" y="451" type="line"/>
      <point x="280" y="417"/>
      <point x="250" y="390" type="line"/>
      <point x="235" y="375"/>
      <point x="215" y="358" type="line"/>
      <point x="255" y="361"/>
      <point x="309" y="366" type="line"/>
      <point x="403" y="370"/>
      <point x="518" y="392" type="line"/>
      <point x="545" y="428"/>
      <point x="566" y="462" type="line"/>
      <point x="602" y="510"/>
      <point x="632" y="583" type="line"/>
      <point x="676" y="563"/>
      <point x="704" y="545" type="line"/>
      <point x="714" y="537"/>
      <point x="714" y="532" type="line"/>
      <point x="714" y="526"/>
      <point x="698" y="521" type="line"/>
      <point x="677" y="516"/>
      <point x="660" y="516" type="line"/>
      <point x="587" y="403"/>
      <point x="533" y="342" type="line"/>
      <point x="470" y="272"/>
      <point x="407" y="224" type="line"/>
      <point x="339" y="168"/>
      <point x="253" y="121" type="line"/>
      <point x="163" y="73"/>
      <point x="82" y="51" type="line"/>
      <point x="74" y="66" type="line"/>
      <point x="183" y="109"/>
      <point x="237" y="140" type="line"/>
      <point x="300" y="176"/>
      <point x="349" y="217" type="line"/>
      <point x="401" y="257"/>
      <point x="466" y="329" type="line"/>
      <point x="481" y="345"/>
      <point x="492" y="359" type="line"/>
      <point x="364" y="327"/>
      <point x="207" y="305" type="line"/>
      <point x="188" y="262"/>
      <point x="183" y="262" type="line"/>
      <point x="176" y="262"/>
      <point x="171" y="271" type="line"/>
      <point x="156" y="308"/>
      <point x="144" y="355" type="line"/>
      <point x="157" y="355"/>
      <point x="175" y="356" type="line"/>
      <point x="211" y="388"/>
      <point x="235" y="421" type="line"/>
      <point x="271" y="465"/>
      <point x="302" y="514" type="line"/>
      <point x="333" y="564"/>
      <point x="354" y="616" type="line"/>
      <point x="361" y="636"/>
      <point x="365" y="657" type="line"/>
      <point x="148" y="657" type="line"/>
      <point x="79" y="656"/>
      <point x="54" y="652" type="line"/>
    </contour>
    <contour>
      <point x="761" y="391" type="line"/>
      <point x="805" y="372"/>
      <point x="833" y="353" type="line"/>
      <point x="843" y="345"/>
      <point x="843" y="341" type="line"/>
      <point x="843" y="335"/>
      <point x="827" y="331" type="line"/>
      <point x="806" y="325"/>
      <point x="789" y="325" type="line"/>
      <point x="704" y="211"/>
      <point x="641" y="147" type="line"/>
      <point x="707" y="112"/>
      <point x="756" y="76" type="line"/>
      <point x="817" y="31"/>
      <point x="849" y="-3" type="line"/>
      <point x="884" y="-35"/>
      <point x="898" y="-58" type="line"/>
      <point x="912" y="-74"/>
      <point x="916" y="-92" type="line"/>
      <point x="921" y="-108"/>
      <point x="921" y="-120" type="line"/>
      <point x="921" y="-145"/>
      <point x="902" y="-145" type="line"/>
      <point x="893" y="-145"/>
      <point x="883" y="-138" type="line"/>
      <point x="872" y="-131"/>
      <point x="848" y="-100" type="line"/>
      <point x="818" y="-52"/>
      <point x="781" y="-14" type="line"/>
      <point x="746" y="27"/>
      <point x="702" y="67" type="line"/>
      <point x="665" y="100"/>
      <point x="621" y="130" type="line"/>
      <point x="555" y="67"/>
      <point x="488" y="22" type="line"/>
      <point x="407" y="-35"/>
      <point x="305" y="-84" type="line"/>
      <point x="198" y="-133"/>
      <point x="101" y="-156" type="line"/>
      <point x="93" y="-141" type="line"/>
      <point x="224" y="-97"/>
      <point x="289" y="-65" type="line"/>
      <point x="364" y="-28"/>
      <point x="422" y="14" type="line"/>
      <point x="484" y="55"/>
      <point x="562" y="130" type="line"/>
      <point x="636" y="200"/>
      <point x="683" y="267" type="line"/>
      <point x="725" y="316"/>
    </contour>
  </outline>
</glyph>
<glyph name="u20015" format="2">
  <advance width="1000"/>
  <unicode hex="20015"/>
  <outline>
    <contour>
      <point x="58" y="684" type="line"/>
      <point x="101" y="673"/>
      <point x="171" y="673" type="line"/>
      <point x="789" y="673" type="line"/>
      <point x="839" y="730" type="line"/>
      <point x="880" y="702"/>
      <point x="916" y="674" type="line"/>
      <point x="925" y="668"/>
      <point x="925" y="661" type="line"/>
      <point x="925" y="645"/>
      <point x="910" y="645" type="line"/>
      <point x="412" y="645" type="line"/>
      <point x="351" y="462" type="line"/>
      <point x="675" y="462" type="line"/>
      <point x="722" y="501" type="line"/>
      <point x="753" y="473"/>
      <point x="772" y="447" type="line"/>
      <point x="777" y="439"/>
      <point x="777" y="434" type="line"/>
      <point x="777" y="427"/>
      <point x="761" y="420" type="line"/>
      <point x="748" y="415"/>
      <point x="734" y="411" type="line"/>
      <point x="631" y="-85" type="line"/>
      <point x="824" y="-85" type="line"/>
      <point x="878" y="-23" type="line"/>
      <point x="919" y="-55"/>
      <point x="955" y="-84" type="line"/>
      <point x="964" y="-90"/>
      <point x="964" y="-98" type="line"/>
      <point x="964" y="-113"/>
      <point x="949" y="-113" type="line"/>
      <point x="144" y="-113" type="line"/>
      <point x="75" y="-114"/>
      <point x="50" y="-116" type="line"/>
      <point x="31" y="-74" type="line"/>
      <point x="73" y="-85"/>
      <point x="144" y="-85" type="line"/>
      <point x="581" y="-85" type="line"/>
      <point x="624" y="109" type="line"/>
      <point x="234" y="109" type="line"/>
      <point x="231" y="104"/>
      <point x="226" y="101" type="line"/>
      <point x="211" y="94"/>
      <point x="203" y="94" type="line"/>
      <point x="183" y="94"/>
      <point x="183" y="102" type="line"/>
      <point x="183" y="111"/>
      <point x="190" y="124" type="line"/>
      <point x="216" y="175"/>
      <point x="269" y="347" type="line"/>
      <point x="362" y="645" type="line"/>
      <point x="171" y="645" type="line"/>
      <point x="103" y="644"/>
      <point x="78" y="641" type="line"/>
    </contour>
    <contour>
      <point x="244" y="137" type="line"/>
      <point x="630" y="137" type="line"/>
      <point x="695" y="434" type="line"/>
      <point x="342" y="434" type="line"/>
    </contour>
    <contour>
      <point x="410" y="359" type="line"/>
      <point x="434" y="343"/>
      <point x="453" y="323" type="line"/>
      <point x="475" y="306"/>
      <point x="487" y="290" type="line"/>
      <point x="501" y="273"/>
      <point x="506" y="262" type="line"/>
      <point x="511" y="251"/>
      <point x="511" y="239" type="line"/>
      <point x="511" y="220"/>
      <point x="505" y="209" type="line"/>
      <point x="497" y="195"/>
      <point x="484" y="195" type="line"/>
      <point x="478" y="195"/>
      <point x="473" y="201" type="line"/>
      <point x="468" y="205"/>
      <point x="465" y="222" type="line"/>
      <point x="460" y="245"/>
      <point x="449" y="266" type="line"/>
      <point x="439" y="288"/>
      <point x="427" y="307" type="line"/>
      <point x="415" y="326"/>
      <point x="394" y="348" type="line"/>
    </contour>
  </outline>
</glyph>
<glyph name="u20016" format="2">
  <advance width="1000"/>
  <unicode hex="20016"/>
  <outline>
    <contour>
      <point x="93" y="512" type="line"/>
      <point x="136" y="501"/>
      <point x="207" y="501" type="line"/>
      <point x="328" y="501" type="line"/>
      <point x="328" y="665" type="line"/>
      <point x="328" y="717"/>
      <point x="324" y="743" type="line"/>
      <point x="379" y="735"/>
      <point x="416" y="722" type="line"/>
      <point x="429" y="717"/>
      <point x="429" y="708" type="line"/>
      <point x="429" y="699"/>
      <point x="416" y="695" type="line"/>
      <point x="398" y="686"/>
      <point x="375" y="684" type="line"/>
      <point x="375" y="501" type="line"/>
      <point x="625" y="501" type="line"/>
      <point x="625" y="661" type="line"/>
      <point x="625" y="713"/>
      <point x="621" y="739" type="line"/>
      <point x="676" y="731"/>
      <point x="713" y="718" type="line"/>
      <point x="726" y="713"/>
      <point x="726" y="704" type="line"/>
      <point x="726" y="694"/>
      <point x="713" y="691" type="line"/>
      <point x="695" y="682"/>
      <point x="671" y="680" type="line"/>
      <point x="671" y="501" type="line"/>
      <point x="773" y="501" type="line"/>
      <point x="824" y="559" type="line"/>
      <point x="863" y="529"/>
      <point x="897" y="502" type="line"/>
      <point x="906" y="496"/>
      <point x="906" y="489" type="line"/>
      <point x="906" y="473"/>
      <point x="890" y="473" type="line"/>
      <point x="671" y="473" type="line"/>
      <point x="671" y="195" type="line"/>
      <point x="839" y="195" type="line"/>
      <point x="890" y="255" type="line"/>
      <point x="929" y="225"/>
      <point x="963" y="197" type="line"/>
      <point x="972" y="191"/>
      <point x="972" y="184" type="line"/>
      <point x="972" y="169"/>
      <point x="957" y="169" type="line"/>
      <point x="152" y="169" type="line"/>
      <point x="83" y="168"/>
      <point x="58" y="165" type="line"/>
      <point x="39" y="208" type="line"/>
      <point x="81" y="195"/>
      <point x="152" y="195" type="line"/>
      <point x="328" y="195" type="line"/>
      <point x="328" y="473" type="line"/>
      <point x="207" y="473" type="line"/>
      <point x="138" y="472"/>
      <point x="113" y="469" type="line"/>
    </contour>
    <contour>
      <point x="375" y="195" type="line"/>
      <point x="625" y="195" type="line"/>
      <point x="625" y="473" type="line"/>
      <point x="375" y="473" type="line"/>
    </contour>
    <contour>
      <point x="613" y="98" type="line"/>
      <point x="686" y="64"/>
      <point x="741" y="29" type="line"/>
      <point x="798" y="-2"/>
      <point x="830" y="-26" type="line"/>
      <point x="861" y="-48"/>
      <point x="877" y="-63" type="line"/>
      <point x="888" y="-77"/>
      <point x="895" y="-91" type="line"/>
      <point x="902" y="-104"/>
      <point x="902" y="-116" type="line"/>
      <point x="901" y="-145"/>
      <point x="882" y="-145" type="line"/>
      <point x="870" y="-145"/>
      <point x="860" y="-139" type="line"/>
      <point x="849" y="-131"/>
      <point x="812" y="-84" type="line"/>
      <point x="774" y="-37"/>
      <point x="729" y="0.0" type="line"/>
      <point x="682" y="38"/>
      <point x="601" y="87" type="line"/>
    </contour>
  </outline>
</glyph>
<glyph name="u20017" format="2">
  <advance width="1000"/>
  <unicode hex="20017"/>
  <outline>
    <contour>
      <point x="93" y="512" type="line"/>
      <point x="136" y="501"/>
      <point x="207" y="501" type="line"/>
      <point x="328" y="501" type="line"/>
      <point x="328" y="665" type="line"/>
      <point x="328" y="717"/>
      <point x="324" y="743" type="line"/>
      <point x="379" y="735"/>
      <point x="416" y="722" type="line"/>
      <point x="429" y="717"/>
      <point x="429" y="708" type="line"/>
      <point x="429" y="699"/>
      <point x="416" y="695" type="line"/>
      <point x="398" y="686"/>
      <point x="375" y="684" type="line"/>
      <point x="375" y="501" type="line"/>
      <point x="625" y="501" type="line"/>
      <point x="625" y="661" type="line"/>
      <point x="625" y="713"/>
      <point x="621" y="739" type="line"/>
      <point x="676" y="731"/>
      <point x="713" y="718" type="line"/>
      <point x="726" y="713"/>
      <point x="726" y="704" type="line"/>
      <point x="726" y="694"/>
      <point x="713" y="691" type="line"/>
      <point x="695" y="682"/>
      <point x="671" y="680" type="line"/>
      <point x="671" y="501" type="line"/>
      <point x="773" y="501" type="line"/>
      <point x="824" y="559" type="line"/>
      <point x="863" y="529"/>
      <point x="897" y="502" type="line"/>
      <point x="906" y="496"/>
      <point x="906" y="489" type="line"/>
      <point x="906" y="473"/>
      <point x="890" y="473" type="line"/>
      <point x="671" y="473" type="line"/>
      <point x="671" y="191" type="line"/>
      <point x="839" y="191" type="line"/>
      <point x="890" y="251" type="line"/>
      <point x="929" y="221"/>
      <point x="963" y="192" type="line"/>
      <point x="972" y="188"/>
      <point x="972" y="180" type="line"/>
      <point x="972" y="165"/>
      <point x="957" y="165" type="line"/>
      <point x="152" y="165" type="line"/>
      <point x="83" y="164"/>
      <point x="58" y="161" type="line"/>
      <point x="39" y="204" type="line"/>
      <point x="81" y="191"/>
      <point x="152" y="191" type="line"/>
      <point x="328" y="191" type="line"/>
      <point x="328" y="473" type="line"/>
      <point x="207" y="473" type="line"/>
      <point x="138" y="472"/>
      <point x="113" y="469" type="line"/>
    </contour>
    <contour>
      <point x="375" y="191" type="line"/>
      <point x="625" y="191" type="line"/>
      <point x="625" y="473" type="line"/>
      <point x="375" y="473" type="line"/>
    </contour>
    <contour>
      <point x="363" y="118" type="line"/>
      <point x="404" y="99"/>
      <point x="431" y="81" type="line"/>
      <point x="437" y="77"/>
      <point x="437" y="70" type="line"/>
      <point x="437" y="64"/>
      <point x="427" y="62" type="line"/>
      <point x="412" y="57"/>
      <point x="398" y="55" type="line"/>
      <point x="369" y="26"/>
      <point x="335" y="-1" type="line"/>
      <point x="298" y="-30"/>
      <point x="256" y="-55" type="line"/>
      <point x="219" y="-78"/>
      <point x="167" y="-104" type="line"/>
      <point x="118" y="-129"/>
      <point x="62" y="-152" type="line"/>
      <point x="50" y="-141" type="line"/>
      <point x="121" y="-104"/>
      <point x="170" y="-71" type="line"/>
      <point x="219" y="-39"/>
      <point x="259" y="-5" type="line"/>
      <point x="302" y="31"/>
      <point x="329" y="62" type="line"/>
      <point x="353" y="92"/>
    </contour>
  </outline>
</glyph>
<glyph name="u20018" format="2">
  <advance width="1000"/>
  <unicode hex="20018"/>
  <outline>
    <contour>
      <point x="42" y="290" type="line"/>
      <point x="85" y="277"/>
      <point x="156" y="277" type="line"/>
      <point x="808" y="277" type="line"/>
      <point x="855" y="333" type="line"/>
      <point x="894" y="305"/>
      <point x="928" y="277" type="line"/>
      <point x="937" y="272"/>
      <point x="937" y="266" type="line"/>
      <point x="937" y="251"/>
      <point x="921" y="251" type="line"/>
      <point x="605" y="251" type="line"/>
      <point x="605" y="-46" type="line"/>
      <point x="605" y="-61"/>
      <point x="614" y="-69" type="line"/>
      <point x="621" y="-78"/>
      <point x="642" y="-82" type="line"/>
      <point x="667" y="-85"/>
      <point x="741" y="-85" type="line"/>
      <point x="800" y="-85"/>
      <point x="850" y="-82" type="line"/>
      <point x="869" y="-81"/>
      <point x="878" y="-74" type="line"/>
      <point x="888" y="-69"/>
      <point x="893" y="-55" type="line"/>
      <point x="904" y="-34"/>
      <point x="914" y="40" type="line"/>
      <point x="929" y="36" type="line"/>
      <point x="929" y="-31" type="line"/>
      <point x="929" y="-47"/>
      <point x="935" y="-57" type="line"/>
      <point x="943" y="-69"/>
      <point x="957" y="-75" type="line"/>
      <point x="964" y="-79"/>
      <point x="964" y="-89" type="line"/>
      <point x="964" y="-92"/>
      <point x="959" y="-100" type="line"/>
      <point x="952" y="-108"/>
      <point x="930" y="-114" type="line"/>
      <point x="904" y="-122"/>
      <point x="857" y="-124" type="line"/>
      <point x="804" y="-128"/>
      <point x="764" y="-128" type="line"/>
      <point x="688" y="-128"/>
      <point x="653" y="-124" type="line"/>
      <point x="617" y="-123"/>
      <point x="598" y="-115" type="line"/>
      <point x="577" y="-110"/>
      <point x="567" y="-97" type="line"/>
      <point x="558" y="-83"/>
      <point x="558" y="-74" type="line"/>
      <point x="558" y="251" type="line"/>
      <point x="375" y="251" type="line"/>
      <point x="374" y="164"/>
      <point x="361" y="114" type="line"/>
      <point x="347" y="60"/>
      <point x="317" y="21" type="line"/>
      <point x="286" y="-20"/>
      <point x="247" y="-48" type="line"/>
      <point x="201" y="-79"/>
      <point x="154" y="-103" type="line"/>
      <point x="107" y="-122"/>
      <point x="42" y="-141" type="line"/>
      <point x="31" y="-124" type="line"/>
      <point x="86" y="-106"/>
      <point x="128" y="-88" type="line"/>
      <point x="165" y="-69"/>
      <point x="198" y="-48" type="line"/>
      <point x="229" y="-23"/>
      <point x="258" y="6" type="line"/>
      <point x="283" y="31"/>
      <point x="300" y="64" type="line"/>
      <point x="313" y="99"/>
      <point x="320" y="141" type="line"/>
      <point x="327" y="181"/>
      <point x="328" y="251" type="line"/>
      <point x="156" y="251" type="line"/>
      <point x="87" y="250"/>
      <point x="62" y="247" type="line"/>
    </contour>
    <contour>
      <point x="89" y="727" type="line"/>
      <point x="132" y="716"/>
      <point x="203" y="716" type="line"/>
      <point x="777" y="716" type="line"/>
      <point x="824" y="770" type="line"/>
      <point x="861" y="742"/>
      <point x="894" y="716" type="line"/>
      <point x="902" y="711"/>
      <point x="902" y="704" type="line"/>
      <point x="902" y="688"/>
      <point x="886" y="688" type="line"/>
      <point x="613" y="688" type="line"/>
      <point x="613" y="441" type="line"/>
      <point x="613" y="428"/>
      <point x="622" y="420" type="line"/>
      <point x="628" y="410"/>
      <point x="648" y="406" type="line"/>
      <point x="672" y="402"/>
      <point x="743" y="402" type="line"/>
      <point x="798" y="402"/>
      <point x="845" y="406" type="line"/>
      <point x="863" y="407"/>
      <point x="873" y="413" type="line"/>
      <point x="881" y="418"/>
      <point x="886" y="431" type="line"/>
      <point x="896" y="449"/>
      <point x="906" y="516" type="line"/>
      <point x="921" y="512" type="line"/>
      <point x="921" y="458" type="line"/>
      <point x="921" y="440"/>
      <point x="927" y="432" type="line"/>
      <point x="935" y="420"/>
      <point x="949" y="413" type="line"/>
      <point x="957" y="409"/>
      <point x="957" y="398" type="line"/>
      <point x="957" y="396"/>
      <point x="952" y="389" type="line"/>
      <point x="944" y="380"/>
      <point x="923" y="374" type="line"/>
      <point x="899" y="366"/>
      <point x="854" y="364" type="line"/>
      <point x="803" y="359"/>
      <point x="764" y="359" type="line"/>
      <point x="691" y="359"/>
      <point x="657" y="364" type="line"/>
      <point x="623" y="365"/>
      <point x="604" y="373" type="line"/>
      <point x="584" y="379"/>
      <point x="574" y="392" type="line"/>
      <point x="566" y="406"/>
      <point x="566" y="415" type="line"/>
      <point x="566" y="688" type="line"/>
      <point x="390" y="688" type="line"/>
      <point x="389" y="606"/>
      <point x="377" y="560" type="line"/>
      <point x="363" y="510"/>
      <point x="334" y="474" type="line"/>
      <point x="304" y="435"/>
      <point x="266" y="408" type="line"/>
      <point x="220" y="378"/>
      <point x="175" y="356" type="line"/>
      <point x="129" y="338"/>
      <point x="66" y="320" type="line"/>
      <point x="54" y="337" type="line"/>
      <point x="108" y="354"/>
      <point x="149" y="371" type="line"/>
      <point x="185" y="388"/>
      <point x="217" y="408" type="line"/>
      <point x="247" y="431"/>
      <point x="275" y="459" type="line"/>
      <point x="300" y="482"/>
      <point x="316" y="515" type="line"/>
      <point x="330" y="546"/>
      <point x="336" y="587" type="line"/>
      <point x="342" y="623"/>
      <point x="343" y="688" type="line"/>
      <point x="203" y="688" type="line"/>
      <point x="134" y="687"/>
      <point x="109" y="684" type="line"/>
    </contour>
  </outline>
</glyph>
<glyph name="u20019" format="2">
  <advance width="1000"/>
  <unicode hex="20019"/>
  <outline>
    <contour>
      <point x="39" y="704" type="line"/>
      <point x="81" y="691"/>
      <point x="152" y="691" type="line"/>
      <point x="363" y="691" type="line"/>
      <point x="406" y="739" type="line"/>
      <point x="439" y="715"/>
      <point x="468" y="690" type="line"/>
      <point x="476" y="686"/>
      <point x="476" y="680" type="line"/>
      <point x="476" y="665"/>
      <point x="464" y="665" type="line"/>
      <point x="152" y="665" type="line"/>
      <point x="83" y="664"/>
      <point x="58" y="661" type="line"/>
    </contour>
    <contour>
      <point x="97" y="555" type="line"/>
      <point x="156" y="523" type="line"/>
      <point x="371" y="523" type="line"/>
      <point x="402" y="566" type="line"/>
      <point x="437" y="546"/>
      <point x="453" y="525" type="line"/>
      <point x="460" y="518"/>
      <point x="460" y="512" type="line"/>
      <point x="460" y="503"/>
      <point x="421" y="480" type="line"/>
      <point x="421" y="-59" type="line"/>
      <point x="421" y="-91"/>
      <point x="407" y="-108" type="line"/>
      <point x="395" y="-124"/>
      <point x="373" y="-134" type="line"/>
      <point x="354" y="-145"/>
      <point x="339" y="-145" type="line"/>
      <point x="339" y="-121"/>
      <point x="332" y="-112" type="line"/>
      <point x="323" y="-100"/>
      <point x="302" y="-90" type="line"/>
      <point x="279" y="-80"/>
      <point x="250" y="-77" type="line"/>
      <point x="250" y="-55" type="line"/>
      <point x="303" y="-70"/>
      <point x="347" y="-70" type="line"/>
      <point x="366" y="-70"/>
      <point x="372" y="-64" type="line"/>
      <point x="378" y="-60"/>
      <point x="378" y="-38" type="line"/>
      <point x="378" y="497" type="line"/>
      <point x="144" y="497" type="line"/>
      <point x="144" y="-109" type="line"/>
      <point x="144" y="-117"/>
      <point x="132" y="-123" type="line"/>
      <point x="118" y="-128"/>
      <point x="109" y="-128" type="line"/>
      <point x="97" y="-128"/>
      <point x="97" y="-116" type="line"/>
    </contour>
    <contour>
      <point x="507" y="704" type="line"/>
      <point x="550" y="691"/>
      <point x="621" y="691" type="line"/>
      <point x="855" y="691" type="line"/>
      <point x="898" y="739" type="line"/>
      <point x="931" y="715"/>
      <point x="960" y="690" type="line"/>
      <point x="968" y="686"/>
      <point x="968" y="680" type="line"/>
      <point x="968" y="665"/>
      <point x="957" y="665" type="line"/>
      <point x="621" y="665" type="line"/>
      <point x="552" y="664"/>
      <point x="527" y="661" type="line"/>
    </contour>
    <contour>
      <point x="554" y="555" type="line"/>
      <point x="613" y="523" type="line"/>
      <point x="843" y="523" type="line"/>
      <point x="875" y="566" type="line"/>
      <point x="910" y="546"/>
      <point x="926" y="525" type="line"/>
      <point x="933" y="518"/>
      <point x="933" y="512" type="line"/>
      <point x="933" y="503"/>
      <point x="894" y="480" type="line"/>
      <point x="894" y="-59" type="line"/>
      <point x="894" y="-91"/>
      <point x="882" y="-108" type="line"/>
      <point x="871" y="-124"/>
      <point x="853" y="-134" type="line"/>
      <point x="836" y="-145"/>
      <point x="824" y="-145" type="line"/>
      <point x="824" y="-121"/>
      <point x="815" y="-112" type="line"/>
      <point x="807" y="-100"/>
      <point x="785" y="-90" type="line"/>
      <point x="761" y="-80"/>
      <point x="730" y="-77" type="line"/>
      <point x="730" y="-55" type="line"/>
      <point x="786" y="-70"/>
      <point x="832" y="-70" type="line"/>
      <point x="843" y="-70"/>
      <point x="847" y="-64" type="line"/>
      <point x="851" y="-60"/>
      <point x="851" y="-38" type="line"/>
      <point x="851" y="497" type="line"/>
      <point x="601" y="497" type="line"/>
      <point x="601" y="-109" type="line"/>
      <point x="601" y="-117"/>
      <point x="589" y="-123" type="line"/>
      <point x="575" y="-128"/>
      <point x="566" y="-128" type="line"/>
      <point x="554" y="-128"/>
      <point x="554" y="-116" type="line"/>
    </contour>
  </outline>
</glyph>
<glyph name="u2001A" format="2">
  <advance width="1000"/>
  <unicode hex="2001A"/>
  <outline>
    <contour>
      <point x="332" y="169" type="line"/>
      <point x="292" y="109"/>
      <point x="250" y="72" type="line"/>
      <point x="208" y="25"/>
      <point x="168" y="-5" type="line"/>
      <point x="119" y="-44"/>
      <point x="70" y="-66" type="line"/>
      <point x="58" y="-42" type="line"/>
      <point x="131" y="5"/>
      <point x="179" y="52" type="line"/>
      <point x="230" y="97"/>
      <point x="259" y="137" type="line"/>
      <point x="288" y="180"/>
      <point x="308" y="230" type="line"/>
      <point x="349" y="208"/>
      <point x="378" y="188" type="line"/>
      <point x="382" y="184"/>
      <point x="382" y="176" type="line"/>
      <point x="382" y="169"/>
      <point x="363" y="169" type="line"/>
    </contour>
    <contour>
      <point x="639" y="243" type="line"/>
      <point x="709" y="197"/>
      <point x="782" y="131" type="line"/>
      <point x="832" y="89"/>
      <point x="858" y="52" type="line"/>
      <point x="878" y="25"/>
      <point x="888" y="-5" type="line"/>
      <point x="893" y="-23"/>
      <point x="893" y="-38" type="line"/>
      <point x="893" y="-66"/>
      <point x="868" y="-66" type="line"/>
      <point x="861" y="-66"/>
      <point x="852" y="-62" type="line"/>
      <point x="836" y="-52"/>
      <point x="823" y="-24" type="line"/>
      <point x="794" y="36"/>
      <point x="767" y="76" type="line"/>
      <point x="740" y="119"/>
      <point x="709" y="152" type="line"/>
      <point x="672" y="199"/>
      <point x="626" y="230" type="line"/>
    </contour>
    <contour>
      <point x="488" y="343" type="line"/>
      <point x="540" y="338"/>
      <point x="573" y="325" type="line"/>
      <point x="586" y="319"/>
      <point x="586" y="312" type="line"/>
      <point x="586" y="303"/>
      <point x="573" y="300" type="line"/>
      <point x="556" y="291"/>
      <point x="535" y="289" type="line"/>
      <point x="535" y="-72" type="line"/>
      <point x="535" y="-94"/>
      <point x="537" y="-101" type="line"/>
      <point x="539" y="-116"/>
      <point x="539" y="-127" type="line"/>
      <point x="539" y="-154"/>
      <point x="511" y="-154" type="line"/>
      <point x="488" y="-154"/>
      <point x="488" y="-140" type="line"/>
      <point x="488" y="-120"/>
      <point x="490" y="-91" type="line"/>
      <point x="492" y="-61"/>
      <point x="492" y="-37" type="line"/>
      <point x="492" y="272" type="line"/>
      <point x="492" y="321"/>
    </contour>
    <contour>
      <point x="753" y="431" type="line"/>
      <point x="742" y="446"/>
      <point x="732" y="459" type="line"/>
      <point x="702" y="500"/>
      <point x="647" y="549" type="line"/>
      <point x="659" y="561" type="line"/>
      <point x="709" y="527"/>
      <point x="748" y="491" type="line"/>
      <point x="787" y="458"/>
      <point x="810" y="435" type="line"/>
      <point x="830" y="413"/>
      <point x="842" y="397" type="line"/>
      <point x="850" y="382"/>
      <point x="854" y="368" type="line"/>
      <point x="858" y="356"/>
      <point x="858" y="342" type="line"/>
      <point x="857" y="311"/>
      <point x="836" y="311" type="line"/>
      <point x="827" y="311"/>
      <point x="820" y="317" type="line"/>
      <point x="813" y="324"/>
      <point x="788" y="373" type="line"/>
      <point x="783" y="382"/>
      <point x="779" y="390" type="line"/>
      <point x="775" y="396"/>
      <point x="771" y="402" type="line"/>
      <point x="771" y="402" type="line"/>
      <point x="768" y="407" type="line"/>
      <point x="681" y="390"/>
      <point x="548" y="372" type="line"/>
      <point x="370" y="343"/>
      <point x="183" y="337" type="line"/>
      <point x="176" y="309"/>
      <point x="171" y="309" type="line"/>
      <point x="160" y="309"/>
      <point x="125" y="391" type="line"/>
      <point x="150" y="388"/>
      <point x="199" y="387" type="line"/>
      <point x="250" y="428"/>
      <point x="288" y="463" type="line"/>
      <point x="329" y="502"/>
      <point x="365" y="543" type="line"/>
      <point x="402" y="587"/>
      <point x="431" y="624" type="line"/>
      <point x="443" y="651"/>
      <point x="448" y="676" type="line"/>
      <point x="167" y="676" type="line"/>
      <point x="99" y="676"/>
      <point x="74" y="673" type="line"/>
      <point x="54" y="716" type="line"/>
      <point x="97" y="704"/>
      <point x="167" y="704" type="line"/>
      <point x="804" y="704" type="line"/>
      <point x="855" y="762" type="line"/>
      <point x="895" y="732"/>
      <point x="932" y="705" type="line"/>
      <point x="941" y="699"/>
      <point x="941" y="691" type="line"/>
      <point x="941" y="676"/>
      <point x="925" y="676" type="line"/>
      <point x="486" y="676" type="line"/>
      <point x="511" y="664"/>
      <point x="528" y="651" type="line"/>
      <point x="534" y="647"/>
      <point x="534" y="641" type="line"/>
      <point x="534" y="635"/>
      <point x="524" y="632" type="line"/>
      <point x="507" y="627"/>
      <point x="491" y="626" type="line"/>
      <point x="462" y="590"/>
      <point x="429" y="555" type="line"/>
      <point x="394" y="519"/>
      <point x="364" y="489" type="line"/>
      <point x="330" y="459"/>
      <point x="284" y="426" type="line"/>
      <point x="261" y="404"/>
      <point x="228" y="387" type="line"/>
      <point x="246" y="387" type="line"/>
      <point x="388" y="387"/>
      <point x="528" y="400" type="line"/>
      <point x="654" y="414"/>
    </contour>
  </outline>
</glyph>
<glyph name="u2001B" format="2">
  <advance width="1000"/>
  <unicode hex="2001B"/>
  <outline>
    <contour>
      <point x="35" y="548" type="line"/>
      <point x="77" y="536"/>
      <point x="148" y="536" type="line"/>
      <point x="477" y="536" type="line"/>
      <point x="480" y="594"/>
      <point x="480" y="676" type="line"/>
      <point x="210" y="676" type="line"/>
      <point x="142" y="676"/>
      <point x="117" y="673" type="line"/>
      <point x="97" y="716" type="line"/>
      <point x="140" y="704"/>
      <point x="210" y="704" type="line"/>
      <point x="753" y="704" type="line"/>
      <point x="800" y="755" type="line"/>
      <point x="835" y="728"/>
      <point x="866" y="703" type="line"/>
      <point x="875" y="698"/>
      <point x="875" y="691" type="line"/>
      <point x="875" y="676"/>
      <point x="863" y="676" type="line"/>
      <point x="531" y="676" type="line"/>
      <point x="531" y="595"/>
      <point x="527" y="536" type="line"/>
      <point x="832" y="536" type="line"/>
      <point x="878" y="587" type="line"/>
      <point x="914" y="560"/>
      <point x="944" y="535" type="line"/>
      <point x="953" y="531"/>
      <point x="953" y="523" type="line"/>
      <point x="953" y="509"/>
      <point x="941" y="509" type="line"/>
      <point x="525" y="509" type="line"/>
      <point x="523" y="477"/>
      <point x="519" y="451" type="line"/>
      <point x="513" y="415"/>
      <point x="504" y="384" type="line"/>
      <point x="812" y="384" type="line"/>
      <point x="843" y="426" type="line"/>
      <point x="878" y="404"/>
      <point x="895" y="385" type="line"/>
      <point x="902" y="378"/>
      <point x="902" y="372" type="line"/>
      <point x="902" y="362"/>
      <point x="863" y="341" type="line"/>
      <point x="863" y="-55" type="line"/>
      <point x="863" y="-87"/>
      <point x="847" y="-104" type="line"/>
      <point x="834" y="-120"/>
      <point x="810" y="-130" type="line"/>
      <point x="789" y="-141"/>
      <point x="773" y="-141" type="line"/>
      <point x="773" y="-117"/>
      <point x="761" y="-108" type="line"/>
      <point x="748" y="-96"/>
      <point x="714" y="-86" type="line"/>
      <point x="678" y="-76"/>
      <point x="632" y="-74" type="line"/>
      <point x="632" y="-50" type="line"/>
      <point x="714" y="-66"/>
      <point x="781" y="-66" type="line"/>
      <point x="804" y="-66"/>
      <point x="812" y="-61" type="line"/>
      <point x="820" y="-56"/>
      <point x="820" y="-34" type="line"/>
      <point x="820" y="355" type="line"/>
      <point x="496" y="355" type="line"/>
      <point x="490" y="335"/>
      <point x="482" y="317" type="line"/>
      <point x="578" y="269"/>
      <point x="634" y="218" type="line"/>
      <point x="689" y="175"/>
      <point x="715" y="131" type="line"/>
      <point x="734" y="101"/>
      <point x="734" y="70" type="line"/>
      <point x="734" y="51"/>
      <point x="718" y="51" type="line"/>
      <point x="702" y="51"/>
      <point x="688" y="60" type="line"/>
      <point x="675" y="67"/>
      <point x="660" y="99" type="line"/>
      <point x="623" y="170"/>
      <point x="581" y="214" type="line"/>
      <point x="541" y="257"/>
      <point x="475" y="303" type="line"/>
      <point x="446" y="241"/>
      <point x="411" y="199" type="line"/>
      <point x="367" y="149"/>
      <point x="323" y="115" type="line"/>
      <point x="279" y="83"/>
      <point x="218" y="55" type="line"/>
      <point x="207" y="75" type="line"/>
      <point x="258" y="104"/>
      <point x="296" y="133" type="line"/>
      <point x="330" y="161"/>
      <point x="360" y="194" type="line"/>
      <point x="389" y="232"/>
      <point x="416" y="278" type="line"/>
      <point x="435" y="313"/>
      <point x="449" y="355" type="line"/>
      <point x="164" y="355" type="line"/>
      <point x="164" y="-141" type="line"/>
      <point x="164" y="-152"/>
      <point x="144" y="-152" type="line"/>
      <point x="136" y="-152"/>
      <point x="123" y="-146" type="line"/>
      <point x="113" y="-139"/>
      <point x="113" y="-124" type="line"/>
      <point x="113" y="-107"/>
      <point x="115" y="-79" type="line"/>
      <point x="121" y="-57"/>
      <point x="121" y="16" type="line"/>
      <point x="121" y="359" type="line"/>
      <point x="121" y="397"/>
      <point x="113" y="426" type="line"/>
      <point x="171" y="384" type="line"/>
      <point x="457" y="384" type="line"/>
      <point x="468" y="433"/>
      <point x="473" y="492" type="line"/>
      <point x="474" y="500"/>
      <point x="475" y="509" type="line"/>
      <point x="148" y="509" type="line"/>
      <point x="79" y="508"/>
      <point x="54" y="505" type="line"/>
    </contour>
  </outline>
</glyph>
<glyph name="u2001C" format="2">
  <advance width="1000"/>
  <unicode hex="2001C"/>
  <outline>
    <contour>
      <point x="66" y="708" type="line"/>
      <point x="108" y="695"/>
      <point x="179" y="695" type="line"/>
      <point x="792" y="695" type="line"/>
      <point x="843" y="755" type="line"/>
      <point x="882" y="725"/>
      <point x="916" y="697" type="line"/>
      <point x="925" y="691"/>
      <point x="925" y="684" type="line"/>
      <point x="925" y="669"/>
      <point x="910" y="669" type="line"/>
      <point x="644" y="669" type="line"/>
      <point x="644" y="-77" type="line"/>
      <point x="828" y="-77" type="line"/>
      <point x="878" y="-20" type="line"/>
      <point x="917" y="-48"/>
      <point x="952" y="-76" type="line"/>
      <point x="960" y="-82"/>
      <point x="960" y="-89" type="line"/>
      <point x="960" y="-105"/>
      <point x="945" y="-105" type="line"/>
      <point x="148" y="-105" type="line"/>
      <point x="79" y="-106"/>
      <point x="54" y="-109" type="line"/>
      <point x="35" y="-66" type="line"/>
      <point x="77" y="-77"/>
      <point x="148" y="-77" type="line"/>
      <point x="359" y="-77" type="line"/>
      <point x="359" y="669" type="line"/>
      <point x="179" y="669" type="line"/>
      <point x="110" y="668"/>
      <point x="85" y="665" type="line"/>
    </contour>
    <contour>
      <point x="406" y="-77" type="line"/>
      <point x="597" y="-77" type="line"/>
      <point x="597" y="669" type="line"/>
      <point x="406" y="669" type="line"/>
    </contour>
    <contour>
      <point x="726" y="480" type="line"/>
      <point x="771" y="431"/>
      <point x="806" y="378" type="line"/>
      <point x="841" y="329"/>
      <point x="861" y="294" type="line"/>
      <point x="880" y="261"/>
      <point x="890" y="237" type="line"/>
      <point x="897" y="216"/>
      <point x="901" y="194" type="line"/>
      <point x="906" y="177"/>
      <point x="906" y="157" type="line"/>
      <point x="905" y="126"/>
      <point x="882" y="126" type="line"/>
      <point x="875" y="126"/>
      <point x="869" y="134" type="line"/>
      <point x="862" y="145"/>
      <point x="840" y="215" type="line"/>
      <point x="818" y="284"/>
      <point x="790" y="340" type="line"/>
      <point x="763" y="396"/>
      <point x="714" y="469" type="line"/>
    </contour>
    <contour>
      <point x="203" y="466" type="line"/>
      <point x="251" y="448"/>
      <point x="286" y="431" type="line"/>
      <point x="292" y="425"/>
      <point x="292" y="419" type="line"/>
      <point x="292" y="410"/>
      <point x="273" y="407" type="line"/>
      <point x="251" y="402"/>
      <point x="242" y="402" type="line"/>
      <point x="223" y="336"/>
      <point x="200" y="273" type="line"/>
      <point x="177" y="214"/>
      <point x="152" y="167" type="line"/>
      <point x="126" y="120"/>
      <point x="89" y="70" type="line"/>
      <point x="74" y="83" type="line"/>
      <point x="104" y="137"/>
      <point x="126" y="185" type="line"/>
      <point x="143" y="226"/>
      <point x="160" y="277" type="line"/>
      <point x="176" y="328"/>
      <point x="187" y="373" type="line"/>
      <point x="197" y="415"/>
    </contour>
  </outline>
</glyph>
<glyph name="u2001D" format="2">
  <advance width="1000"/>
  <unicode hex="2001D"/>
  <outline>
    <contour>
      <point x="31" y="712" type="line"/>
      <point x="73" y="700"/>
      <point x="144" y="700" type="line"/>
      <point x="828" y="700" type="line"/>
      <point x="878" y="759" type="line"/>
      <point x="917" y="729"/>
      <point x="952" y="701" type="line"/>
      <point x="960" y="695"/>
      <point x="960" y="688" type="line"/>
      <point x="960" y="673"/>
      <point x="945" y="673" type="line"/>
      <point x="500" y="673" type="line"/>
      <point x="500" y="598" type="line"/>
      <point x="576" y="575"/>
      <point x="634" y="550" type="line"/>
      <point x="698" y="525"/>
      <point x="734" y="508" type="line"/>
      <point x="770" y="491"/>
      <point x="788" y="479" type="line"/>
      <point x="800" y="468"/>
      <point x="808" y="458" type="line"/>
      <point x="816" y="448"/>
      <point x="816" y="438" type="line"/>
      <point x="815" y="407"/>
      <point x="792" y="407" type="line"/>
      <point x="779" y="407"/>
      <point x="768" y="411" type="line"/>
      <point x="755" y="417"/>
      <point x="713" y="454" type="line"/>
      <point x="671" y="492"/>
      <point x="619" y="521" type="line"/>
      <point x="574" y="548"/>
      <point x="500" y="581" type="line"/>
      <point x="500" y="411" type="line"/>
      <point x="500" y="388"/>
      <point x="501" y="381" type="line"/>
      <point x="503" y="364"/>
      <point x="503" y="352" type="line"/>
      <point x="503" y="320"/>
      <point x="472" y="320" type="line"/>
      <point x="449" y="320"/>
      <point x="449" y="337" type="line"/>
      <point x="449" y="357"/>
      <point x="451" y="390" type="line"/>
      <point x="453" y="424"/>
      <point x="453" y="450" type="line"/>
      <point x="453" y="673" type="line"/>
      <point x="144" y="673" type="line"/>
      <point x="75" y="672"/>
      <point x="50" y="669" type="line"/>
    </contour>
    <contour>
      <point x="429" y="298" type="line"/>
      <point x="485" y="291"/>
      <point x="521" y="276" type="line"/>
      <point x="535" y="271"/>
      <point x="535" y="262" type="line"/>
      <point x="535" y="254"/>
      <point x="521" y="250" type="line"/>
      <point x="503" y="241"/>
      <point x="480" y="239" type="line"/>
      <point x="480" y="130" type="line"/>
      <point x="761" y="130" type="line"/>
      <point x="808" y="184" type="line"/>
      <point x="845" y="156"/>
      <point x="878" y="130" type="line"/>
      <point x="886" y="125"/>
      <point x="886" y="118" type="line"/>
      <point x="886" y="102"/>
      <point x="871" y="102" type="line"/>
      <point x="480" y="102" type="line"/>
      <point x="480" y="-105" type="line"/>
      <point x="824" y="-105" type="line"/>
      <point x="875" y="-46" type="line"/>
      <point x="914" y="-75"/>
      <point x="948" y="-104" type="line"/>
      <point x="957" y="-109"/>
      <point x="957" y="-116" type="line"/>
      <point x="957" y="-132"/>
      <point x="941" y="-132" type="line"/>
      <point x="167" y="-132" type="line"/>
      <point x="99" y="-133"/>
      <point x="74" y="-136" type="line"/>
      <point x="54" y="-93" type="line"/>
      <point x="97" y="-105"/>
      <point x="167" y="-105" type="line"/>
      <point x="433" y="-105" type="line"/>
      <point x="433" y="219" type="line"/>
      <point x="433" y="271"/>
    </contour>
  </outline>
</glyph>
<glyph name="u2001E" format="2">
  <advance width="1000"/>
  <unicode hex="2001E"/>
  <outline>
    <contour>
      <point x="425" y="747" type="line"/>
      <point x="460" y="722"/>
      <point x="491" y="699" type="line"/>
      <point x="500" y="693"/>
      <point x="500" y="688" type="line"/>
      <point x="500" y="673"/>
      <point x="488" y="673" type="line"/>
      <point x="128" y="673" type="line"/>
      <point x="128" y="430" type="line"/>
      <point x="347" y="430" type="line"/>
      <point x="375" y="462" type="line"/>
      <point x="425" y="431"/>
      <point x="425" y="419" type="line"/>
      <point x="425" y="408"/>
      <point x="398" y="391" type="line"/>
      <point x="398" y="-59" type="line"/>
      <point x="398" y="-76"/>
      <point x="367" y="-81" type="line"/>
      <point x="351" y="-81"/>
      <point x="351" y="-74" type="line"/>
      <point x="351" y="402" type="line"/>
      <point x="128" y="402" type="line"/>
      <point x="128" y="-132" type="line"/>
      <point x="128" y="-142"/>
      <point x="117" y="-146" type="line"/>
      <point x="102" y="-152"/>
      <point x="93" y="-152" type="line"/>
      <point x="82" y="-152"/>
      <point x="82" y="-141" type="line"/>
      <point x="82" y="730" type="line"/>
      <point x="140" y="700" type="line"/>
      <point x="382" y="700" type="line"/>
    </contour>
    <contour>
      <point x="871" y="747" type="line"/>
      <point x="906" y="722"/>
      <point x="937" y="699" type="line"/>
      <point x="945" y="693"/>
      <point x="945" y="688" type="line"/>
      <point x="945" y="673"/>
      <point x="933" y="673" type="line"/>
      <point x="582" y="673" type="line"/>
      <point x="582" y="430" type="line"/>
      <point x="820" y="430" type="line"/>
      <point x="847" y="462" type="line"/>
      <point x="898" y="431"/>
      <point x="898" y="419" type="line"/>
      <point x="898" y="408"/>
      <point x="871" y="391" type="line"/>
      <point x="871" y="-59" type="line"/>
      <point x="871" y="-76"/>
      <point x="839" y="-81" type="line"/>
      <point x="824" y="-81"/>
      <point x="824" y="-74" type="line"/>
      <point x="824" y="402" type="line"/>
      <point x="582" y="402" type="line"/>
      <point x="582" y="-132" type="line"/>
      <point x="582" y="-142"/>
      <point x="570" y="-146" type="line"/>
      <point x="555" y="-152"/>
      <point x="546" y="-152" type="line"/>
      <point x="535" y="-152"/>
      <point x="535" y="-141" type="line"/>
      <point x="535" y="730" type="line"/>
      <point x="593" y="700" type="line"/>
      <point x="828" y="700" type="line"/>
    </contour>
  </outline>
</glyph>
<glyph name="u2001F" format="2">
  <advance width="1000"/>
  <unicode hex="2001F"/>
  <outline>
    <contour>
      <point x="148" y="243" type="line"/>
      <point x="148" y="234" type="line"/>
      <point x="148" y="226"/>
      <point x="136" y="221" type="line"/>
      <point x="122" y="216"/>
      <point x="113" y="216" type="line"/>
      <point x="101" y="216"/>
      <point x="101" y="227" type="line"/>
      <point x="101" y="523" type="line"/>
      <point x="160" y="493" type="line"/>
      <point x="453" y="493" type="line"/>
      <point x="453" y="598" type="line"/>
      <point x="152" y="598" type="line"/>
      <point x="83" y="597"/>
      <point x="58" y="594" type="line"/>
      <point x="39" y="637" type="line"/>
      <point x="81" y="626"/>
      <point x="152" y="626" type="line"/>
      <point x="453" y="626" type="line"/>
      <point x="453" y="676" type="line"/>
      <point x="453" y="729"/>
      <point x="449" y="755" type="line"/>
      <point x="504" y="748"/>
      <point x="541" y="733" type="line"/>
      <point x="554" y="728"/>
      <point x="554" y="719" type="line"/>
      <point x="554" y="711"/>
      <point x="541" y="707" type="line"/>
      <point x="523" y="698"/>
      <point x="500" y="695" type="line"/>
      <point x="500" y="626" type="line"/>
      <point x="820" y="626" type="line"/>
      <point x="867" y="680" type="line"/>
      <point x="904" y="652"/>
      <point x="937" y="626" type="line"/>
      <point x="945" y="621"/>
      <point x="945" y="614" type="line"/>
      <point x="945" y="598"/>
      <point x="929" y="598" type="line"/>
      <point x="500" y="598" type="line"/>
      <point x="500" y="493" type="line"/>
      <point x="765" y="493" type="line"/>
      <point x="792" y="523" type="line"/>
      <point x="843" y="493"/>
      <point x="843" y="480" type="line"/>
      <point x="843" y="471"/>
      <point x="816" y="454" type="line"/>
      <point x="816" y="325" type="line"/>
      <point x="816" y="307"/>
      <point x="785" y="301" type="line"/>
      <point x="769" y="301"/>
      <point x="769" y="309" type="line"/>
      <point x="769" y="466" type="line"/>
      <point x="500" y="466" type="line"/>
      <point x="500" y="270" type="line"/>
      <point x="843" y="270" type="line"/>
      <point x="878" y="301" type="line"/>
      <point x="911" y="283"/>
      <point x="929" y="266" type="line"/>
      <point x="937" y="259"/>
      <point x="937" y="255" type="line"/>
      <point x="937" y="242"/>
      <point x="898" y="227" type="line"/>
      <point x="893" y="167"/>
      <point x="883" y="125" type="line"/>
      <point x="873" y="81"/>
      <point x="863" y="61" type="line"/>
      <point x="852" y="43"/>
      <point x="840" y="34" type="line"/>
      <point x="826" y="24"/>
      <point x="811" y="18" type="line"/>
      <point x="797" y="12"/>
      <point x="789" y="12" type="line"/>
      <point x="789" y="27"/>
      <point x="782" y="36" type="line"/>
      <point x="775" y="48"/>
      <point x="703" y="75" type="line"/>
      <point x="707" y="94" type="line"/>
      <point x="774" y="75"/>
      <point x="796" y="75" type="line"/>
      <point x="804" y="75"/>
      <point x="811" y="78" type="line"/>
      <point x="816" y="79"/>
      <point x="820" y="86" type="line"/>
      <point x="826" y="92"/>
      <point x="832" y="108" type="line"/>
      <point x="838" y="126"/>
      <point x="843" y="159" type="line"/>
      <point x="848" y="190"/>
      <point x="851" y="243" type="line"/>
      <point x="500" y="243" type="line"/>
      <point x="500" y="182" type="line"/>
      <point x="538" y="136"/>
      <point x="584" y="101" type="line"/>
      <point x="634" y="61"/>
      <point x="698" y="23" type="line"/>
      <point x="763" y="-11"/>
      <point x="827" y="-36" type="line"/>
      <point x="889" y="-60"/>
      <point x="945" y="-70" type="line"/>
      <point x="945" y="-85" type="line"/>
      <point x="892" y="-85"/>
      <point x="875" y="-116" type="line"/>
      <point x="810" y="-96"/>
      <point x="759" y="-65" type="line"/>
      <point x="701" y="-33"/>
      <point x="660" y="3" type="line"/>
      <point x="611" y="36"/>
      <point x="567" y="76" type="line"/>
      <point x="535" y="104"/>
      <point x="500" y="145" type="line"/>
      <point x="500" y="-59" type="line"/>
      <point x="500" y="-80"/>
      <point x="501" y="-88" type="line"/>
      <point x="503" y="-105"/>
      <point x="503" y="-116" type="line"/>
      <point x="503" y="-148"/>
      <point x="472" y="-148" type="line"/>
      <point x="449" y="-148"/>
      <point x="449" y="-132" type="line"/>
      <point x="449" y="-111"/>
      <point x="451" y="-79" type="line"/>
      <point x="453" y="-45"/>
      <point x="453" y="-20" type="line"/>
      <point x="453" y="171" type="line"/>
      <point x="406" y="117"/>
      <point x="357" y="74" type="line"/>
      <point x="296" y="20"/>
      <point x="217" y="-21" type="line"/>
      <point x="132" y="-67"/>
      <point x="46" y="-93" type="line"/>
      <point x="39" y="-74" type="line"/>
      <point x="146" y="-32"/>
      <point x="213" y="10" type="line"/>
      <point x="280" y="51"/>
      <point x="334" y="103" type="line"/>
      <point x="383" y="147"/>
      <point x="453" y="239" type="line"/>
      <point x="453" y="243" type="line"/>
    </contour>
    <contour>
      <point x="453" y="270" type="line"/>
      <point x="453" y="466" type="line"/>
      <point x="148" y="466" type="line"/>
      <point x="148" y="270" type="line"/>
    </contour>
  </outline>
</glyph>
<glyph name="u20020" format="2">
  <advance width="1000"/>
  <unicode hex="20020"/>
  <outline>
    <contour>
      <point x="39" y="583" type="line"/>
      <point x="81" y="570"/>
      <point x="152" y="570" type="line"/>
      <point x="203" y="570" type="line"/>
      <point x="203" y="680" type="line"/>
      <point x="203" y="732"/>
      <point x="199" y="759" type="line"/>
      <point x="254" y="752"/>
      <point x="291" y="737" type="line"/>
      <point x="304" y="731"/>
      <point x="304" y="723" type="line"/>
      <point x="304" y="715"/>
      <point x="291" y="711" type="line"/>
      <point x="273" y="702"/>
      <point x="250" y="700" type="line"/>
      <point x="250" y="570" type="line"/>
      <point x="726" y="570" type="line"/>
      <point x="726" y="676" type="line"/>
      <point x="726" y="729"/>
      <point x="722" y="755" type="line"/>
      <point x="778" y="748"/>
      <point x="814" y="733" type="line"/>
      <point x="828" y="728"/>
      <point x="828" y="719" type="line"/>
      <point x="828" y="711"/>
      <point x="814" y="707" type="line"/>
      <point x="796" y="698"/>
      <point x="773" y="695" type="line"/>
      <point x="773" y="570" type="line"/>
      <point x="832" y="570" type="line"/>
      <point x="882" y="630" type="line"/>
      <point x="921" y="600"/>
      <point x="956" y="572" type="line"/>
      <point x="964" y="566"/>
      <point x="964" y="559" type="line"/>
      <point x="964" y="544"/>
      <point x="949" y="544" type="line"/>
      <point x="773" y="544" type="line"/>
      <point x="773" y="-46" type="line"/>
      <point x="773" y="-69"/>
      <point x="775" y="-76" type="line"/>
      <point x="777" y="-93"/>
      <point x="777" y="-105" type="line"/>
      <point x="777" y="-136"/>
      <point x="746" y="-136" type="line"/>
      <point x="722" y="-136"/>
      <point x="722" y="-120" type="line"/>
      <point x="722" y="-103"/>
      <point x="723" y="-77" type="line"/>
      <point x="251" y="-77" type="line"/>
      <point x="253" y="-94"/>
      <point x="253" y="-105" type="line"/>
      <point x="253" y="-136"/>
      <point x="222" y="-136" type="line"/>
      <point x="199" y="-136"/>
      <point x="199" y="-120" type="line"/>
      <point x="199" y="-100"/>
      <point x="201" y="-67" type="line"/>
      <point x="203" y="-33"/>
      <point x="203" y="-7" type="line"/>
      <point x="203" y="544" type="line"/>
      <point x="152" y="544" type="line"/>
      <point x="83" y="543"/>
      <point x="58" y="540" type="line"/>
    </contour>
    <contour>
      <point x="250" y="-50" type="line"/>
      <point x="725" y="-50" type="line"/>
      <point x="726" y="-26"/>
      <point x="726" y="-7" type="line"/>
      <point x="726" y="544" type="line"/>
      <point x="250" y="544" type="line"/>
    </contour>
    <contour>
      <point x="582" y="493" type="line"/>
      <point x="623" y="478"/>
      <point x="645" y="462" type="line"/>
      <point x="656" y="455"/>
      <point x="656" y="445" type="line"/>
      <point x="656" y="434"/>
      <point x="613" y="434" type="line"/>
      <point x="582" y="359"/>
      <point x="556" y="307" type="line"/>
      <point x="546" y="288"/>
      <point x="536" y="271" type="line"/>
      <point x="558" y="247"/>
      <point x="573" y="229" type="line"/>
      <point x="605" y="190"/>
      <point x="622" y="165" type="line"/>
      <point x="634" y="138"/>
      <point x="641" y="115" type="line"/>
      <point x="648" y="94"/>
      <point x="648" y="70" type="line"/>
      <point x="647" y="48"/>
      <point x="628" y="48" type="line"/>
      <point x="616" y="48"/>
      <point x="605" y="57" type="line"/>
      <point x="594" y="68"/>
      <point x="556" y="147" type="line"/>
      <point x="535" y="192"/>
      <point x="511" y="229" type="line"/>
      <point x="506" y="223"/>
      <point x="503" y="218" type="line"/>
      <point x="473" y="176"/>
      <point x="446" y="145" type="line"/>
      <point x="417" y="110"/>
      <point x="384" y="86" type="line"/>
      <point x="348" y="58"/>
      <point x="308" y="36" type="line"/>
      <point x="296" y="51" type="line"/>
      <point x="343" y="79"/>
      <point x="372" y="110" type="line"/>
      <point x="403" y="141"/>
      <point x="434" y="186" type="line"/>
      <point x="460" y="218"/>
      <point x="487" y="265" type="line"/>
      <point x="478" y="276"/>
      <point x="470" y="288" type="line"/>
      <point x="423" y="353"/>
      <point x="339" y="434" type="line"/>
      <point x="347" y="445" type="line"/>
      <point x="423" y="387"/>
      <point x="481" y="326" type="line"/>
      <point x="495" y="313"/>
      <point x="507" y="301" type="line"/>
      <point x="531" y="347"/>
      <point x="547" y="390" type="line"/>
      <point x="568" y="438"/>
    </contour>
  </outline>
</glyph>
<glyph name="u20021" format="2">
  <advance width="1000"/>
  <unicode hex="20021"/>
  <outline>
    <contour>
      <point x="261" y="622" type="line"/>
      <point x="310" y="604"/>
      <point x="345" y="588" type="line"/>
      <point x="351" y="581"/>
      <point x="351" y="575" type="line"/>
      <point x="351" y="565"/>
      <point x="332" y="563" type="line"/>
      <point x="310" y="559"/>
      <point x="300" y="559" type="line"/>
      <point x="279" y="512"/>
      <point x="255" y="469" type="line"/>
      <point x="476" y="469" type="line"/>
      <point x="476" y="566" type="line"/>
      <point x="476" y="619"/>
      <point x="472" y="645" type="line"/>
      <point x="528" y="638"/>
      <point x="564" y="624" type="line"/>
      <point x="578" y="619"/>
      <point x="578" y="609" type="line"/>
      <point x="578" y="601"/>
      <point x="564" y="598" type="line"/>
      <point x="546" y="589"/>
      <point x="523" y="587" type="line"/>
      <point x="523" y="469" type="line"/>
      <point x="707" y="469" type="line"/>
      <point x="757" y="527" type="line"/>
      <point x="796" y="499"/>
      <point x="831" y="470" type="line"/>
      <point x="839" y="465"/>
      <point x="839" y="458" type="line"/>
      <point x="839" y="441"/>
      <point x="824" y="441" type="line"/>
      <point x="523" y="441" type="line"/>
      <point x="523" y="259" type="line"/>
      <point x="820" y="259" type="line"/>
      <point x="871" y="316" type="line"/>
      <point x="910" y="288"/>
      <point x="944" y="260" type="line"/>
      <point x="953" y="254"/>
      <point x="953" y="247" type="line"/>
      <point x="953" y="230"/>
      <point x="937" y="230" type="line"/>
      <point x="621" y="230" type="line"/>
      <point x="621" y="-46" type="line"/>
      <point x="621" y="-61"/>
      <point x="629" y="-69" type="line"/>
      <point x="635" y="-78"/>
      <point x="654" y="-82" type="line"/>
      <point x="676" y="-85"/>
      <point x="742" y="-85" type="line"/>
      <point x="794" y="-85"/>
      <point x="837" y="-81" type="line"/>
      <point x="854" y="-80"/>
      <point x="863" y="-72" type="line"/>
      <point x="871" y="-65"/>
      <point x="876" y="-49" type="line"/>
      <point x="885" y="-25"/>
      <point x="894" y="63" type="line"/>
      <point x="910" y="59" type="line"/>
      <point x="910" y="-31" type="line"/>
      <point x="910" y="-47"/>
      <point x="916" y="-57" type="line"/>
      <point x="923" y="-69"/>
      <point x="937" y="-75" type="line"/>
      <point x="945" y="-79"/>
      <point x="945" y="-89" type="line"/>
      <point x="945" y="-92"/>
      <point x="940" y="-100" type="line"/>
      <point x="933" y="-108"/>
      <point x="913" y="-114" type="line"/>
      <point x="891" y="-122"/>
      <point x="848" y="-124" type="line"/>
      <point x="799" y="-128"/>
      <point x="763" y="-128" type="line"/>
      <point x="693" y="-128"/>
      <point x="661" y="-124" type="line"/>
      <point x="628" y="-123"/>
      <point x="610" y="-115" type="line"/>
      <point x="591" y="-110"/>
      <point x="582" y="-97" type="line"/>
      <point x="574" y="-83"/>
      <point x="574" y="-74" type="line"/>
      <point x="574" y="230" type="line"/>
      <point x="398" y="230" type="line"/>
      <point x="397" y="183"/>
      <point x="390" y="145" type="line"/>
      <point x="382" y="96"/>
      <point x="367" y="65" type="line"/>
      <point x="352" y="26"/>
      <point x="327" y="-4" type="line"/>
      <point x="299" y="-38"/>
      <point x="269" y="-63" type="line"/>
      <point x="230" y="-90"/>
      <point x="180" y="-111" type="line"/>
      <point x="134" y="-132"/>
      <point x="74" y="-148" type="line"/>
      <point x="62" y="-128" type="line"/>
      <point x="148" y="-103"/>
      <point x="191" y="-76" type="line"/>
      <point x="231" y="-53"/>
      <point x="263" y="-21" type="line"/>
      <point x="296" y="11"/>
      <point x="313" y="49" type="line"/>
      <point x="332" y="81"/>
      <point x="340" y="127" type="line"/>
      <point x="346" y="165"/>
      <point x="347" y="230" type="line"/>
      <point x="152" y="230" type="line"/>
      <point x="83" y="229"/>
      <point x="58" y="227" type="line"/>
      <point x="39" y="270" type="line"/>
      <point x="81" y="259"/>
      <point x="152" y="259" type="line"/>
      <point x="476" y="259" type="line"/>
      <point x="476" y="441" type="line"/>
      <point x="239" y="441" type="line"/>
      <point x="217" y="408"/>
      <point x="195" y="382" type="line"/>
      <point x="164" y="346"/>
      <point x="121" y="309" type="line"/>
      <point x="105" y="320" type="line"/>
      <point x="143" y="364"/>
      <point x="168" y="400" type="line"/>
      <point x="189" y="434"/>
      <point x="209" y="474" type="line"/>
      <point x="229" y="514"/>
      <point x="243" y="549" type="line"/>
      <point x="254" y="582"/>
    </contour>
    <contour>
      <point x="39" y="716" type="line"/>
      <point x="81" y="704"/>
      <point x="152" y="704" type="line"/>
      <point x="820" y="704" type="line"/>
      <point x="871" y="762" type="line"/>
      <point x="910" y="732"/>
      <point x="944" y="705" type="line"/>
      <point x="953" y="699"/>
      <point x="953" y="691" type="line"/>
      <point x="953" y="676"/>
      <point x="937" y="676" type="line"/>
      <point x="152" y="676" type="line"/>
      <point x="83" y="676"/>
      <point x="58" y="673" type="line"/>
    </contour>
  </outline>
</glyph>
<glyph name="u20022" format="2">
  <advance width="1000"/>
  <unicode hex="20022"/>
  <outline>
    <contour>
      <point x="35" y="684" type="line"/>
      <point x="77" y="673"/>
      <point x="148" y="673" type="line"/>
      <point x="816" y="673" type="line"/>
      <point x="867" y="730" type="line"/>
      <point x="906" y="702"/>
      <point x="940" y="674" type="line"/>
      <point x="949" y="668"/>
      <point x="949" y="661" type="line"/>
      <point x="949" y="645"/>
      <point x="933" y="645" type="line"/>
      <point x="148" y="645" type="line"/>
      <point x="79" y="644"/>
      <point x="54" y="641" type="line"/>
    </contour>
    <contour>
      <point x="296" y="598" type="line"/>
      <point x="352" y="592"/>
      <point x="389" y="577" type="line"/>
      <point x="402" y="572"/>
      <point x="402" y="563" type="line"/>
      <point x="402" y="554"/>
      <point x="389" y="551" type="line"/>
      <point x="371" y="542"/>
      <point x="347" y="540" type="line"/>
      <point x="347" y="305" type="line"/>
      <point x="425" y="305" type="line"/>
      <point x="472" y="355" type="line"/>
      <point x="507" y="330"/>
      <point x="538" y="305" type="line"/>
      <point x="546" y="300"/>
      <point x="546" y="294" type="line"/>
      <point x="546" y="277"/>
      <point x="535" y="277" type="line"/>
      <point x="347" y="277" type="line"/>
      <point x="347" y="-22" type="line"/>
      <point x="419" y="-8"/>
      <point x="511" y="16" type="line"/>
      <point x="515" y="-7" type="line"/>
      <point x="429" y="-38"/>
      <point x="363" y="-56" type="line"/>
      <point x="291" y="-75"/>
      <point x="227" y="-90" type="line"/>
      <point x="167" y="-106"/>
      <point x="101" y="-116" type="line"/>
      <point x="88" y="-156"/>
      <point x="82" y="-156" type="line"/>
      <point x="73" y="-156"/>
      <point x="31" y="-70" type="line"/>
      <point x="78" y="-66"/>
      <point x="117" y="-62" type="line"/>
      <point x="117" y="359" type="line"/>
      <point x="117" y="412"/>
      <point x="113" y="438" type="line"/>
      <point x="168" y="431"/>
      <point x="205" y="417" type="line"/>
      <point x="218" y="412"/>
      <point x="218" y="402" type="line"/>
      <point x="218" y="394"/>
      <point x="205" y="391" type="line"/>
      <point x="187" y="382"/>
      <point x="164" y="380" type="line"/>
      <point x="164" y="-56" type="line"/>
      <point x="177" y="-53"/>
      <point x="188" y="-51" type="line"/>
      <point x="241" y="-44"/>
      <point x="300" y="-32" type="line"/>
      <point x="300" y="520" type="line"/>
      <point x="300" y="572"/>
    </contour>
    <contour>
      <point x="828" y="359" type="line"/>
      <point x="865" y="332"/>
      <point x="897" y="305" type="line"/>
      <point x="906" y="301"/>
      <point x="906" y="294" type="line"/>
      <point x="906" y="277"/>
      <point x="890" y="277" type="line"/>
      <point x="625" y="277" type="line"/>
      <point x="625" y="-42" type="line"/>
      <point x="625" y="-60"/>
      <point x="632" y="-66" type="line"/>
      <point x="643" y="-74"/>
      <point x="666" y="-77" type="line"/>
      <point x="694" y="-85"/>
      <point x="756" y="-85" type="line"/>
      <point x="803" y="-85"/>
      <point x="831" y="-82" type="line"/>
      <point x="853" y="-79"/>
      <point x="866" y="-71" type="line"/>
      <point x="879" y="-64"/>
      <point x="883" y="-42" type="line"/>
      <point x="893" y="-10"/>
      <point x="902" y="118" type="line"/>
      <point x="921" y="114" type="line"/>
      <point x="917" y="42"/>
      <point x="917" y="-27" type="line"/>
      <point x="917" y="-41"/>
      <point x="923" y="-46" type="line"/>
      <point x="926" y="-52"/>
      <point x="939" y="-59" type="line"/>
      <point x="957" y="-67"/>
      <point x="957" y="-81" type="line"/>
      <point x="957" y="-91"/>
      <point x="945" y="-99" type="line"/>
      <point x="930" y="-110"/>
      <point x="906" y="-114" type="line"/>
      <point x="878" y="-121"/>
      <point x="840" y="-124" type="line"/>
      <point x="797" y="-128"/>
      <point x="756" y="-128" type="line"/>
      <point x="695" y="-128"/>
      <point x="663" y="-124" type="line"/>
      <point x="621" y="-117"/>
      <point x="607" y="-110" type="line"/>
      <point x="592" y="-104"/>
      <point x="584" y="-88" type="line"/>
      <point x="578" y="-74"/>
      <point x="578" y="-59" type="line"/>
      <point x="578" y="532" type="line"/>
      <point x="578" y="573"/>
      <point x="574" y="598" type="line"/>
      <point x="621" y="590"/>
      <point x="653" y="579" type="line"/>
      <point x="664" y="576"/>
      <point x="664" y="566" type="line"/>
      <point x="664" y="559"/>
      <point x="653" y="556" type="line"/>
      <point x="640" y="551"/>
      <point x="625" y="548" type="line"/>
      <point x="625" y="305" type="line"/>
      <point x="781" y="305" type="line"/>
    </contour>
  </outline>
</glyph>
<glyph name="u20023" format="2">
  <advance width="1000"/>
  <unicode hex="20023"/>
  <outline>
    <contour>
      <point x="35" y="700" type="line"/>
      <point x="77" y="688"/>
      <point x="148" y="688" type="line"/>
      <point x="835" y="688" type="line"/>
      <point x="882" y="743" type="line"/>
      <point x="919" y="715"/>
      <point x="952" y="688" type="line"/>
      <point x="960" y="683"/>
      <point x="960" y="676" type="line"/>
      <point x="960" y="661"/>
      <point x="945" y="661" type="line"/>
      <point x="148" y="661" type="line"/>
      <point x="79" y="660"/>
      <point x="54" y="657" type="line"/>
    </contour>
    <contour>
      <point x="97" y="480" type="line"/>
      <point x="152" y="445" type="line"/>
      <point x="265" y="445" type="line"/>
      <point x="265" y="575" type="line"/>
      <point x="265" y="627"/>
      <point x="261" y="652" type="line"/>
      <point x="317" y="646"/>
      <point x="354" y="632" type="line"/>
      <point x="367" y="627"/>
      <point x="367" y="618" type="line"/>
      <point x="367" y="608"/>
      <point x="354" y="605" type="line"/>
      <point x="335" y="596"/>
      <point x="312" y="594" type="line"/>
      <point x="312" y="445" type="line"/>
      <point x="433" y="445" type="line"/>
      <point x="457" y="480" type="line"/>
      <point x="490" y="461"/>
      <point x="509" y="441" type="line"/>
      <point x="515" y="437"/>
      <point x="515" y="430" type="line"/>
      <point x="515" y="425"/>
      <point x="507" y="419" type="line"/>
      <point x="495" y="409"/>
      <point x="480" y="402" type="line"/>
      <point x="480" y="-46" type="line"/>
      <point x="480" y="-61"/>
      <point x="493" y="-69" type="line"/>
      <point x="501" y="-78"/>
      <point x="530" y="-82" type="line"/>
      <point x="565" y="-85"/>
      <point x="666" y="-85" type="line"/>
      <point x="749" y="-85"/>
      <point x="819" y="-80" type="line"/>
      <point x="847" y="-79"/>
      <point x="860" y="-69" type="line"/>
      <point x="873" y="-60"/>
      <point x="881" y="-38" type="line"/>
      <point x="896" y="-7"/>
      <point x="910" y="105" type="line"/>
      <point x="925" y="102" type="line"/>
      <point x="921" y="36"/>
      <point x="921" y="-31" type="line"/>
      <point x="921" y="-47"/>
      <point x="927" y="-57" type="line"/>
      <point x="935" y="-69"/>
      <point x="949" y="-75" type="line"/>
      <point x="957" y="-79"/>
      <point x="957" y="-89" type="line"/>
      <point x="957" y="-92"/>
      <point x="950" y="-100" type="line"/>
      <point x="940" y="-108"/>
      <point x="911" y="-114" type="line"/>
      <point x="878" y="-122"/>
      <point x="817" y="-124" type="line"/>
      <point x="748" y="-128"/>
      <point x="695" y="-128" type="line"/>
      <point x="599" y="-128"/>
      <point x="554" y="-124" type="line"/>
      <point x="508" y="-123"/>
      <point x="484" y="-115" type="line"/>
      <point x="458" y="-110"/>
      <point x="444" y="-97" type="line"/>
      <point x="433" y="-83"/>
      <point x="433" y="-74" type="line"/>
      <point x="433" y="419" type="line"/>
      <point x="312" y="419" type="line"/>
      <point x="312" y="-46" type="line"/>
      <point x="312" y="-69"/>
      <point x="314" y="-76" type="line"/>
      <point x="316" y="-93"/>
      <point x="316" y="-105" type="line"/>
      <point x="316" y="-136"/>
      <point x="285" y="-136" type="line"/>
      <point x="261" y="-136"/>
      <point x="261" y="-120" type="line"/>
      <point x="261" y="-100"/>
      <point x="263" y="-67" type="line"/>
      <point x="265" y="-33"/>
      <point x="265" y="-7" type="line"/>
      <point x="265" y="419" type="line"/>
      <point x="148" y="419" type="line"/>
      <point x="148" y="259" type="line"/>
      <point x="148" y="195"/>
      <point x="143" y="141" type="line"/>
      <point x="140" y="92"/>
      <point x="131" y="42" type="line"/>
      <point x="124" y="1"/>
      <point x="111" y="-33" type="line"/>
      <point x="101" y="-65"/>
      <point x="83" y="-94" type="line"/>
      <point x="69" y="-118"/>
      <point x="42" y="-145" type="line"/>
      <point x="31" y="-136" type="line"/>
      <point x="45" y="-114"/>
      <point x="56" y="-88" type="line"/>
      <point x="66" y="-65"/>
      <point x="73" y="-39" type="line"/>
      <point x="82" y="-10"/>
      <point x="87" y="28" type="line"/>
      <point x="94" y="74"/>
      <point x="97" y="120" type="line"/>
      <point x="101" y="182"/>
      <point x="101" y="259" type="line"/>
      <point x="102" y="397"/>
    </contour>
    <contour>
      <point x="609" y="622" type="line"/>
      <point x="653" y="612"/>
      <point x="683" y="602" type="line"/>
      <point x="691" y="598"/>
      <point x="691" y="591" type="line"/>
      <point x="691" y="582"/>
      <point x="681" y="577" type="line"/>
      <point x="671" y="572"/>
      <point x="656" y="566" type="line"/>
      <point x="656" y="458" type="line"/>
      <point x="785" y="458" type="line"/>
      <point x="828" y="505" type="line"/>
      <point x="865" y="479"/>
      <point x="895" y="455" type="line"/>
      <point x="902" y="449"/>
      <point x="902" y="445" type="line"/>
      <point x="902" y="440"/>
      <point x="898" y="438" type="line"/>
      <point x="895" y="434"/>
      <point x="890" y="434" type="line"/>
      <point x="656" y="434" type="line"/>
      <point x="656" y="333" type="line"/>
      <point x="656" y="303"/>
      <point x="660" y="289" type="line"/>
      <point x="664" y="278"/>
      <point x="672" y="272" type="line"/>
      <point x="680" y="266"/>
      <point x="704" y="263" type="line"/>
      <point x="729" y="259"/>
      <point x="758" y="259" type="line"/>
      <point x="788" y="259"/>
      <point x="815" y="262" type="line"/>
      <point x="837" y="264"/>
      <point x="853" y="271" type="line"/>
      <point x="866" y="277"/>
      <point x="875" y="277" type="line"/>
      <point x="888" y="277"/>
      <point x="899" y="271" type="line"/>
      <point x="908" y="263"/>
      <point x="910" y="247" type="line"/>
      <point x="910" y="242"/>
      <point x="906" y="239" type="line"/>
      <point x="903" y="233"/>
      <point x="896" y="231" type="line"/>
      <point x="879" y="226"/>
      <point x="855" y="224" type="line"/>
      <point x="812" y="219"/>
      <point x="771" y="219" type="line"/>
      <point x="720" y="219"/>
      <point x="686" y="224" type="line"/>
      <point x="662" y="227"/>
      <point x="650" y="232" type="line"/>
      <point x="635" y="237"/>
      <point x="627" y="247" type="line"/>
      <point x="616" y="260"/>
      <point x="612" y="275" type="line"/>
      <point x="609" y="291"/>
      <point x="609" y="316" type="line"/>
      <point x="609" y="434" type="line"/>
      <point x="542" y="434" type="line"/>
      <point x="527" y="466" type="line"/>
      <point x="550" y="459"/>
      <point x="609" y="458" type="line"/>
    </contour>
    <contour>
      <point x="511" y="102" type="line"/>
      <point x="537" y="94"/>
      <point x="609" y="94" type="line"/>
      <point x="769" y="94" type="line"/>
      <point x="812" y="141" type="line"/>
      <point x="849" y="117"/>
      <point x="879" y="92" type="line"/>
      <point x="886" y="86"/>
      <point x="886" y="83" type="line"/>
      <point x="886" y="78"/>
      <point x="882" y="75" type="line"/>
      <point x="879" y="70"/>
      <point x="875" y="70" type="line"/>
      <point x="527" y="70" type="line"/>
    </contour>
  </outline>
</glyph>
<glyph name="u20024" format="2">
  <advance width="1000"/>
  <unicode hex="20024"/>
  <outline>
    <contour>
      <point x="50" y="-89" type="line"/>
      <point x="93" y="-102"/>
      <point x="164" y="-102" type="line"/>
      <point x="812" y="-102" type="line"/>
      <point x="863" y="-42" type="line"/>
      <point x="902" y="-72"/>
      <point x="936" y="-101" type="line"/>
      <point x="945" y="-105"/>
      <point x="945" y="-113" type="line"/>
      <point x="945" y="-128"/>
      <point x="929" y="-128" type="line"/>
      <point x="164" y="-128" type="line"/>
      <point x="95" y="-129"/>
      <point x="70" y="-132" type="line"/>
    </contour>
    <contour>
      <point x="488" y="512" type="line"/>
      <point x="530" y="501"/>
      <point x="601" y="501" type="line"/>
      <point x="650" y="501" type="line"/>
      <point x="652" y="552"/>
      <point x="652" y="608" type="line"/>
      <point x="652" y="720"/>
      <point x="648" y="755" type="line"/>
      <point x="696" y="751"/>
      <point x="723" y="744" type="line"/>
      <point x="739" y="740"/>
      <point x="738" y="730" type="line"/>
      <point x="739" y="722"/>
      <point x="726" y="717" type="line"/>
      <point x="714" y="712"/>
      <point x="699" y="704" type="line"/>
      <point x="699" y="579"/>
      <point x="696" y="501" type="line"/>
      <point x="792" y="501" type="line"/>
      <point x="843" y="559" type="line"/>
      <point x="882" y="529"/>
      <point x="916" y="502" type="line"/>
      <point x="925" y="496"/>
      <point x="925" y="489" type="line"/>
      <point x="925" y="473"/>
      <point x="910" y="473" type="line"/>
      <point x="695" y="473" type="line"/>
      <point x="695" y="466"/>
      <point x="694" y="459" type="line"/>
      <point x="702" y="396"/>
      <point x="717" y="343" type="line"/>
      <point x="735" y="274"/>
      <point x="757" y="224" type="line"/>
      <point x="779" y="180"/>
      <point x="807" y="140" type="line"/>
      <point x="834" y="104"/>
      <point x="869" y="72" type="line"/>
      <point x="905" y="42"/>
      <point x="953" y="20" type="line"/>
      <point x="953" y="5" type="line"/>
      <point x="912" y="0.0"/>
      <point x="894" y="-31" type="line"/>
      <point x="852" y="1"/>
      <point x="821" y="37" type="line"/>
      <point x="791" y="68"/>
      <point x="769" y="112" type="line"/>
      <point x="744" y="151"/>
      <point x="725" y="212" type="line"/>
      <point x="703" y="274"/>
      <point x="688" y="348" type="line"/>
      <point x="687" y="354"/>
      <point x="686" y="359" type="line"/>
      <point x="677" y="297"/>
      <point x="665" y="249" type="line"/>
      <point x="648" y="179"/>
      <point x="622" y="127" type="line"/>
      <point x="596" y="74"/>
      <point x="555" y="34" type="line"/>
      <point x="514" y="-14"/>
      <point x="460" y="-42" type="line"/>
      <point x="449" y="-23" type="line"/>
      <point x="504" y="17"/>
      <point x="536" y="61" type="line"/>
      <point x="567" y="101"/>
      <point x="589" y="154" type="line"/>
      <point x="609" y="199"/>
      <point x="625" y="268" type="line"/>
      <point x="637" y="328"/>
      <point x="644" y="406" type="line"/>
      <point x="647" y="437"/>
      <point x="649" y="473" type="line"/>
      <point x="601" y="473" type="line"/>
      <point x="532" y="472"/>
      <point x="507" y="469" type="line"/>
    </contour>
    <contour>
      <point x="58" y="497" type="line"/>
      <point x="101" y="484"/>
      <point x="171" y="484" type="line"/>
      <point x="235" y="484" type="line"/>
      <point x="238" y="540"/>
      <point x="238" y="599" type="line"/>
      <point x="238" y="709"/>
      <point x="234" y="743" type="line"/>
      <point x="282" y="739"/>
      <point x="309" y="731" type="line"/>
      <point x="325" y="729"/>
      <point x="324" y="719" type="line"/>
      <point x="325" y="711"/>
      <point x="312" y="705" type="line"/>
      <point x="300" y="700"/>
      <point x="285" y="691" type="line"/>
      <point x="285" y="564"/>
      <point x="282" y="484" type="line"/>
      <point x="367" y="484" type="line"/>
      <point x="414" y="540" type="line"/>
      <point x="451" y="512"/>
      <point x="483" y="484" type="line"/>
      <point x="492" y="479"/>
      <point x="492" y="473" type="line"/>
      <point x="492" y="458"/>
      <point x="476" y="458" type="line"/>
      <point x="281" y="458" type="line"/>
      <point x="279" y="424"/>
      <point x="277" y="399" type="line"/>
      <point x="271" y="339"/>
      <point x="262" y="292" type="line"/>
      <point x="326" y="258"/>
      <point x="364" y="224" type="line"/>
      <point x="402" y="193"/>
      <point x="420" y="163" type="line"/>
      <point x="433" y="143"/>
      <point x="433" y="122" type="line"/>
      <point x="433" y="91"/>
      <point x="414" y="91" type="line"/>
      <point x="402" y="91"/>
      <point x="393" y="97" type="line"/>
      <point x="384" y="103"/>
      <point x="374" y="125" type="line"/>
      <point x="348" y="177"/>
      <point x="320" y="210" type="line"/>
      <point x="296" y="237"/>
      <point x="257" y="268" type="line"/>
      <point x="255" y="256"/>
      <point x="252" y="245" type="line"/>
      <point x="237" y="176"/>
      <point x="212" y="124" type="line"/>
      <point x="187" y="72"/>
      <point x="148" y="32" type="line"/>
      <point x="109" y="-14"/>
      <point x="58" y="-42" type="line"/>
      <point x="46" y="-23" type="line"/>
      <point x="99" y="16"/>
      <point x="128" y="60" type="line"/>
      <point x="158" y="99"/>
      <point x="179" y="152" type="line"/>
      <point x="198" y="195"/>
      <point x="212" y="264" type="line"/>
      <point x="224" y="322"/>
      <point x="230" y="399" type="line"/>
      <point x="233" y="429"/>
      <point x="234" y="458" type="line"/>
      <point x="171" y="458" type="line"/>
      <point x="103" y="457"/>
      <point x="78" y="454" type="line"/>
    </contour>
  </outline>
</glyph>
<glyph name="u20025" format="2">
  <advance width="1000"/>
  <unicode hex="20025"/>
  <outline>
    <contour>
      <point x="58" y="704" type="line"/>
      <point x="101" y="691"/>
      <point x="171" y="691" type="line"/>
      <point x="816" y="691" type="line"/>
      <point x="863" y="747" type="line"/>
      <point x="900" y="719"/>
      <point x="933" y="691" type="line"/>
      <point x="941" y="687"/>
      <point x="941" y="680" type="line"/>
      <point x="941" y="665"/>
      <point x="925" y="665" type="line"/>
      <point x="171" y="665" type="line"/>
      <point x="103" y="664"/>
      <point x="78" y="661" type="line"/>
    </contour>
    <contour>
      <point x="398" y="594" type="line"/>
      <point x="457" y="551" type="line"/>
      <point x="765" y="551" type="line"/>
      <point x="796" y="594" type="line"/>
      <point x="832" y="573"/>
      <point x="848" y="553" type="line"/>
      <point x="855" y="546"/>
      <point x="855" y="540" type="line"/>
      <point x="855" y="531"/>
      <point x="820" y="509" type="line"/>
      <point x="820" y="184" type="line"/>
      <point x="820" y="111"/>
      <point x="822" y="89" type="line"/>
      <point x="824" y="61"/>
      <point x="824" y="44" type="line"/>
      <point x="824" y="29"/>
      <point x="813" y="21" type="line"/>
      <point x="800" y="16"/>
      <point x="792" y="16" type="line"/>
      <point x="773" y="16"/>
      <point x="773" y="27" type="line"/>
      <point x="773" y="70" type="line"/>
      <point x="449" y="70" type="line"/>
      <point x="449" y="27" type="line"/>
      <point x="449" y="16"/>
      <point x="429" y="16" type="line"/>
      <point x="421" y="16"/>
      <point x="408" y="21" type="line"/>
      <point x="398" y="29"/>
      <point x="398" y="44" type="line"/>
      <point x="398" y="61"/>
      <point x="400" y="89" type="line"/>
      <point x="406" y="111"/>
      <point x="406" y="184" type="line"/>
      <point x="406" y="527" type="line"/>
      <point x="406" y="565"/>
    </contour>
    <contour>
      <point x="449" y="98" type="line"/>
      <point x="773" y="98" type="line"/>
      <point x="773" y="305" type="line"/>
      <point x="449" y="305" type="line"/>
    </contour>
    <contour>
      <point x="449" y="333" type="line"/>
      <point x="773" y="333" type="line"/>
      <point x="773" y="523" type="line"/>
      <point x="449" y="523" type="line"/>
    </contour>
    <contour>
      <point x="42" y="-46" type="line"/>
      <point x="85" y="-59"/>
      <point x="156" y="-59" type="line"/>
      <point x="824" y="-59" type="line"/>
      <point x="871" y="-3" type="line"/>
      <point x="908" y="-31"/>
      <point x="940" y="-59" type="line"/>
      <point x="949" y="-63"/>
      <point x="949" y="-70" type="line"/>
      <point x="949" y="-85"/>
      <point x="933" y="-85" type="line"/>
      <point x="156" y="-85" type="line"/>
      <point x="87" y="-86"/>
      <point x="62" y="-89" type="line"/>
    </contour>
    <contour>
      <point x="152" y="594" type="line"/>
      <point x="204" y="589"/>
      <point x="237" y="576" type="line"/>
      <point x="250" y="570"/>
      <point x="250" y="563" type="line"/>
      <point x="250" y="554"/>
      <point x="237" y="551" type="line"/>
      <point x="220" y="542"/>
      <point x="199" y="540" type="line"/>
      <point x="199" y="91" type="line"/>
      <point x="199" y="69"/>
      <point x="201" y="63" type="line"/>
      <point x="203" y="47"/>
      <point x="203" y="36" type="line"/>
      <point x="203" y="9"/>
      <point x="175" y="9" type="line"/>
      <point x="152" y="9"/>
      <point x="152" y="23" type="line"/>
      <point x="152" y="43"/>
      <point x="154" y="72" type="line"/>
      <point x="156" y="103"/>
      <point x="156" y="126" type="line"/>
      <point x="156" y="523" type="line"/>
      <point x="156" y="572"/>
    </contour>
  </outline>
</glyph>
<glyph name="u20026" format="2">
  <advance width="1000"/>
  <unicode hex="20026"/>
  <outline>
    <contour>
      <point x="58" y="704" type="line"/>
      <point x="101" y="691"/>
      <point x="171" y="691" type="line"/>
      <point x="816" y="691" type="line"/>
      <point x="863" y="747" type="line"/>
      <point x="900" y="719"/>
      <point x="933" y="691" type="line"/>
      <point x="941" y="687"/>
      <point x="941" y="680" type="line"/>
      <point x="941" y="665"/>
      <point x="925" y="665" type="line"/>
      <point x="171" y="665" type="line"/>
      <point x="103" y="664"/>
      <point x="78" y="661" type="line"/>
    </contour>
    <contour>
      <point x="250" y="637" type="line"/>
      <point x="298" y="632"/>
      <point x="338" y="621" type="line"/>
      <point x="347" y="619"/>
      <point x="347" y="609" type="line"/>
      <point x="347" y="601"/>
      <point x="335" y="594" type="line"/>
      <point x="322" y="587"/>
      <point x="304" y="583" type="line"/>
      <point x="304" y="384" type="line"/>
      <point x="304" y="284"/>
      <point x="292" y="201" type="line"/>
      <point x="281" y="122"/>
      <point x="262" y="63" type="line"/>
      <point x="242" y="6"/>
      <point x="208" y="-48" type="line"/>
      <point x="173" y="-103"/>
      <point x="121" y="-148" type="line"/>
      <point x="105" y="-132" type="line"/>
      <point x="153" y="-79"/>
      <point x="180" y="-31" type="line"/>
      <point x="205" y="19"/>
      <point x="221" y="73" type="line"/>
      <point x="237" y="122"/>
      <point x="248" y="202" type="line"/>
      <point x="257" y="287"/>
      <point x="257" y="384" type="line"/>
      <point x="257" y="521" type="line"/>
      <point x="257" y="603"/>
    </contour>
    <contour>
      <point x="531" y="622" type="line"/>
      <point x="586" y="615"/>
      <point x="623" y="601" type="line"/>
      <point x="636" y="595"/>
      <point x="636" y="587" type="line"/>
      <point x="636" y="578"/>
      <point x="623" y="574" type="line"/>
      <point x="605" y="564"/>
      <point x="582" y="563" type="line"/>
      <point x="582" y="-20" type="line"/>
      <point x="582" y="-41"/>
      <point x="583" y="-49" type="line"/>
      <point x="585" y="-66"/>
      <point x="585" y="-77" type="line"/>
      <point x="585" y="-109"/>
      <point x="554" y="-109" type="line"/>
      <point x="531" y="-109"/>
      <point x="531" y="-93" type="line"/>
      <point x="531" y="-72"/>
      <point x="533" y="-40" type="line"/>
      <point x="535" y="-6"/>
      <point x="535" y="20" type="line"/>
      <point x="535" y="544" type="line"/>
      <point x="535" y="596"/>
    </contour>
    <contour>
      <point x="820" y="637" type="line"/>
      <point x="875" y="631"/>
      <point x="912" y="616" type="line"/>
      <point x="925" y="610"/>
      <point x="925" y="602" type="line"/>
      <point x="925" y="593"/>
      <point x="912" y="590" type="line"/>
      <point x="894" y="581"/>
      <point x="871" y="579" type="line"/>
      <point x="871" y="-55" type="line"/>
      <point x="871" y="-76"/>
      <point x="873" y="-84" type="line"/>
      <point x="875" y="-102"/>
      <point x="875" y="-113" type="line"/>
      <point x="875" y="-145"/>
      <point x="843" y="-145" type="line"/>
      <point x="820" y="-145"/>
      <point x="820" y="-128" type="line"/>
      <point x="820" y="-107"/>
      <point x="822" y="-75" type="line"/>
      <point x="824" y="-41"/>
      <point x="824" y="-16" type="line"/>
      <point x="824" y="559" type="line"/>
      <point x="824" y="611"/>
    </contour>
    <contour>
      <point x="640" y="387" type="line"/>
      <point x="678" y="362"/>
      <point x="706" y="336" type="line"/>
      <point x="735" y="313"/>
      <point x="751" y="295" type="line"/>
      <point x="768" y="278"/>
      <point x="775" y="267" type="line"/>
      <point x="781" y="256"/>
      <point x="785" y="246" type="line"/>
      <point x="789" y="237"/>
      <point x="789" y="227" type="line"/>
      <point x="788" y="195"/>
      <point x="765" y="195" type="line"/>
      <point x="759" y="195"/>
      <point x="754" y="200" type="line"/>
      <point x="749" y="206"/>
      <point x="731" y="242" type="line"/>
      <point x="712" y="278"/>
      <point x="690" y="308" type="line"/>
      <point x="667" y="338"/>
      <point x="628" y="376" type="line"/>
    </contour>
    <contour>
      <point x="363" y="387" type="line"/>
      <point x="393" y="361"/>
      <point x="416" y="335" type="line"/>
      <point x="440" y="311"/>
      <point x="454" y="293" type="line"/>
      <point x="467" y="275"/>
      <point x="473" y="264" type="line"/>
      <point x="478" y="253"/>
      <point x="481" y="243" type="line"/>
      <point x="484" y="233"/>
      <point x="484" y="223" type="line"/>
      <point x="483" y="191"/>
      <point x="460" y="191" type="line"/>
      <point x="456" y="191"/>
      <point x="452" y="197" type="line"/>
      <point x="447" y="202"/>
      <point x="433" y="239" type="line"/>
      <point x="418" y="276"/>
      <point x="400" y="306" type="line"/>
      <point x="382" y="337"/>
      <point x="351" y="376" type="line"/>
    </contour>
    <contour>
      <point x="164" y="426" type="line"/>
      <point x="179" y="423" type="line"/>
      <point x="174" y="365"/>
      <point x="164" y="316" type="line"/>
      <point x="156" y="271"/>
      <point x="142" y="234" type="line"/>
      <point x="128" y="193"/>
      <point x="115" y="176" type="line"/>
      <point x="106" y="159"/>
      <point x="96" y="149" type="line"/>
      <point x="87" y="141"/>
      <point x="82" y="141" type="line"/>
      <point x="59" y="141"/>
      <point x="58" y="161" type="line"/>
      <point x="58" y="174"/>
      <point x="63" y="186" type="line"/>
      <point x="68" y="200"/>
      <point x="89" y="229" type="line"/>
      <point x="115" y="267"/>
      <point x="128" y="300" type="line"/>
      <point x="144" y="331"/>
      <point x="153" y="368" type="line"/>
      <point x="160" y="397"/>
    </contour>
  </outline>
</glyph>
<glyph name="u20027" format="2">
  <advance width="1000"/>
  <unicode hex="20027"/>
  <outline>
    <contour>
      <point x="113" y="661" type="line"/>
      <point x="113" y="286" type="line"/>
      <point x="246" y="286" type="line"/>
      <point x="246" y="661" type="line"/>
    </contour>
    <contour>
      <point x="113" y="259" type="line"/>
      <point x="113" y="-31" type="line"/>
      <point x="113" y="-47"/>
      <point x="127" y="-60" type="line"/>
      <point x="154" y="-75"/>
      <point x="236" y="-82" type="line"/>
      <point x="336" y="-89"/>
      <point x="490" y="-89" type="line"/>
      <point x="629" y="-89"/>
      <point x="716" y="-84" type="line"/>
      <point x="774" y="-80"/>
      <point x="806" y="-75" type="line"/>
      <point x="833" y="-70"/>
      <point x="846" y="-60" type="line"/>
      <point x="861" y="-49"/>
      <point x="886" y="75" type="line"/>
      <point x="902" y="75" type="line"/>
      <point x="906" y="-7" type="line"/>
      <point x="907" y="-36"/>
      <point x="913" y="-40" type="line"/>
      <point x="916" y="-52"/>
      <point x="934" y="-58" type="line"/>
      <point x="945" y="-63"/>
      <point x="945" y="-77" type="line"/>
      <point x="945" y="-85"/>
      <point x="931" y="-92" type="line"/>
      <point x="907" y="-104"/>
      <point x="853" y="-111" type="line"/>
      <point x="790" y="-119"/>
      <point x="705" y="-123" type="line"/>
      <point x="603" y="-128"/>
      <point x="503" y="-128" type="line"/>
      <point x="339" y="-128"/>
      <point x="240" y="-120" type="line"/>
      <point x="141" y="-114"/>
      <point x="102" y="-96" type="line"/>
      <point x="66" y="-76"/>
      <point x="66" y="-31" type="line"/>
      <point x="66" y="727" type="line"/>
      <point x="128" y="688" type="line"/>
      <point x="421" y="688" type="line"/>
      <point x="453" y="730" type="line"/>
      <point x="488" y="710"/>
      <point x="504" y="689" type="line"/>
      <point x="511" y="682"/>
      <point x="511" y="676" type="line"/>
      <point x="511" y="667"/>
      <point x="472" y="645" type="line"/>
      <point x="472" y="291" type="line"/>
      <point x="480" y="285"/>
      <point x="487" y="279" type="line"/>
      <point x="492" y="277"/>
      <point x="492" y="273" type="line"/>
      <point x="492" y="259"/>
      <point x="484" y="259" type="line"/>
    </contour>
    <contour>
      <point x="292" y="286" type="line"/>
      <point x="429" y="286" type="line"/>
      <point x="429" y="661" type="line"/>
      <point x="292" y="661" type="line"/>
    </contour>
    <contour>
      <point x="484" y="169" type="line"/>
      <point x="526" y="157"/>
      <point x="597" y="157" type="line"/>
      <point x="824" y="157" type="line"/>
      <point x="871" y="212" type="line"/>
      <point x="908" y="184"/>
      <point x="940" y="157" type="line"/>
      <point x="949" y="151"/>
      <point x="949" y="145" type="line"/>
      <point x="949" y="130"/>
      <point x="933" y="130" type="line"/>
      <point x="597" y="130" type="line"/>
      <point x="528" y="129"/>
      <point x="503" y="126" type="line"/>
    </contour>
    <contour>
      <point x="550" y="426" type="line"/>
      <point x="593" y="415"/>
      <point x="664" y="415" type="line"/>
      <point x="773" y="415" type="line"/>
      <point x="816" y="462" type="line"/>
      <point x="851" y="437"/>
      <point x="882" y="414" type="line"/>
      <point x="890" y="409"/>
      <point x="890" y="402" type="line"/>
      <point x="890" y="387"/>
      <point x="878" y="387" type="line"/>
      <point x="664" y="387" type="line"/>
      <point x="595" y="386"/>
      <point x="570" y="384" type="line"/>
    </contour>
    <contour>
      <point x="523" y="673" type="line"/>
      <point x="565" y="661"/>
      <point x="636" y="661" type="line"/>
      <point x="804" y="661" type="line"/>
      <point x="851" y="712" type="line"/>
      <point x="886" y="685"/>
      <point x="917" y="660" type="line"/>
      <point x="925" y="656"/>
      <point x="925" y="648" type="line"/>
      <point x="925" y="634"/>
      <point x="914" y="634" type="line"/>
      <point x="636" y="634" type="line"/>
      <point x="567" y="633"/>
      <point x="542" y="630" type="line"/>
    </contour>
  </outline>
</glyph>
<glyph name="u20028" format="2">
  <advance width="1000"/>
  <unicode hex="20028"/>
  <outline>
    <contour>
      <point x="46" y="691" type="line"/>
      <point x="89" y="680"/>
      <point x="160" y="680" type="line"/>
      <point x="312" y="680" type="line"/>
      <point x="359" y="734" type="line"/>
      <point x="396" y="707"/>
      <point x="429" y="680" type="line"/>
      <point x="437" y="676"/>
      <point x="437" y="669" type="line"/>
      <point x="437" y="652"/>
      <point x="421" y="652" type="line"/>
      <point x="234" y="652" type="line"/>
      <point x="234" y="450" type="line"/>
      <point x="278" y="421"/>
      <point x="312" y="390" type="line"/>
      <point x="352" y="358"/>
      <point x="375" y="336" type="line"/>
      <point x="396" y="314"/>
      <point x="408" y="300" type="line"/>
      <point x="416" y="285"/>
      <point x="420" y="271" type="line"/>
      <point x="425" y="260"/>
      <point x="425" y="247" type="line"/>
      <point x="424" y="219"/>
      <point x="406" y="219" type="line"/>
      <point x="397" y="219"/>
      <point x="390" y="225" type="line"/>
      <point x="383" y="231"/>
      <point x="357" y="277" type="line"/>
      <point x="331" y="324"/>
      <point x="299" y="360" type="line"/>
      <point x="274" y="391"/>
      <point x="234" y="426" type="line"/>
      <point x="234" y="-59" type="line"/>
      <point x="234" y="-80"/>
      <point x="236" y="-88" type="line"/>
      <point x="238" y="-105"/>
      <point x="238" y="-116" type="line"/>
      <point x="238" y="-148"/>
      <point x="207" y="-148" type="line"/>
      <point x="183" y="-148"/>
      <point x="183" y="-132" type="line"/>
      <point x="183" y="-111"/>
      <point x="185" y="-79" type="line"/>
      <point x="187" y="-45"/>
      <point x="187" y="-20" type="line"/>
      <point x="187" y="652" type="line"/>
      <point x="160" y="652" type="line"/>
      <point x="91" y="651"/>
      <point x="66" y="648" type="line"/>
    </contour>
    <contour>
      <point x="519" y="676" type="line"/>
      <point x="486" y="675"/>
      <point x="476" y="673" type="line"/>
      <point x="460" y="712" type="line"/>
      <point x="499" y="704"/>
      <point x="570" y="704" type="line"/>
      <point x="761" y="704" type="line"/>
      <point x="796" y="734" type="line"/>
      <point x="823" y="712"/>
      <point x="842" y="691" type="line"/>
      <point x="847" y="686"/>
      <point x="847" y="680" type="line"/>
      <point x="847" y="669"/>
      <point x="831" y="662" type="line"/>
      <point x="815" y="656"/>
      <point x="800" y="652" type="line"/>
      <point x="780" y="540"/>
      <point x="752" y="419" type="line"/>
      <point x="832" y="419" type="line"/>
      <point x="875" y="458" type="line"/>
      <point x="910" y="431"/>
      <point x="933" y="410" type="line"/>
      <point x="941" y="403"/>
      <point x="941" y="395" type="line"/>
      <point x="941" y="388"/>
      <point x="925" y="380" type="line"/>
      <point x="909" y="369"/>
      <point x="886" y="364" type="line"/>
      <point x="850" y="234"/>
      <point x="816" y="163" type="line"/>
      <point x="786" y="90"/>
      <point x="758" y="50" type="line"/>
      <point x="749" y="38"/>
      <point x="741" y="27" type="line"/>
      <point x="778" y="-9"/>
      <point x="826" y="-43" type="line"/>
      <point x="881" y="-76"/>
      <point x="953" y="-102" type="line"/>
      <point x="953" y="-116" type="line"/>
      <point x="912" y="-121"/>
      <point x="894" y="-152" type="line"/>
      <point x="827" y="-115"/>
      <point x="777" y="-75" type="line"/>
      <point x="739" y="-46"/>
      <point x="708" y="-8" type="line"/>
      <point x="697" y="-21"/>
      <point x="687" y="-31" type="line"/>
      <point x="645" y="-71"/>
      <point x="602" y="-100" type="line"/>
      <point x="557" y="-131"/>
      <point x="500" y="-152" type="line"/>
      <point x="492" y="-136" type="line"/>
      <point x="562" y="-100"/>
      <point x="593" y="-70" type="line"/>
      <point x="625" y="-45"/>
      <point x="671" y="0.0" type="line"/>
      <point x="680" y="10"/>
      <point x="687" y="19" type="line"/>
      <point x="651" y="63"/>
      <point x="625" y="122" type="line"/>
      <point x="588" y="193"/>
      <point x="566" y="276" type="line"/>
      <point x="559" y="301"/>
      <point x="554" y="324" type="line"/>
      <point x="544" y="243"/>
      <point x="525" y="173" type="line"/>
      <point x="503" y="80"/>
      <point x="471" y="15" type="line"/>
      <point x="435" y="-63"/>
      <point x="371" y="-145" type="line"/>
      <point x="355" y="-124" type="line"/>
      <point x="410" y="-44"/>
      <point x="439" y="24" type="line"/>
      <point x="465" y="88"/>
      <point x="481" y="151" type="line"/>
      <point x="497" y="211"/>
      <point x="509" y="306" type="line"/>
      <point x="519" y="396"/>
      <point x="519" y="555" type="line"/>
    </contour>
    <contour>
      <point x="741" y="391" type="line"/>
      <point x="731" y="384"/>
      <point x="718" y="384" type="line"/>
      <point x="695" y="384"/>
      <point x="695" y="395" type="line"/>
      <point x="695" y="399"/>
      <point x="697" y="408" type="line"/>
      <point x="701" y="420"/>
      <point x="705" y="433" type="line"/>
      <point x="740" y="564"/>
      <point x="761" y="676" type="line"/>
      <point x="566" y="676" type="line"/>
      <point x="566" y="555" type="line"/>
      <point x="566" y="475"/>
      <point x="562" y="408" type="line"/>
      <point x="574" y="333"/>
      <point x="598" y="269" type="line"/>
      <point x="624" y="189"/>
      <point x="658" y="132" type="line"/>
      <point x="683" y="93"/>
      <point x="714" y="57" type="line"/>
      <point x="728" y="77"/>
      <point x="741" y="99" type="line"/>
      <point x="767" y="148"/>
      <point x="793" y="223" type="line"/>
      <point x="820" y="293"/>
      <point x="839" y="391" type="line"/>
    </contour>
  </outline>
</glyph>
<glyph name="u20029" format="2">
  <advance width="1000"/>
  <unicode hex="20029"/>
  <outline>
    <contour>
      <point x="542" y="695" type="line"/>
      <point x="585" y="684"/>
      <point x="656" y="684" type="line"/>
      <point x="835" y="684" type="line"/>
      <point x="882" y="739" type="line"/>
      <point x="921" y="711"/>
      <point x="956" y="684" type="line"/>
      <point x="964" y="679"/>
      <point x="964" y="673" type="line"/>
      <point x="964" y="657"/>
      <point x="949" y="657" type="line"/>
      <point x="769" y="657" type="line"/>
      <point x="769" y="-70" type="line"/>
      <point x="769" y="-104"/>
      <point x="754" y="-120" type="line"/>
      <point x="741" y="-136"/>
      <point x="718" y="-146" type="line"/>
      <point x="698" y="-156"/>
      <point x="683" y="-156" type="line"/>
      <point x="681" y="-143" type="line"/>
      <point x="679" y="-129"/>
      <point x="672" y="-123" type="line"/>
      <point x="661" y="-111"/>
      <point x="631" y="-103" type="line"/>
      <point x="599" y="-92"/>
      <point x="558" y="-89" type="line"/>
      <point x="558" y="-66" type="line"/>
      <point x="623" y="-81"/>
      <point x="675" y="-81" type="line"/>
      <point x="704" y="-81"/>
      <point x="712" y="-75" type="line"/>
      <point x="722" y="-69"/>
      <point x="722" y="-46" type="line"/>
      <point x="722" y="657" type="line"/>
      <point x="656" y="657" type="line"/>
      <point x="587" y="656"/>
      <point x="562" y="652" type="line"/>
    </contour>
    <contour>
      <point x="35" y="329" type="line"/>
      <point x="77" y="316"/>
      <point x="148" y="316" type="line"/>
      <point x="460" y="316" type="line"/>
      <point x="503" y="364" type="line"/>
      <point x="539" y="340"/>
      <point x="569" y="315" type="line"/>
      <point x="578" y="311"/>
      <point x="578" y="305" type="line"/>
      <point x="578" y="290"/>
      <point x="566" y="290" type="line"/>
      <point x="237" y="290" type="line"/>
      <point x="183" y="137" type="line"/>
      <point x="425" y="137" type="line"/>
      <point x="460" y="169" type="line"/>
      <point x="493" y="149"/>
      <point x="511" y="134" type="line"/>
      <point x="519" y="126"/>
      <point x="519" y="122" type="line"/>
      <point x="519" y="109"/>
      <point x="480" y="94" type="line"/>
      <point x="474" y="22"/>
      <point x="462" y="-26" type="line"/>
      <point x="451" y="-78"/>
      <point x="438" y="-103" type="line"/>
      <point x="426" y="-123"/>
      <point x="411" y="-134" type="line"/>
      <point x="395" y="-146"/>
      <point x="377" y="-153" type="line"/>
      <point x="361" y="-159"/>
      <point x="351" y="-159" type="line"/>
      <point x="351" y="-142"/>
      <point x="342" y="-131" type="line"/>
      <point x="331" y="-117"/>
      <point x="222" y="-85" type="line"/>
      <point x="226" y="-66" type="line"/>
      <point x="326" y="-98"/>
      <point x="359" y="-98" type="line"/>
      <point x="370" y="-98"/>
      <point x="378" y="-94" type="line"/>
      <point x="385" y="-92"/>
      <point x="391" y="-84" type="line"/>
      <point x="398" y="-75"/>
      <point x="407" y="-55" type="line"/>
      <point x="416" y="-33"/>
      <point x="422" y="7" type="line"/>
      <point x="429" y="46"/>
      <point x="433" y="109" type="line"/>
      <point x="167" y="109" type="line"/>
      <point x="166" y="108" type="line"/>
      <point x="150" y="102"/>
      <point x="140" y="102" type="line"/>
      <point x="121" y="102"/>
      <point x="121" y="109" type="line"/>
      <point x="121" y="114"/>
      <point x="123" y="118" type="line"/>
      <point x="132" y="135"/>
      <point x="151" y="195" type="line"/>
      <point x="182" y="290" type="line"/>
      <point x="148" y="290" type="line"/>
      <point x="79" y="289"/>
      <point x="54" y="286" type="line"/>
    </contour>
    <contour>
      <point x="66" y="700" type="line"/>
      <point x="108" y="688"/>
      <point x="179" y="688" type="line"/>
      <point x="417" y="688" type="line"/>
      <point x="460" y="734" type="line"/>
      <point x="494" y="711"/>
      <point x="523" y="687" type="line"/>
      <point x="531" y="682"/>
      <point x="531" y="676" type="line"/>
      <point x="531" y="661"/>
      <point x="519" y="661" type="line"/>
      <point x="386" y="661" type="line"/>
      <point x="386" y="469" type="line"/>
      <point x="386" y="456"/>
      <point x="390" y="447" type="line"/>
      <point x="392" y="438"/>
      <point x="400" y="434" type="line"/>
      <point x="411" y="430"/>
      <point x="439" y="430" type="line"/>
      <point x="458" y="430"/>
      <point x="475" y="433" type="line"/>
      <point x="481" y="434"/>
      <point x="484" y="439" type="line"/>
      <point x="487" y="444"/>
      <point x="489" y="457" type="line"/>
      <point x="492" y="473"/>
      <point x="496" y="536" type="line"/>
      <point x="511" y="532" type="line"/>
      <point x="511" y="484" type="line"/>
      <point x="511" y="468"/>
      <point x="517" y="459" type="line"/>
      <point x="525" y="447"/>
      <point x="539" y="440" type="line"/>
      <point x="546" y="436"/>
      <point x="546" y="426" type="line"/>
      <point x="546" y="424"/>
      <point x="544" y="417" type="line"/>
      <point x="540" y="407"/>
      <point x="530" y="401" type="line"/>
      <point x="518" y="394"/>
      <point x="495" y="392" type="line"/>
      <point x="470" y="387"/>
      <point x="450" y="387" type="line"/>
      <point x="409" y="387"/>
      <point x="390" y="391" type="line"/>
      <point x="371" y="392"/>
      <point x="361" y="399" type="line"/>
      <point x="350" y="406"/>
      <point x="344" y="420" type="line"/>
      <point x="339" y="433"/>
      <point x="339" y="441" type="line"/>
      <point x="339" y="661" type="line"/>
      <point x="246" y="661" type="line"/>
      <point x="245" y="625"/>
      <point x="241" y="596" type="line"/>
      <point x="237" y="558"/>
      <point x="229" y="535" type="line"/>
      <point x="220" y="504"/>
      <point x="206" y="479" type="line"/>
      <point x="190" y="454"/>
      <point x="174" y="435" type="line"/>
      <point x="153" y="413"/>
      <point x="125" y="396" type="line"/>
      <point x="100" y="380"/>
      <point x="66" y="368" type="line"/>
      <point x="54" y="387" type="line"/>
      <point x="97" y="408"/>
      <point x="118" y="428" type="line"/>
      <point x="138" y="445"/>
      <point x="153" y="470" type="line"/>
      <point x="169" y="494"/>
      <point x="178" y="523" type="line"/>
      <point x="187" y="548"/>
      <point x="191" y="584" type="line"/>
      <point x="195" y="611"/>
      <point x="195" y="661" type="line"/>
      <point x="179" y="661" type="line"/>
      <point x="110" y="660"/>
      <point x="85" y="657" type="line"/>
    </contour>
  </outline>
</glyph>
<glyph name="u2002A" format="2">
  <advance width="1000"/>
  <unicode hex="2002A"/>
  <outline>
    <contour>
      <point x="85" y="614" type="line"/>
      <point x="128" y="602"/>
      <point x="199" y="602" type="line"/>
      <point x="289" y="602" type="line"/>
      <point x="289" y="676" type="line"/>
      <point x="289" y="729"/>
      <point x="285" y="755" type="line"/>
      <point x="340" y="748"/>
      <point x="377" y="733" type="line"/>
      <point x="390" y="728"/>
      <point x="390" y="719" type="line"/>
      <point x="390" y="711"/>
      <point x="377" y="707" type="line"/>
      <point x="359" y="698"/>
      <point x="335" y="695" type="line"/>
      <point x="335" y="602" type="line"/>
      <point x="656" y="602" type="line"/>
      <point x="656" y="676" type="line"/>
      <point x="656" y="729"/>
      <point x="652" y="755" type="line"/>
      <point x="708" y="748"/>
      <point x="744" y="733" type="line"/>
      <point x="757" y="728"/>
      <point x="757" y="719" type="line"/>
      <point x="757" y="711"/>
      <point x="744" y="707" type="line"/>
      <point x="726" y="698"/>
      <point x="703" y="695" type="line"/>
      <point x="703" y="602" type="line"/>
      <point x="781" y="602" type="line"/>
      <point x="832" y="661" type="line"/>
      <point x="871" y="632"/>
      <point x="905" y="603" type="line"/>
      <point x="914" y="598"/>
      <point x="914" y="591" type="line"/>
      <point x="914" y="575"/>
      <point x="898" y="575" type="line"/>
      <point x="703" y="575" type="line"/>
      <point x="703" y="122" type="line"/>
      <point x="820" y="122" type="line"/>
      <point x="875" y="184" type="line"/>
      <point x="915" y="152"/>
      <point x="951" y="123" type="line"/>
      <point x="960" y="117"/>
      <point x="960" y="109" type="line"/>
      <point x="960" y="94"/>
      <point x="945" y="94" type="line"/>
      <point x="160" y="94" type="line"/>
      <point x="91" y="93"/>
      <point x="66" y="91" type="line"/>
      <point x="46" y="134" type="line"/>
      <point x="89" y="122"/>
      <point x="160" y="122" type="line"/>
      <point x="289" y="122" type="line"/>
      <point x="289" y="575" type="line"/>
      <point x="199" y="575" type="line"/>
      <point x="130" y="574"/>
      <point x="105" y="570" type="line"/>
    </contour>
    <contour>
      <point x="335" y="122" type="line"/>
      <point x="656" y="122" type="line"/>
      <point x="656" y="262" type="line"/>
      <point x="335" y="262" type="line"/>
    </contour>
    <contour>
      <point x="335" y="290" type="line"/>
      <point x="656" y="290" type="line"/>
      <point x="656" y="423" type="line"/>
      <point x="335" y="423" type="line"/>
    </contour>
    <contour>
      <point x="335" y="450" type="line"/>
      <point x="656" y="450" type="line"/>
      <point x="656" y="575" type="line"/>
      <point x="335" y="575" type="line"/>
    </contour>
    <contour>
      <point x="589" y="55" type="line"/>
      <point x="656" y="37"/>
      <point x="723" y="9" type="line"/>
      <point x="789" y="-22"/>
      <point x="822" y="-44" type="line"/>
      <point x="856" y="-67"/>
      <point x="868" y="-82" type="line"/>
      <point x="881" y="-99"/>
      <point x="889" y="-114" type="line"/>
      <point x="894" y="-126"/>
      <point x="894" y="-141" type="line"/>
      <point x="894" y="-156"/>
      <point x="882" y="-156" type="line"/>
      <point x="875" y="-156"/>
      <point x="863" y="-146" type="line"/>
      <point x="852" y="-139"/>
      <point x="835" y="-121" type="line"/>
      <point x="807" y="-94"/>
      <point x="783" y="-76" type="line"/>
      <point x="753" y="-55"/>
      <point x="710" y="-29" type="line"/>
      <point x="664" y="2"/>
      <point x="582" y="44" type="line"/>
    </contour>
  </outline>
</glyph>
<glyph name="u2002B" format="2">
  <advance width="1000"/>
  <unicode hex="2002B"/>
  <outline>
    <contour>
      <point x="82" y="614" type="line"/>
      <point x="124" y="602"/>
      <point x="195" y="602" type="line"/>
      <point x="289" y="602" type="line"/>
      <point x="289" y="676" type="line"/>
      <point x="289" y="729"/>
      <point x="285" y="755" type="line"/>
      <point x="340" y="748"/>
      <point x="377" y="733" type="line"/>
      <point x="390" y="728"/>
      <point x="390" y="719" type="line"/>
      <point x="390" y="711"/>
      <point x="377" y="707" type="line"/>
      <point x="359" y="698"/>
      <point x="335" y="695" type="line"/>
      <point x="335" y="602" type="line"/>
      <point x="656" y="602" type="line"/>
      <point x="656" y="676" type="line"/>
      <point x="656" y="729"/>
      <point x="652" y="755" type="line"/>
      <point x="708" y="748"/>
      <point x="744" y="733" type="line"/>
      <point x="757" y="728"/>
      <point x="757" y="719" type="line"/>
      <point x="757" y="711"/>
      <point x="744" y="707" type="line"/>
      <point x="726" y="698"/>
      <point x="703" y="695" type="line"/>
      <point x="703" y="602" type="line"/>
      <point x="789" y="602" type="line"/>
      <point x="835" y="657" type="line"/>
      <point x="875" y="629"/>
      <point x="909" y="602" type="line"/>
      <point x="917" y="597"/>
      <point x="917" y="591" type="line"/>
      <point x="917" y="575"/>
      <point x="902" y="575" type="line"/>
      <point x="703" y="575" type="line"/>
      <point x="703" y="122" type="line"/>
      <point x="820" y="122" type="line"/>
      <point x="871" y="180" type="line"/>
      <point x="911" y="150"/>
      <point x="947" y="123" type="line"/>
      <point x="957" y="117"/>
      <point x="957" y="109" type="line"/>
      <point x="957" y="94"/>
      <point x="941" y="94" type="line"/>
      <point x="160" y="94" type="line"/>
      <point x="91" y="93"/>
      <point x="66" y="91" type="line"/>
      <point x="46" y="134" type="line"/>
      <point x="89" y="122"/>
      <point x="160" y="122" type="line"/>
      <point x="289" y="122" type="line"/>
      <point x="289" y="575" type="line"/>
      <point x="195" y="575" type="line"/>
      <point x="126" y="574"/>
      <point x="101" y="570" type="line"/>
    </contour>
    <contour>
      <point x="335" y="122" type="line"/>
      <point x="656" y="122" type="line"/>
      <point x="656" y="262" type="line"/>
      <point x="335" y="262" type="line"/>
    </contour>
    <contour>
      <point x="335" y="290" type="line"/>
      <point x="656" y="290" type="line"/>
      <point x="656" y="423" type="line"/>
      <point x="335" y="423" type="line"/>
    </contour>
    <contour>
      <point x="335" y="450" type="line"/>
      <point x="656" y="450" type="line"/>
      <point x="656" y="575" type="line"/>
      <point x="335" y="575" type="line"/>
    </contour>
    <contour>
      <point x="390" y="9" type="line"/>
      <point x="342" y="-32"/>
      <point x="289" y="-58" type="line"/>
      <point x="238" y="-89"/>
      <point x="187" y="-110" type="line"/>
      <point x="126" y="-136"/>
      <point x="66" y="-152" type="line"/>
      <point x="54" y="-128" type="line"/>
      <point x="145" y="-94"/>
      <point x="206" y="-60" type="line"/>
      <point x="269" y="-27"/>
      <point x="306" y="3" type="line"/>
      <point x="341" y="34"/>
      <point x="367" y="70" type="line"/>
      <point x="408" y="48"/>
      <point x="437" y="27" type="line"/>
      <point x="441" y="23"/>
      <point x="441" y="16" type="line"/>
      <point x="441" y="9"/>
      <point x="421" y="9" type="line"/>
    </contour>
  </outline>
</glyph>
<glyph name="u2002C" format="2">
  <advance width="1000"/>
  <unicode hex="2002C"/>
  <outline>
    <contour>
      <point x="46" y="708" type="line"/>
      <point x="89" y="695"/>
      <point x="160" y="695" type="line"/>
      <point x="812" y="695" type="line"/>
      <point x="863" y="755" type="line"/>
      <point x="903" y="725"/>
      <point x="939" y="697" type="line"/>
      <point x="949" y="691"/>
      <point x="949" y="684" type="line"/>
      <point x="949" y="669"/>
      <point x="933" y="669" type="line"/>
      <point x="523" y="669" type="line"/>
      <point x="522" y="570"/>
      <point x="511" y="514" type="line"/>
      <point x="509" y="505"/>
      <point x="507" y="497" type="line"/>
      <point x="812" y="497" type="line"/>
      <point x="839" y="527" type="line"/>
      <point x="890" y="497"/>
      <point x="890" y="484" type="line"/>
      <point x="890" y="475"/>
      <point x="863" y="458" type="line"/>
      <point x="863" y="-124" type="line"/>
      <point x="863" y="-143"/>
      <point x="832" y="-148" type="line"/>
      <point x="816" y="-148"/>
      <point x="816" y="-141" type="line"/>
      <point x="816" y="-93" type="line"/>
      <point x="156" y="-93" type="line"/>
      <point x="156" y="-136" type="line"/>
      <point x="156" y="-148"/>
      <point x="140" y="-148" type="line"/>
      <point x="130" y="-148"/>
      <point x="116" y="-143" type="line"/>
      <point x="105" y="-132"/>
      <point x="105" y="-116" type="line"/>
      <point x="105" y="-99"/>
      <point x="106" y="-68" type="line"/>
      <point x="109" y="-43"/>
      <point x="109" y="36" type="line"/>
      <point x="109" y="473" type="line"/>
      <point x="109" y="514"/>
      <point x="105" y="544" type="line"/>
      <point x="167" y="497" type="line"/>
      <point x="454" y="497" type="line"/>
      <point x="459" y="520"/>
      <point x="462" y="546" type="line"/>
      <point x="468" y="589"/>
      <point x="468" y="669" type="line"/>
      <point x="160" y="669" type="line"/>
      <point x="91" y="668"/>
      <point x="66" y="665" type="line"/>
    </contour>
    <contour>
      <point x="156" y="-66" type="line"/>
      <point x="816" y="-66" type="line"/>
      <point x="816" y="469" type="line"/>
      <point x="499" y="469" type="line"/>
      <point x="494" y="454"/>
      <point x="489" y="441" type="line"/>
      <point x="538" y="422"/>
      <point x="579" y="399" type="line"/>
      <point x="632" y="374"/>
      <point x="666" y="351" type="line"/>
      <point x="692" y="335"/>
      <point x="714" y="317" type="line"/>
      <point x="722" y="311"/>
      <point x="729" y="301" type="line"/>
      <point x="735" y="292"/>
      <point x="737" y="284" type="line"/>
      <point x="742" y="276"/>
      <point x="742" y="266" type="line"/>
      <point x="742" y="239"/>
      <point x="722" y="239" type="line"/>
      <point x="720" y="239"/>
      <point x="713" y="245" type="line"/>
      <point x="703" y="258"/>
      <point x="681" y="278" type="line"/>
      <point x="662" y="299"/>
      <point x="626" y="325" type="line"/>
      <point x="592" y="352"/>
      <point x="542" y="380" type="line"/>
      <point x="507" y="401"/>
      <point x="474" y="416" type="line"/>
      <point x="473" y="413"/>
      <point x="472" y="412" type="line"/>
      <point x="444" y="366"/>
      <point x="409" y="334" type="line"/>
      <point x="367" y="299"/>
      <point x="326" y="273" type="line"/>
      <point x="284" y="251"/>
      <point x="226" y="230" type="line"/>
      <point x="214" y="251" type="line"/>
      <point x="262" y="271"/>
      <point x="297" y="292" type="line"/>
      <point x="329" y="312"/>
      <point x="357" y="336" type="line"/>
      <point x="384" y="362"/>
      <point x="409" y="395" type="line"/>
      <point x="430" y="424"/>
      <point x="444" y="461" type="line"/>
      <point x="446" y="465"/>
      <point x="446" y="469" type="line"/>
      <point x="156" y="469" type="line"/>
    </contour>
    <contour>
      <point x="448" y="139" type="line"/>
      <point x="431" y="115"/>
      <point x="411" y="94" type="line"/>
      <point x="372" y="57"/>
      <point x="333" y="33" type="line"/>
      <point x="288" y="5"/>
      <point x="218" y="-20" type="line"/>
      <point x="203" y="5" type="line"/>
      <point x="273" y="33"/>
      <point x="314" y="62" type="line"/>
      <point x="351" y="87"/>
      <point x="381" y="123" type="line"/>
      <point x="412" y="159"/>
      <point x="432" y="206" type="line"/>
      <point x="449" y="246"/>
      <point x="449" y="282" type="line"/>
      <point x="449" y="304"/>
      <point x="445" y="320" type="line"/>
      <point x="493" y="313"/>
      <point x="530" y="303" type="line"/>
      <point x="542" y="300"/>
      <point x="542" y="290" type="line"/>
      <point x="542" y="282"/>
      <point x="525" y="271" type="line"/>
      <point x="506" y="262"/>
      <point x="496" y="259" type="line"/>
      <point x="489" y="211"/>
      <point x="469" y="174" type="line"/>
      <point x="466" y="168"/>
      <point x="464" y="165" type="line"/>
      <point x="518" y="145"/>
      <point x="563" y="123" type="line"/>
      <point x="622" y="97"/>
      <point x="659" y="74" type="line"/>
      <point x="687" y="58"/>
      <point x="711" y="41" type="line"/>
      <point x="720" y="34"/>
      <point x="728" y="23" type="line"/>
      <point x="734" y="15"/>
      <point x="737" y="7" type="line"/>
      <point x="742" y="-1"/>
      <point x="742" y="-11" type="line"/>
      <point x="742" y="-38"/>
      <point x="722" y="-38" type="line"/>
      <point x="720" y="-38"/>
      <point x="712" y="-32" type="line"/>
      <point x="701" y="-20"/>
      <point x="677" y="1" type="line"/>
      <point x="656" y="21"/>
      <point x="616" y="48" type="line"/>
      <point x="579" y="74"/>
      <point x="524" y="102" type="line"/>
      <point x="484" y="125"/>
    </contour>
  </outline>
</glyph>
<glyph name="u2002D" format="2">
  <advance width="1000"/>
  <unicode hex="2002D"/>
  <outline>
    <contour>
      <point x="800" y="708" type="line"/>
      <point x="711" y="692"/>
      <point x="616" y="680" type="line"/>
      <point x="565" y="674"/>
      <point x="515" y="670" type="line"/>
      <point x="515" y="497" type="line"/>
      <point x="641" y="497" type="line"/>
      <point x="662" y="517"/>
      <point x="677" y="534" type="line"/>
      <point x="691" y="552"/>
      <point x="705" y="574" type="line"/>
      <point x="719" y="597"/>
      <point x="729" y="616" type="line"/>
      <point x="737" y="635"/>
      <point x="742" y="657" type="line"/>
      <point x="790" y="640"/>
      <point x="825" y="623" type="line"/>
      <point x="832" y="616"/>
      <point x="832" y="609" type="line"/>
      <point x="832" y="601"/>
      <point x="812" y="598" type="line"/>
      <point x="791" y="594"/>
      <point x="781" y="594" type="line"/>
      <point x="765" y="570"/>
      <point x="744" y="549" type="line"/>
      <point x="725" y="527"/>
      <point x="703" y="511" type="line"/>
      <point x="693" y="504"/>
      <point x="682" y="497" type="line"/>
      <point x="820" y="497" type="line"/>
      <point x="867" y="551" type="line"/>
      <point x="906" y="523"/>
      <point x="940" y="497" type="line"/>
      <point x="949" y="492"/>
      <point x="949" y="484" type="line"/>
      <point x="949" y="469"/>
      <point x="933" y="469" type="line"/>
      <point x="515" y="469" type="line"/>
      <point x="515" y="443" type="line"/>
      <point x="605" y="428"/>
      <point x="693" y="403" type="line"/>
      <point x="788" y="376"/>
      <point x="835" y="356" type="line"/>
      <point x="883" y="336"/>
      <point x="899" y="322" type="line"/>
      <point x="918" y="307"/>
      <point x="930" y="294" type="line"/>
      <point x="937" y="283"/>
      <point x="937" y="270" type="line"/>
      <point x="937" y="251"/>
      <point x="921" y="251" type="line"/>
      <point x="911" y="251"/>
      <point x="895" y="260" type="line"/>
      <point x="878" y="266"/>
      <point x="854" y="282" type="line"/>
      <point x="815" y="306"/>
      <point x="781" y="322" type="line"/>
      <point x="738" y="342"/>
      <point x="678" y="364" type="line"/>
      <point x="617" y="391"/>
      <point x="515" y="424" type="line"/>
      <point x="515" y="247" type="line"/>
      <point x="515" y="229"/>
      <point x="480" y="227" type="line"/>
      <point x="468" y="227"/>
      <point x="468" y="243" type="line"/>
      <point x="468" y="443" type="line"/>
      <point x="447" y="424"/>
      <point x="423" y="406" type="line"/>
      <point x="378" y="372"/>
      <point x="322" y="343" type="line"/>
      <point x="273" y="315"/>
      <point x="211" y="289" type="line"/>
      <point x="148" y="264"/>
      <point x="58" y="234" type="line"/>
      <point x="42" y="255" type="line"/>
      <point x="131" y="285"/>
      <point x="192" y="313" type="line"/>
      <point x="253" y="340"/>
      <point x="302" y="372" type="line"/>
      <point x="348" y="397"/>
      <point x="381" y="428" type="line"/>
      <point x="408" y="451"/>
      <point x="423" y="469" type="line"/>
      <point x="164" y="469" type="line"/>
      <point x="95" y="468"/>
      <point x="70" y="466" type="line"/>
      <point x="50" y="509" type="line"/>
      <point x="93" y="497"/>
      <point x="164" y="497" type="line"/>
      <point x="277" y="497" type="line"/>
      <point x="275" y="502"/>
      <point x="274" y="508" type="line"/>
      <point x="270" y="526"/>
      <point x="259" y="545" type="line"/>
      <point x="250" y="563"/>
      <point x="238" y="579" type="line"/>
      <point x="227" y="595"/>
      <point x="207" y="614" type="line"/>
      <point x="222" y="626" type="line"/>
      <point x="245" y="610"/>
      <point x="262" y="595" type="line"/>
      <point x="282" y="581"/>
      <point x="294" y="566" type="line"/>
      <point x="307" y="554"/>
      <point x="312" y="543" type="line"/>
      <point x="316" y="534"/>
      <point x="316" y="523" type="line"/>
      <point x="316" y="507"/>
      <point x="311" y="497" type="line"/>
      <point x="468" y="497" type="line"/>
      <point x="468" y="666" type="line"/>
      <point x="423" y="662"/>
      <point x="380" y="659" type="line"/>
      <point x="280" y="652"/>
      <point x="128" y="648" type="line"/>
      <point x="125" y="669" type="line"/>
      <point x="207" y="672"/>
      <point x="299" y="679" type="line"/>
      <point x="386" y="686"/>
      <point x="468" y="698" type="line"/>
      <point x="555" y="709"/>
      <point x="617" y="721" type="line"/>
      <point x="678" y="731"/>
      <point x="719" y="745" type="line"/>
      <point x="752" y="755"/>
      <point x="781" y="766" type="line"/>
      <point x="816" y="745"/>
      <point x="842" y="723" type="line"/>
      <point x="847" y="719"/>
      <point x="847" y="716" type="line"/>
      <point x="847" y="704"/>
      <point x="835" y="704" type="line"/>
      <point x="822" y="704"/>
    </contour>
    <contour>
      <point x="816" y="234" type="line"/>
      <point x="849" y="217"/>
      <point x="867" y="200" type="line"/>
      <point x="875" y="191"/>
      <point x="875" y="188" type="line"/>
      <point x="875" y="176"/>
      <point x="835" y="161" type="line"/>
      <point x="829" y="72"/>
      <point x="815" y="10" type="line"/>
      <point x="801" y="-55"/>
      <point x="787" y="-84" type="line"/>
      <point x="771" y="-111"/>
      <point x="754" y="-123" type="line"/>
      <point x="735" y="-139"/>
      <point x="714" y="-148" type="line"/>
      <point x="695" y="-156"/>
      <point x="683" y="-156" type="line"/>
      <point x="683" y="-140"/>
      <point x="676" y="-130" type="line"/>
      <point x="667" y="-118"/>
      <point x="585" y="-89" type="line"/>
      <point x="589" y="-70" type="line"/>
      <point x="666" y="-93"/>
      <point x="691" y="-93" type="line"/>
      <point x="705" y="-93"/>
      <point x="717" y="-89" type="line"/>
      <point x="726" y="-87"/>
      <point x="733" y="-76" type="line"/>
      <point x="743" y="-65"/>
      <point x="755" y="-38" type="line"/>
      <point x="766" y="-11"/>
      <point x="774" y="42" type="line"/>
      <point x="784" y="93"/>
      <point x="789" y="176" type="line"/>
      <point x="269" y="176" type="line"/>
      <point x="191" y="176"/>
      <point x="175" y="173" type="line"/>
      <point x="160" y="212" type="line"/>
      <point x="198" y="204"/>
      <point x="269" y="204" type="line"/>
      <point x="781" y="204" type="line"/>
    </contour>
  </outline>
</glyph>
<glyph name="u2002E" format="2">
  <advance width="1000"/>
  <unicode hex="2002E"/>
  <outline>
    <contour>
      <point x="46" y="700" type="line"/>
      <point x="89" y="688"/>
      <point x="160" y="688" type="line"/>
      <point x="812" y="688" type="line"/>
      <point x="863" y="747" type="line"/>
      <point x="903" y="718"/>
      <point x="939" y="688" type="line"/>
      <point x="949" y="684"/>
      <point x="949" y="676" type="line"/>
      <point x="949" y="661"/>
      <point x="933" y="661" type="line"/>
      <point x="160" y="661" type="line"/>
      <point x="91" y="660"/>
      <point x="66" y="657" type="line"/>
    </contour>
    <contour>
      <point x="150" y="465" type="line"/>
      <point x="116" y="451"/>
      <point x="78" y="438" type="line"/>
      <point x="66" y="450" type="line"/>
      <point x="127" y="479"/>
      <point x="169" y="504" type="line"/>
      <point x="211" y="529"/>
      <point x="246" y="556" type="line"/>
      <point x="283" y="585"/>
      <point x="306" y="608" type="line"/>
      <point x="327" y="633"/>
      <point x="335" y="652" type="line"/>
      <point x="376" y="635"/>
      <point x="404" y="616" type="line"/>
      <point x="410" y="611"/>
      <point x="410" y="605" type="line"/>
      <point x="410" y="600"/>
      <point x="400" y="597" type="line"/>
      <point x="384" y="592"/>
      <point x="371" y="591" type="line"/>
      <point x="345" y="569"/>
      <point x="315" y="549" type="line"/>
      <point x="283" y="527"/>
      <point x="247" y="510" type="line"/>
      <point x="215" y="492"/>
      <point x="169" y="473" type="line"/>
      <point x="167" y="472"/>
      <point x="166" y="472" type="line"/>
      <point x="210" y="438" type="line"/>
      <point x="804" y="438" type="line"/>
      <point x="832" y="469" type="line"/>
      <point x="882" y="438"/>
      <point x="882" y="426" type="line"/>
      <point x="882" y="416"/>
      <point x="855" y="398" type="line"/>
      <point x="855" y="-124" type="line"/>
      <point x="855" y="-143"/>
      <point x="824" y="-148" type="line"/>
      <point x="808" y="-148"/>
      <point x="808" y="-141" type="line"/>
      <point x="808" y="-102" type="line"/>
      <point x="199" y="-102" type="line"/>
      <point x="199" y="-136" type="line"/>
      <point x="199" y="-148"/>
      <point x="183" y="-148" type="line"/>
      <point x="173" y="-148"/>
      <point x="159" y="-143" type="line"/>
      <point x="148" y="-132"/>
      <point x="148" y="-116" type="line"/>
      <point x="148" y="-99"/>
      <point x="149" y="-68" type="line"/>
      <point x="152" y="-43"/>
      <point x="152" y="36" type="line"/>
      <point x="152" y="415" type="line"/>
      <point x="152" y="443"/>
    </contour>
    <contour>
      <point x="199" y="-74" type="line"/>
      <point x="808" y="-74" type="line"/>
      <point x="808" y="411" type="line"/>
      <point x="199" y="411" type="line"/>
    </contour>
    <contour>
      <point x="636" y="648" type="line"/>
      <point x="711" y="623"/>
      <point x="768" y="594" type="line"/>
      <point x="829" y="563"/>
      <point x="861" y="541" type="line"/>
      <point x="896" y="519"/>
      <point x="910" y="504" type="line"/>
      <point x="924" y="492"/>
      <point x="928" y="480" type="line"/>
      <point x="933" y="470"/>
      <point x="933" y="462" type="line"/>
      <point x="933" y="438"/>
      <point x="914" y="438" type="line"/>
      <point x="904" y="438"/>
      <point x="895" y="442" type="line"/>
      <point x="883" y="447"/>
      <point x="860" y="469" type="line"/>
      <point x="830" y="501"/>
      <point x="793" y="527" type="line"/>
      <point x="758" y="556"/>
      <point x="714" y="583" type="line"/>
      <point x="670" y="608"/>
      <point x="617" y="634" type="line"/>
    </contour>
    <contour>
      <point x="636" y="368" type="line"/>
      <point x="676" y="352"/>
      <point x="697" y="340" type="line"/>
      <point x="707" y="335"/>
      <point x="707" y="325" type="line"/>
      <point x="707" y="313"/>
      <point x="667" y="313" type="line"/>
      <point x="629" y="251"/>
      <point x="590" y="207" type="line"/>
      <point x="575" y="190"/>
      <point x="561" y="177" type="line"/>
      <point x="602" y="147"/>
      <point x="629" y="126" type="line"/>
      <point x="685" y="86"/>
      <point x="706" y="61" type="line"/>
      <point x="718" y="48"/>
      <point x="718" y="36" type="line"/>
      <point x="718" y="-3"/>
      <point x="695" y="-3" type="line"/>
      <point x="686" y="-3"/>
      <point x="672" y="9" type="line"/>
      <point x="663" y="28"/>
      <point x="614" y="77" type="line"/>
      <point x="580" y="114"/>
      <point x="532" y="150" type="line"/>
      <point x="521" y="142"/>
      <point x="510" y="134" type="line"/>
      <point x="462" y="96"/>
      <point x="395" y="60" type="line"/>
      <point x="331" y="23"/>
      <point x="257" y="5" type="line"/>
      <point x="246" y="16" type="line"/>
      <point x="325" y="47"/>
      <point x="383" y="82" type="line"/>
      <point x="435" y="115"/>
      <point x="473" y="146" type="line"/>
      <point x="490" y="161"/>
      <point x="503" y="173" type="line"/>
      <point x="494" y="180"/>
      <point x="487" y="185" type="line"/>
      <point x="411" y="246"/>
      <point x="312" y="309" type="line"/>
      <point x="328" y="325" type="line"/>
      <point x="404" y="282"/>
      <point x="489" y="226" type="line"/>
      <point x="511" y="211"/>
      <point x="529" y="199" type="line"/>
      <point x="539" y="210"/>
      <point x="547" y="220" type="line"/>
      <point x="584" y="261"/>
      <point x="604" y="297" type="line"/>
      <point x="624" y="332"/>
    </contour>
  </outline>
</glyph>
